<svg width="251" height="23" viewBox="0 0 251 23" fill="none" xmlns="http://www.w3.org/2000/svg">
<line x1="2.99902" y1="12.6296" x2="241.001" y2="12.6296" stroke="#8A8894"/>
<g clip-path="url(#clip0)">
<path d="M250.996 0C251.016 0.759382 250.879 1.51472 250.596 2.2194C250.312 2.92408 249.887 3.56316 249.347 4.0972C248.564 4.91257 247.585 5.51379 246.503 5.8436C245.422 6.1734 244.274 6.2208 243.169 5.98127C242.601 5.89998 242.068 5.66238 241.628 5.29506C240.544 4.27377 241.746 2.6064 242.561 1.77372C243.526 0.803085 244.828 0.243036 246.197 0.210679C247.824 0.168543 249.592 0.822651 250.996 0Z" fill="#60992E"/>
<path d="M240.318 2.25324C240.272 1.97033 240.237 1.76768 240.227 1.69946C240.22 1.67589 240.22 1.65079 240.227 1.62722C240.236 1.61349 240.247 1.6016 240.26 1.59229C240.273 1.58297 240.288 1.57643 240.304 1.57305C240.448 1.51887 240.813 1.3724 240.952 1.48878C241.005 1.54517 241.043 1.61423 241.062 1.68942C241.248 2.30684 241.37 2.94145 241.427 3.58353C241.477 4.12126 241.628 4.87569 241.427 5.38935C241.399 5.47741 241.346 5.55563 241.275 5.61493C241.204 5.67424 241.118 5.7122 241.026 5.72443C240.908 5.73245 240.504 3.37285 240.318 2.25324Z" fill="#60992E"/>
<path d="M243.877 4.49245C245.755 5.01128 247.351 6.25194 248.318 7.94357C249.979 10.7968 249.778 14.4927 247.429 16.9065C245.039 19.3704 240.898 20.2653 237.651 19.1938C230.994 17.0108 231.75 6.54908 238.217 4.62889C240.113 4.06106 242.101 3.98482 243.877 4.49245Z" fill="#FE4400"/>
<path opacity="0.2" d="M243.404 4.63696C245.042 5.08976 246.434 6.17157 247.278 7.64666C248.727 10.1347 248.55 13.3571 246.502 15.4719C244.409 17.6108 240.807 18.3873 237.974 17.4563C232.171 15.5541 232.828 6.42071 238.46 4.75534C240.063 4.24955 241.778 4.20851 243.404 4.63696Z" fill="#FFFFFA"/>
</g>
<g clip-path="url(#clip1)">
<path d="M130.996 2C131.016 2.75938 130.879 3.51472 130.596 4.2194C130.312 4.92408 129.887 5.56316 129.347 6.0972C128.564 6.91257 127.585 7.51379 126.503 7.8436C125.422 8.1734 124.274 8.2208 123.169 7.98127C122.601 7.89998 122.068 7.66238 121.628 7.29506C120.544 6.27377 121.746 4.6064 122.561 3.77372C123.526 2.80309 124.828 2.24304 126.197 2.21068C127.824 2.16854 129.592 2.82265 130.996 2Z" fill="#60992E"/>
<path d="M120.318 4.25324C120.272 3.97033 120.237 3.76768 120.227 3.69946C120.22 3.67589 120.22 3.65079 120.227 3.62722C120.236 3.61349 120.247 3.6016 120.26 3.59229C120.273 3.58297 120.288 3.57643 120.304 3.57305C120.448 3.51887 120.813 3.3724 120.952 3.48878C121.005 3.54517 121.043 3.61423 121.062 3.68942C121.248 4.30684 121.37 4.94145 121.427 5.58353C121.477 6.12126 121.628 6.87569 121.427 7.38935C121.399 7.47741 121.346 7.55563 121.275 7.61493C121.204 7.67424 121.118 7.7122 121.026 7.72443C120.908 7.73245 120.504 5.37285 120.318 4.25324Z" fill="#60992E"/>
<path d="M123.877 6.49245C125.755 7.01128 127.351 8.25194 128.318 9.94357C129.979 12.7968 129.778 16.4927 127.429 18.9065C125.039 21.3704 120.898 22.2653 117.651 21.1938C110.994 19.0108 111.75 8.54908 118.217 6.62889C120.113 6.06106 122.101 5.98482 123.877 6.49245Z" fill="#FE4400"/>
<path opacity="0.2" d="M123.404 6.63696C125.042 7.08976 126.434 8.17157 127.278 9.64666C128.727 12.1347 128.55 15.3571 126.502 17.4719C124.409 19.6108 120.807 20.3873 117.974 19.4563C112.171 17.5541 112.828 8.42071 118.46 6.75534C120.063 6.24955 121.778 6.20851 123.404 6.63696Z" fill="#FFFFFA"/>
</g>
<g clip-path="url(#clip2)">
<path d="M17.9961 3C18.0157 3.75938 17.8794 4.51472 17.5957 5.2194C17.3121 5.92408 16.887 6.56316 16.3468 7.0972C15.5635 7.91257 14.5846 8.51379 13.5031 8.8436C12.4217 9.1734 11.2738 9.2208 10.1689 8.98127C9.60148 8.89998 9.06792 8.66238 8.6279 8.29506C7.54441 7.27377 8.74628 5.6064 9.56091 4.77372C10.5257 3.80309 11.8284 3.24304 13.1966 3.21068C14.8239 3.16854 16.5916 3.82265 17.9961 3Z" fill="#60992E"/>
<path d="M7.31773 5.25324C7.27158 4.97033 7.23747 4.76768 7.22744 4.69946C7.22041 4.67589 7.22041 4.65079 7.22744 4.62722C7.2358 4.61349 7.24687 4.6016 7.25998 4.59229C7.27309 4.58297 7.28796 4.57643 7.30368 4.57305C7.44815 4.51887 7.81332 4.3724 7.95177 4.48878C8.00504 4.54517 8.04303 4.61423 8.06213 4.68942C8.24752 5.30684 8.36987 5.94145 8.4273 6.58353C8.47746 7.12126 8.62795 7.87569 8.4273 8.38935C8.39891 8.47741 8.34615 8.55563 8.27513 8.61493C8.2041 8.67424 8.11773 8.7122 8.02601 8.72443C7.90763 8.73245 7.50433 6.37285 7.31773 5.25324Z" fill="#60992E"/>
<path d="M10.8772 7.49245C12.755 8.01128 14.3513 9.25194 15.3175 10.9436C16.9789 13.7968 16.7782 17.4927 14.4287 19.9065C12.039 22.3704 7.89762 23.2653 4.65116 22.1938C-2.00629 20.0108 -1.24986 9.54908 5.21698 7.62889C7.11309 7.06106 9.1015 6.98482 10.8772 7.49245Z" fill="#FE4400"/>
<path opacity="0.2" d="M10.4037 7.63696C12.0416 8.08976 13.4343 9.17157 14.2781 10.6467C15.7268 13.1347 15.5502 16.3571 13.5016 18.4719C11.4089 20.6108 7.80729 21.3873 4.97416 20.4563C-0.828536 18.5541 -0.172423 9.42071 5.45973 7.75534C7.06342 7.24955 8.7776 7.20851 10.4037 7.63696Z" fill="#FFFFFA"/>
</g>
<defs>
<clipPath id="clip0">
<rect width="18" height="19.6373" fill="white" transform="translate(233)"/>
</clipPath>
<clipPath id="clip1">
<rect width="18" height="19.6373" fill="white" transform="translate(113 2)"/>
</clipPath>
<clipPath id="clip2">
<rect width="18" height="19.6373" fill="white" transform="translate(0 3)"/>
</clipPath>
</defs>
</svg>
