<svg width="249" height="21" viewBox="0 0 249 21" fill="none" xmlns="http://www.w3.org/2000/svg">
<line x1="2.99902" y1="10.6296" x2="241.001" y2="10.6296" stroke="#8A8894"/>
<g clip-path="url(#clip0)">
<path d="M17.9961 1C18.0157 1.75938 17.8794 2.51472 17.5957 3.2194C17.3121 3.92408 16.887 4.56316 16.3468 5.0972C15.5635 5.91257 14.5846 6.51379 13.5031 6.8436C12.4217 7.1734 11.2738 7.2208 10.1689 6.98127C9.60148 6.89998 9.06792 6.66238 8.6279 6.29506C7.54441 5.27377 8.74628 3.6064 9.56091 2.77372C10.5257 1.80309 11.8284 1.24304 13.1966 1.21068C14.8239 1.16854 16.5916 1.82265 17.9961 1Z" fill="#60992E"/>
<path d="M7.31773 3.2533C7.27158 2.97039 7.23747 2.76774 7.22744 2.69952C7.22041 2.67595 7.22041 2.65085 7.22744 2.62728C7.2358 2.61355 7.24687 2.60166 7.25998 2.59235C7.27309 2.58303 7.28796 2.57649 7.30368 2.57311C7.44815 2.51894 7.81332 2.37246 7.95177 2.48884C8.00504 2.54523 8.04303 2.6143 8.06213 2.68948C8.24752 3.3069 8.36987 3.94151 8.4273 4.58359C8.47746 5.12132 8.62795 5.87575 8.4273 6.38941C8.39891 6.47747 8.34615 6.55569 8.27513 6.615C8.2041 6.6743 8.11773 6.71226 8.02601 6.72449C7.90763 6.73251 7.50433 4.37291 7.31773 3.2533Z" fill="#60992E"/>
<path d="M10.8772 5.49245C12.755 6.01128 14.3513 7.25194 15.3175 8.94357C16.9789 11.7968 16.7782 15.4927 14.4287 17.9065C12.039 20.3704 7.89762 21.2653 4.65116 20.1938C-2.00629 18.0108 -1.24986 7.54908 5.21698 5.62889C7.11309 5.06106 9.1015 4.98482 10.8772 5.49245Z" fill="#FE4400"/>
<path opacity="0.2" d="M10.4037 5.63696C12.0416 6.08976 13.4343 7.17157 14.2781 8.64666C15.7268 11.1347 15.5502 14.3571 13.5016 16.4719C11.4089 18.6108 7.80729 19.3873 4.97416 18.4563C-0.828536 16.5541 -0.172423 7.42071 5.45973 5.75534C7.06342 5.24955 8.7776 5.20851 10.4037 5.63696Z" fill="#FFFFFA"/>
</g>
<g clip-path="url(#clip1)">
<path d="M130.996 0C131.016 0.759382 130.879 1.51472 130.596 2.2194C130.312 2.92408 129.887 3.56316 129.347 4.0972C128.564 4.91257 127.585 5.51379 126.503 5.8436C125.422 6.1734 124.274 6.2208 123.169 5.98127C122.601 5.89998 122.068 5.66238 121.628 5.29506C120.544 4.27377 121.746 2.6064 122.561 1.77372C123.526 0.803085 124.828 0.243036 126.197 0.210679C127.824 0.168543 129.592 0.822651 130.996 0Z" fill="#60992E"/>
<path d="M120.318 2.2533C120.272 1.97039 120.237 1.76774 120.227 1.69952C120.22 1.67595 120.22 1.65085 120.227 1.62728C120.236 1.61355 120.247 1.60166 120.26 1.59235C120.273 1.58303 120.288 1.57649 120.304 1.57311C120.448 1.51894 120.813 1.37246 120.952 1.48884C121.005 1.54523 121.043 1.6143 121.062 1.68948C121.248 2.3069 121.37 2.94151 121.427 3.58359C121.477 4.12132 121.628 4.87575 121.427 5.38941C121.399 5.47747 121.346 5.55569 121.275 5.615C121.204 5.6743 121.118 5.71226 121.026 5.72449C120.908 5.73251 120.504 3.37291 120.318 2.2533Z" fill="#60992E"/>
<path d="M123.877 4.49245C125.755 5.01128 127.351 6.25194 128.318 7.94357C129.979 10.7968 129.778 14.4927 127.429 16.9065C125.039 19.3704 120.898 20.2653 117.651 19.1938C110.994 17.0108 111.75 6.54908 118.217 4.62889C120.113 4.06106 122.101 3.98482 123.877 4.49245Z" fill="#FE4400"/>
<path opacity="0.2" d="M123.404 4.63696C125.042 5.08976 126.434 6.17157 127.278 7.64666C128.727 10.1347 128.55 13.3571 126.502 15.4719C124.409 17.6108 120.807 18.3873 117.974 17.4563C112.171 15.5541 112.828 6.42071 118.46 4.75534C120.063 4.24955 121.778 4.20851 123.404 4.63696Z" fill="#FFFFFA"/>
</g>
<circle cx="241" cy="10" r="7" fill="white" stroke="#FE4400" stroke-width="2"/>
<defs>
<clipPath id="clip0">
<rect width="18" height="19.6373" fill="white" transform="translate(0 1)"/>
</clipPath>
<clipPath id="clip1">
<rect width="18" height="19.6373" fill="white" transform="translate(113)"/>
</clipPath>
</defs>
</svg>
