<svg width="249" height="20" viewBox="0 0 249 20" fill="none" xmlns="http://www.w3.org/2000/svg">
<line x1="2.99902" y1="11.5" x2="241.001" y2="11.5" stroke="#8A8894"/>
<g clip-path="url(#clip0)">
<path d="M17.9961 0C18.0157 0.759382 17.8794 1.51472 17.5957 2.2194C17.3121 2.92408 16.887 3.56316 16.3468 4.0972C15.5635 4.91257 14.5846 5.51379 13.5031 5.8436C12.4217 6.1734 11.2738 6.2208 10.1689 5.98127C9.60148 5.89998 9.06792 5.66238 8.6279 5.29506C7.54441 4.27377 8.74628 2.6064 9.56091 1.77372C10.5257 0.803085 11.8284 0.243036 13.1966 0.210679C14.8239 0.168543 16.5916 0.822651 17.9961 0Z" fill="#60992E"/>
<path d="M7.31773 2.25324C7.27158 1.97033 7.23747 1.76768 7.22744 1.69946C7.22041 1.67589 7.22041 1.65079 7.22744 1.62722C7.2358 1.61349 7.24687 1.6016 7.25998 1.59229C7.27309 1.58297 7.28796 1.57643 7.30368 1.57305C7.44815 1.51887 7.81332 1.3724 7.95177 1.48878C8.00504 1.54517 8.04303 1.61423 8.06213 1.68942C8.24752 2.30684 8.36987 2.94145 8.4273 3.58353C8.47746 4.12126 8.62795 4.87569 8.4273 5.38935C8.39891 5.47741 8.34615 5.55563 8.27513 5.61493C8.2041 5.67424 8.11773 5.7122 8.02601 5.72443C7.90763 5.73245 7.50433 3.37285 7.31773 2.25324Z" fill="#60992E"/>
<path d="M10.8772 4.49245C12.755 5.01128 14.3513 6.25194 15.3175 7.94357C16.9789 10.7968 16.7782 14.4927 14.4287 16.9065C12.039 19.3704 7.89762 20.2653 4.65116 19.1938C-2.00629 17.0108 -1.24986 6.54908 5.21698 4.62889C7.11309 4.06106 9.1015 3.98482 10.8772 4.49245Z" fill="#FE4400"/>
<path opacity="0.2" d="M10.4037 4.63696C12.0416 5.08976 13.4343 6.17157 14.2781 7.64666C15.7268 10.1347 15.5502 13.3571 13.5016 15.4719C11.4089 17.6108 7.80729 18.3873 4.97416 17.4563C-0.828536 15.5541 -0.172423 6.42071 5.45973 4.75534C7.06342 4.24955 8.7776 4.20851 10.4037 4.63696Z" fill="#FFFFFA"/>
</g>
<circle cx="241" cy="12" r="7" fill="white" stroke="#FE4400" stroke-width="2"/>
<circle cx="124" cy="12" r="7" fill="white" stroke="#FE4400" stroke-width="2"/>
<defs>
<clipPath id="clip0">
<rect width="18" height="19.6373" fill="white"/>
</clipPath>
</defs>
</svg>