<svg width="311" height="82" viewBox="0 0 311 82" fill="none" xmlns="http://www.w3.org/2000/svg">
<rect width="311" height="82" rx="16" fill="#FE4400"/>
<mask id="mask0" style="mask-type:alpha" maskUnits="userSpaceOnUse" x="0" y="0" width="311" height="82">
<rect width="311" height="82" rx="16" fill="#8F98FF"/>
</mask>
<g mask="url(#mask0)">
<path fill-rule="evenodd" clip-rule="evenodd" d="M292.027 -106.64C309.962 -111.74 329.287 -101.631 344.2 -90.7074C358.931 -79.9162 367.27 -63.5951 373.699 -46.8141C380.389 -29.3483 389.53 -9.85108 381.69 7.15917C373.955 23.94 351.618 27.3173 335.253 36.5963C320.937 44.7138 308.611 57.8968 292.027 57.9991C275.405 58.1017 259.456 49.1661 248.399 37.1321C238.482 26.3382 241.611 9.92588 235.674 -3.33403C228.723 -18.8594 205.166 -30.656 210.887 -46.6466C216.646 -62.7455 244.207 -55.9165 258.182 -66.2496C272.766 -77.0324 274.428 -101.636 292.027 -106.64Z" fill="#FEBBA2"/>
</g>
</svg>
