<svg width="22" height="13" viewBox="0 0 22 13" fill="none" xmlns="http://www.w3.org/2000/svg">
<path d="M8.166 12.172L6.235 11.654L7.022 8.715C5.84397 8.28053 4.74912 7.64736 3.785 6.843L1.632 8.997L0.217 7.582L2.371 5.429C1.15508 3.97276 0.338088 2.22576 0 0.359L1.968 0C2.727 4.202 6.403 7.39 10.824 7.39C15.244 7.39 18.921 4.202 19.68 0L21.648 0.358C21.3104 2.22502 20.4937 3.97237 19.278 5.429L21.431 7.582L20.016 8.997L17.863 6.843C16.8989 7.64736 15.804 8.28053 14.626 8.715L15.413 11.655L13.482 12.172L12.694 9.232C11.4564 9.44408 10.1916 9.44408 8.954 9.232L8.166 12.172Z" fill="#FE4400"/>
</svg>
