<svg xmlns="http://www.w3.org/2000/svg" viewBox="0 0 375 268.94"><defs><style>.cls-1{isolation:isolate;}.cls-2{fill:#fdbaa1;}.cls-3{fill:#5251a2;}.cls-4{fill:#e7e7f7;}.cls-5{fill:#21111d;}.cls-6{fill:#2a2962;}.cls-7{fill:#fff;}.cls-8{fill:#a8a8d0;}.cls-9{mix-blend-mode:multiply;}.cls-10{fill:#fe9f73;}.cls-11{fill:#3aa1c9;}.cls-12{fill:#472a31;}.cls-13{fill:#d7e4f7;}.cls-14{fill:#fecc86;}.cls-15{fill:#4cb7d8;}.cls-16{fill:#683d46;}.cls-17{fill:#ffb357;}.cls-18{fill:#f9b59d;}.cls-19{fill:#e23e3d;}.cls-20{fill:#cc2323;}.cls-21{fill:#e2f2f1;}.cls-22{fill:#f07162;}.cls-23{fill:#49263e;}.cls-24{fill:#4c222e;}.cls-25{fill:#fbfdfc;}.cls-26{fill:#f9956e;}.cls-27{fill:#e2d391;}.cls-28{fill:#6da49a;}.cls-29{fill:#f78c63;}.cls-30{fill:#fd7583;}.cls-31{fill:#88afb5;}.cls-32{fill:#aac9f8;}.cls-33{fill:#258d8c;}.cls-34{fill:#7fc6a6;}.cls-35{fill:#3a1f33;}.cls-36{fill:#febac7;}.cls-37{fill:#bb4d3b;}.cls-38{fill:#59201a;}.cls-39{fill:#33192c;}.cls-40{fill:#c4ae53;}.cls-41{fill:#877322;}</style></defs><g class="cls-1"><g id="Camada_2" data-name="Camada 2"><g id="Camada_2-2" data-name="Camada 2"><path class="cls-2" d="M374.88,161.6c-13.11.36-26.26.23-39.34,1.18-19.79,1.44-39.6,2.65-59.38,4.58-32.82,3.21-65.44,7.77-97.87,13.48-47,8.26-93.45,18.85-139.51,31.27C26,215.56,13,218.44.13,221.58Q.13,113.43,0,5.29C0,1,1.14.55,5,.55q182.76.18,365.52,0c4,0,4.48,1.16,4.47,4.71Q374.78,83.43,374.88,161.6Z"/><path class="cls-3" d="M50.23,259.16V108.36c0-7.17,5-13,11.12-13H311.94c6.14,0,11.12,5.81,11.12,13v150.8Z"/><path class="cls-4" d="M56.62,251.05V114.74c0-9.78,2.71-10.73,6.06-10.73H310.61a6,6,0,0,1,6.07,5.86V251.05Z"/><path class="cls-5" d="M56.29,233.48l.65-.65v-123a5.65,5.65,0,0,1,5.74-5.53v-.65a6.3,6.3,0,0,0-6.39,6.18Z"/><path class="cls-5" d="M316.9,251.05h-.45V109.87a5.75,5.75,0,0,0-5.84-5.63H62.68v-.46H310.61a6.2,6.2,0,0,1,6.29,6.09Z"/><rect class="cls-6" x="23.9" y="259.16" width="314.89" height="8.66"/><g id="Conteudo_pc" data-name="Conteudo pc"><rect class="cls-7" x="113.08" y="116.56" width="149.39" height="116.49"/><rect class="cls-4" x="137.97" y="122.99" width="118.33" height="5.93"/><rect class="cls-8" x="119.59" y="138.28" width="136.7" height="20.65"/><rect class="cls-4" x="119.59" y="158.26" width="136.7" height="68.22"/><circle class="cls-4" cx="131.74" cy="125.96" r="2.97" transform="translate(-21.11 225.24) rotate(-76.72)"/><circle class="cls-4" cx="122.56" cy="125.96" r="2.97"/><rect class="cls-7" x="123.77" y="143.04" width="106.77" height="2.04"/><rect class="cls-7" x="123.77" y="149.62" width="106.77" height="2.04"/><path class="cls-8" d="M167.05,165.37h84.36a.94.94,0,0,0,.94-.94h0a.94.94,0,0,0-.94-1H167.05a.94.94,0,0,0-.94,1h0A.94.94,0,0,0,167.05,165.37Z"/><path class="cls-8" d="M167.05,171.09h84.36a.94.94,0,0,0,.94-.94h0a.94.94,0,0,0-.94-.94H167.05a.94.94,0,0,0-.94.94h0A.94.94,0,0,0,167.05,171.09Z"/><path class="cls-8" d="M167.05,176.81h84.36a.94.94,0,0,0,.94-.94h0a.94.94,0,0,0-.94-.94H167.05a.94.94,0,0,0-.94.94h0A.94.94,0,0,0,167.05,176.81Z"/><path class="cls-8" d="M167.05,188.26h84.36a.94.94,0,0,0,.94-.94h0a1,1,0,0,0-.94-.95H167.05a1,1,0,0,0-.94.95h0A.94.94,0,0,0,167.05,188.26Z"/><path class="cls-8" d="M167.05,194h84.36a.94.94,0,0,0,.94-.94h0a.94.94,0,0,0-.94-.94H167.05a.94.94,0,0,0-.94.94h0A.94.94,0,0,0,167.05,194Z"/><path class="cls-8" d="M167.05,199.7h84.36a.94.94,0,0,0,.94-.94h0a.94.94,0,0,0-.94-.94H167.05a.94.94,0,0,0-.94.94h0A.94.94,0,0,0,167.05,199.7Z"/><path class="cls-8" d="M167.05,211.15h84.36a.94.94,0,0,0,.94-.94h0a.94.94,0,0,0-.94-.94H167.05a.94.94,0,0,0-.94.94h0A.94.94,0,0,0,167.05,211.15Z"/><path class="cls-8" d="M167.05,216.87h84.36a.94.94,0,0,0,.94-.94h0a.94.94,0,0,0-.94-.94H167.05a.94.94,0,0,0-.94.94h0A.94.94,0,0,0,167.05,216.87Z"/><rect class="cls-7" x="124.72" y="163.48" width="35.93" height="32.23"/><rect class="cls-7" x="124.72" y="204.17" width="35.93" height="12.71"/><g class="cls-9"><polygon class="cls-8" points="127.23 188.26 133.35 178.15 142.38 182.01 148.42 169.21 157.53 188.26 127.23 188.26"/></g><g class="cls-9"><circle class="cls-8" cx="137.97" cy="172.18" r="2.75"/></g></g><rect class="cls-5" x="88.62" y="250.82" width="182.25" height="0.46"/><path class="cls-10" d="M129.77,71l2.31,1,2.57,1.22s4,.69,4,.68-.33.59-.33.59c4.95.62,20.55,1.26,23.11,1.54,1.54.17,3,2.09,4,3.59l-1.26.86s-13.63-.6-13.6-.32c0,.09.39,1.45,1,3.22-8.41.56-20.2.5-22.38-3C127.38,77.58,129.13,73.5,129.77,71Z"/><polygon class="cls-10" points="182.69 132.16 172.34 132.3 172.19 122.62 182.5 121.34 182.69 132.16"/><path class="cls-11" d="M192.66,135.75l-21-2.55.51-4.19a3.28,3.28,0,0,1,4-.51,5.22,5.22,0,0,0,6.59.31l7.37,4.25S192.83,134.33,192.66,135.75Z"/><path class="cls-12" d="M172.25,134.52h21.32a0,0,0,0,1,0,0V136a0,0,0,0,1,0,0H172.25a.74.74,0,0,1-.74-.74v0A.74.74,0,0,1,172.25,134.52Z" transform="translate(347.39 291.59) rotate(-173.06)"/><path class="cls-13" d="M184.93,130.07l-3.58,4.3-1.43-.17,4-4.74Z"/><path class="cls-13" d="M183.64,134.65l-1.43-.17,3.37-4,1.06.61Z"/><path class="cls-14" d="M150.5,97.65s-8.91.15-15.16-.07a38.3,38.3,0,0,1-4.85-.16c-4.34-1-5.41-14.53-.48-22.85s22.21,17.22,22.21,17.22Z"/><polygon class="cls-10" points="166.62 132.16 156.27 132.3 156.12 122.62 166.43 121.34 166.62 132.16"/><path class="cls-15" d="M175.85,136.81l-20.72-4.19.84-4.13a3.28,3.28,0,0,1,4-.21,5.21,5.21,0,0,0,6.55.83l7,4.82S176.13,135.4,175.85,136.81Z"/><path class="cls-16" d="M155.5,134.79h21.32a0,0,0,0,1,0,0v1.48a0,0,0,0,1,0,0H155.5a.74.74,0,0,1-.74-.74v0A.74.74,0,0,1,155.5,134.79Z" transform="translate(301.47 301.2) rotate(-168.58)"/><path class="cls-13" d="M168.59,130.54l-3.91,4-1.41-.29,4.31-4.42Z"/><path class="cls-13" d="M166.94,135l-1.41-.29L169.2,131l1,.69Z"/><path class="cls-17" d="M160.09,79.49s21.89,1.4,22.52,3.93,2.44,29.4,1.09,40.86c0,0-8.31.57-12.28-.39l-1-27.95-6.56-.75-15-18.06Z"/><path class="cls-14" d="M149.57,79.08s16.88,4.76,17.52,7.29,2.43,26.51,1.07,38c0,0-8.93.51-12.9-.45l-1.07-26.37-3.85.14L141,81.22Z"/><path class="cls-5" d="M160.62,124.65c-4,0-5.35-.59-5.42-.62l-.09,0-1-26.52,1.63.77-.13.27L154.4,98l1,25.82c.43.15,2.47.74,7.31.52v.3C162,124.64,161.26,124.65,160.62,124.65Z"/><path class="cls-5" d="M156.92,118.93c-.42-1.62-.54-17.46-.55-18.14h.31c0,.16.12,16.48.53,18.07Z"/><path class="cls-5" d="M172.61,96.53a21.32,21.32,0,0,0-4.79-.74v-.31a21.36,21.36,0,0,1,4.87.76Z"/><path class="cls-5" d="M177.11,124.6a27.44,27.44,0,0,1-5.72-.56l-.12,0-1-28.26,1.25,1-.2.24-.73-.59.95,27.37a28.15,28.15,0,0,0,5.84.52v.31Z"/><path class="cls-5" d="M172.86,119.52c-.41-2.45,0-19.06,0-19.76h.31c0,.18-.42,17.29,0,19.71Z"/><path class="cls-5" d="M143.79,97.93c-3.89,0-8.55-.13-13.79-.52l0-.3a155.82,155.82,0,0,0,26.19,0l0,.3A124.38,124.38,0,0,1,143.79,97.93Z"/><path class="cls-3" d="M149.14,70.57c.3,0,12.42,5.21,12.42,5.21l-2.44,4.67L152.31,79Z"/><path class="cls-3" d="M131.57,48.84s-5.16-.18-7.62,1.21c-3.67,2.08-2.36,14-2.36,14s3.12-1.7,3.31-2.27S131.57,48.84,131.57,48.84Z"/><path class="cls-5" d="M130.32,74.7h0l3.79.87a.14.14,0,0,0,.17-.11.14.14,0,0,0-.11-.17l-3.79-.87a.15.15,0,0,0-.17.11A.13.13,0,0,0,130.32,74.7Z"/><path class="cls-18" d="M128.33,72.45l2.31,1,2.57,1.22s4,.69,4,.68l-.33.59c4.95.61,20.55,1.25,23.11,1.54,1.54.17,3,2.09,4,3.59l-1.27.85s-13.62-.6-13.59-.31c0,.09.39,1.44,1,3.21-8.42.56-20.2.51-22.39-3C126,79,127.7,74.93,128.33,72.45Z"/><path class="cls-3" d="M126.58,49.77c2.93-.41,10.66-.69,10.66-.69s1,.27.7.12c8.54,1.51,9.48,7.84,9.48,7.84l4.17,18.29,4.64.25c1.5,2.85.4,10.52.4,10.52l-22.47,2.53s-4.86.8-9-4.46c-2.72-3.49-3.65-14.19-3.64-22C121.56,62.17,122,50.4,126.58,49.77Z"/><polygon class="cls-19" points="189.5 63.93 168.11 63.93 160.65 82.93 182.04 82.93 189.5 63.93"/><polygon class="cls-20" points="160.65 82.93 161.77 82.93 169.23 63.93 168.11 63.93 160.65 82.93"/><path class="cls-21" d="M175.52,72.83c-.3.87-.08,1.73.48,1.92s1.27-.36,1.56-1.23.08-1.73-.48-1.93S175.82,72,175.52,72.83Z"/><path class="cls-20" d="M153.58,81.4h8v1.53h-8a.77.77,0,0,1-.77-.77h0A.77.77,0,0,1,153.58,81.4Z"/><rect class="cls-19" x="155.6" y="81.92" width="5.05" height="0.24" transform="translate(316.26 164.09) rotate(180)"/><path class="cls-5" d="M134.13,75.65h.08a.15.15,0,0,0,.11-.17c0-.1-2.37-10.09-3.37-16.37a.15.15,0,0,0-.17-.11.13.13,0,0,0-.11.16c1,6.29,3.35,16.28,3.37,16.38A.15.15,0,0,0,134.13,75.65Z"/><path class="cls-5" d="M148.66,75.49a.14.14,0,0,0,.09,0,.14.14,0,0,0,.1-.18c0-.11-3.52-11.16-4.25-15a.15.15,0,0,0-.17-.12.16.16,0,0,0-.11.17c.73,3.84,4.22,14.91,4.25,15A.2.2,0,0,0,148.66,75.49Z"/><path class="cls-5" d="M134.5,54.44l.33,0a.12.12,0,0,0,.13-.11.11.11,0,0,0-.11-.12c-4.89-.35-5.79-3.92-5.8-4a.11.11,0,0,0-.14-.09.11.11,0,0,0-.09.13S129.72,54,134.5,54.44Z"/><path class="cls-5" d="M149.66,72.85a.15.15,0,0,0,.17-.06l.95-1.63V71.1L147.56,57a8.56,8.56,0,0,0-1.69-3.58c-1.31-1.7-3.88-3.85-8.73-4.5a.15.15,0,0,0-.16.12.15.15,0,0,0,.13.16c4.74.63,7.25,2.73,8.52,4.38a8.4,8.4,0,0,1,1.65,3.47h0l3.2,14-.9,1.53a.15.15,0,0,0,.06.2Z"/><path class="cls-5" d="M154.68,72.9a.14.14,0,0,0,.18-.08.13.13,0,0,0-.08-.18L150.68,71a.14.14,0,0,0-.18.08.14.14,0,0,0,.08.18l4.1,1.64Z"/><path class="cls-3" d="M156.23,75.58s1.48,3.5.4,10.52l-5.43-2.91L152.81,78Z"/><path class="cls-5" d="M129.23,75.78h.05c.21,0,20.28-.61,26.85-.07a17.57,17.57,0,0,1,.69,6.73.15.15,0,0,0,.14.15.14.14,0,0,0,.15-.13c.23-4.62-.71-6.85-.75-6.94l0-.08h-.08c-6.49-.55-26.76.06-27,.06a.14.14,0,0,0-.13.15A.14.14,0,0,0,129.23,75.78Z"/><path class="cls-10" d="M138.41,38.44l.16,6.17s.13,2-1.6,2.28l.39,2.64A2.06,2.06,0,0,1,136,51.79a5.51,5.51,0,0,1-1.64.3,3.33,3.33,0,0,1-3.28-2.15,28.13,28.13,0,0,1,.22-4.31l-.11-1.75.05-6.77Z"/><path class="cls-22" d="M132.9,45.31s.2,3.32,4.36,3.53l-.29-2A4,4,0,0,1,132.9,45.31Z"/><path class="cls-23" d="M133.7,41.8a.07.07,0,0,1-.06,0,.09.09,0,0,1,0-.12s1.12-1.2,2.18-.39a.07.07,0,0,1,0,.11.08.08,0,0,1-.12,0c-.94-.72-1.91.33-2,.37A.09.09,0,0,1,133.7,41.8Z"/><path class="cls-24" d="M130.83,41l1.79.32.33.33a17,17,0,0,0-.58-3.57C132,37.51,130.83,41,130.83,41Z"/><path class="cls-23" d="M137.09,41.22a.09.09,0,0,1-.06,0,.08.08,0,0,1,0-.12s.8-.72,1.31-.31a.08.08,0,0,1,0,.12.07.07,0,0,1-.11,0c-.4-.32-1.1.3-1.1.31Z"/><path d="M135.38,42.09a.25.25,0,0,1-.5,0,.25.25,0,1,1,.5,0Z"/><path d="M138,41.78a.25.25,0,0,1-.24.25.25.25,0,0,1-.26-.24.26.26,0,0,1,.25-.26A.25.25,0,0,1,138,41.78Z"/><path class="cls-10" d="M133.33,42.06a1.49,1.49,0,1,1-1.53-1.45A1.49,1.49,0,0,1,133.33,42.06Z"/><path class="cls-22" d="M131.6,42.93a.63.63,0,0,1-.6-.45.58.58,0,0,1,.22-.68.7.7,0,0,1,.78,0,.69.69,0,0,0-.31-.36,1,1,0,0,0-.66,0s0,0-.05,0a0,0,0,0,1,0,0,1,1,0,0,1,.73,0,.81.81,0,0,1,.39.53l0,.15-.1-.11a.66.66,0,0,0-.79-.08.53.53,0,0,0-.19.6.54.54,0,0,0,.52.39h0a0,0,0,0,1,0,.08Z"/><path class="cls-22" d="M136.3,43.74l0,0a0,0,0,0,1,0-.06l.82-.29-.31-1.95a0,0,0,0,1,0,0s0,0,0,0l.33,2-.89.32Z"/><path class="cls-25" d="M135.68,44.57l1.63-.09s-.18.67-.78.7A1,1,0,0,1,135.68,44.57Z"/><path class="cls-24" d="M130.83,41s-.58-2.89.28-4,5.9-3.13,6.53-2.6a.82.82,0,0,1,0,1.19s2-.71,2.54,1.1-3.87,2.68-6.51,1.9A5.81,5.81,0,0,0,130.83,41Z"/><path class="cls-5" d="M130.25,88.21a9,9,0,0,0,.93.3,7.74,7.74,0,0,0,3,.26.14.14,0,0,0,.12-.16.14.14,0,0,0-.16-.12,7.71,7.71,0,0,1-2.9-.26,11.21,11.21,0,0,1-5.93-4.15c-2.63-3.37-3.59-13.74-3.61-21.6a.14.14,0,0,0-.14-.14.15.15,0,0,0-.15.14c0,7.9,1,18.35,3.67,21.77A11.88,11.88,0,0,0,130.25,88.21Z"/><path class="cls-26" d="M174.71,241c-.11-.08-2.59-2.08-2.79-2.17-1.82,1.23-1.58,4.56-3.59,5.91,1.3.28,2.23.45,2.6.51l1.12,2.48.15.65a.76.76,0,0,0,.81.5.53.53,0,0,0,.54-.62l.07.28a.76.76,0,0,0,.8.5h0c.38,0,.62-.31.55-.62a.75.75,0,0,0,.81.5.52.52,0,0,0,.54-.61l-.06-.27a.76.76,0,0,0,.8.5h.07l.07,0c.35-.08.5-.24.54-.41a19.54,19.54,0,0,0-.7-3.22A6.59,6.59,0,0,0,174.71,241Z"/><path class="cls-22" d="M176.33,248.36h0a.1.1,0,0,0,.06-.13L175,244.27a.11.11,0,0,0-.14-.06.1.1,0,0,0-.06.13l1.47,3.95A.12.12,0,0,0,176.33,248.36Z"/><path class="cls-22" d="M175,248.68h0a.1.1,0,0,0,.06-.13L173.75,245a.1.1,0,0,0-.13-.06.11.11,0,0,0-.06.14l1.33,3.58A.12.12,0,0,0,175,248.68Z"/><path class="cls-26" d="M169.16,236.57c2,1.6,5.5,4.49,6.23,5.15,1,.91-3.75,4.88-3.75,4.88s-5.52-2.92-8.55-5Z"/><path class="cls-22" d="M173.6,248.6h0a.11.11,0,0,0,.07-.14l-1.08-2.88a.1.1,0,0,0-.13-.06.11.11,0,0,0-.06.14l1.07,2.87A.1.1,0,0,0,173.6,248.6Z"/><path class="cls-5" d="M189.1,245.33a.21.21,0,0,0,.1,0l2.19-1.9a.16.16,0,0,0,0-.21.17.17,0,0,0-.22,0l-2.19,1.9a.15.15,0,0,0,0,.21A.14.14,0,0,0,189.1,245.33Z"/><path class="cls-27" d="M144.72,248.89s1.75-5.29,20.34-4.31c21.24,1.13,35.72-2.54,39.48,4.31l-29.45,10.93Z"/><path class="cls-27" d="M178.15,258.3s-16.86-10.16-22.77-11.68-10,.49-10.66,2.27-1.24,6.58,2.69,9.41c1.7,1.23,21.15,7,26.29,8.36C173.7,266.66,178.47,264.65,178.15,258.3Z"/><path class="cls-5" d="M174.58,256.35a.17.17,0,0,0,.13-.07.16.16,0,0,0-.05-.21C158.51,246.42,153.22,246,153,245.93a.14.14,0,0,0-.16.14.15.15,0,0,0,.13.16h0c.06,0,5.47.5,21.52,10.1Z"/><path class="cls-10" d="M170.27,268.31l7.63-3.89-3.67-7.2L168,260.39h0s-10.28-.09-10.77.39S167.89,269.52,170.27,268.31Z"/><path class="cls-12" d="M172.89,267a19.93,19.93,0,0,1-3.75-7.15l-1.13.57s-10.28-.09-10.77.39,10.65,8.74,13,7.53Z"/><path class="cls-27" d="M171.11,258.3s16.86-10.16,22.78-11.68,10,.49,10.65,2.27,1.25,6.58-2.69,9.41c-1.7,1.23-22.51,7.38-27.65,8.73C174.2,267,170.79,264.65,171.11,258.3Z"/><path class="cls-5" d="M174.2,267.18a.12.12,0,0,0,.12-.07.14.14,0,0,0,0-.2c-2.84-1.88-3-7.75-3-8.52,1.19-.69,15.83-9.18,21.67-11.37a.14.14,0,0,0,.09-.19.15.15,0,0,0-.19-.09C186.75,249,171.2,258.08,171,258.17l-.07.05v.08c0,.28,0,6.76,3.15,8.86Z"/><path class="cls-5" d="M146.47,248.73a.14.14,0,0,0,.12-.06s.6-.78,2.54-.76a.14.14,0,0,0,.15-.14.15.15,0,0,0-.15-.15c-2.11,0-2.75.84-2.78.88a.15.15,0,0,0,0,.21Z"/><path class="cls-5" d="M147.43,249.48a.16.16,0,0,0,.11,0s.71-.68,2.61-.37a.16.16,0,0,0,.17-.13.14.14,0,0,0-.12-.17c-2.08-.33-2.85.43-2.88.47a.15.15,0,0,0,0,.21A.13.13,0,0,0,147.43,249.48Z"/><path class="cls-23" d="M178.54,205s-.88,8-2.07,8,.82,9.41,4,4.84c1.11-1.6,1.06-12.08-1.58-14.32S178.54,205,178.54,205Z"/><path class="cls-10" d="M179,203s1.09,7.52.11,8.86a2.08,2.08,0,0,1-1.66.75l.09,4.43-5.32-.61L172,203.89s1.52-3.11,1.52-3S179,203,179,203Z"/><path class="cls-22" d="M177.36,209.32s0,0,0,0a.06.06,0,0,1,0-.06c.22-.07.35-.45.39-.58a1.39,1.39,0,0,1-.58-.9,2.08,2.08,0,0,1,.16-1.16s0,0,.05,0a.09.09,0,0,1,0,.07,1.88,1.88,0,0,0-.15,1.09,1.28,1.28,0,0,0,.57.86l0,0v0s-.15.58-.45.68Z"/><path class="cls-22" d="M177.45,214.16l0-1.51a10.33,10.33,0,0,1-4.12-1.07A12.82,12.82,0,0,0,177.45,214.16Z"/><path class="cls-23" d="M173.84,206.82l-.07,0a.1.1,0,0,1,0-.14s1.22-1.29,2.36-.4a.1.1,0,0,1,0,.14.09.09,0,0,1-.13,0c-1-.78-2.07.33-2.11.38A.11.11,0,0,1,173.84,206.82Z"/><path class="cls-23" d="M177.8,206.56a.08.08,0,0,1-.08,0,.09.09,0,0,1,0-.13s.88-.78,1.43-.32a.09.09,0,0,1,0,.13.09.09,0,0,1-.13,0c-.42-.36-1.17.3-1.18.31A.07.07,0,0,1,177.8,206.56Z"/><path d="M175.77,207.33a.27.27,0,0,1-.26.27.28.28,0,0,1-.28-.26.27.27,0,0,1,.27-.27A.25.25,0,0,1,175.77,207.33Z"/><path d="M178.91,207.3a.28.28,0,0,1-.27.27.27.27,0,0,1,0-.54A.28.28,0,0,1,178.91,207.3Z"/><path class="cls-25" d="M176,209.76l1.89.21a1.11,1.11,0,0,1-1,.66C176.21,210.56,176,209.76,176,209.76Z"/><path class="cls-10" d="M176.67,203.18l-1.29-1.79a13,13,0,0,1,1.9,1.35A3.61,3.61,0,0,0,176.67,203.18Z"/><path class="cls-23" d="M172.8,202.33s.37,2.81,7.09,3.38c0,0,1.56-4.16-3.32-5.55s-5.33,2.36-5.23,2.33S172.8,202.33,172.8,202.33Z"/><path class="cls-23" d="M173.81,203.91a25.19,25.19,0,0,0-1.82,3.18s2.25,11.75-2.28,11.09h-.81c-4,0-1.23-8.72-1.16-13.32,0-2.88,3.53-5.8,5.81-4S173.81,203.91,173.81,203.91Z"/><circle class="cls-10" cx="171.64" cy="208.54" r="1.5"/><path class="cls-22" d="M171.54,209.47a.63.63,0,0,1-.6-.46.59.59,0,0,1,.23-.7.72.72,0,0,1,.78,0,.7.7,0,0,0-.3-.35,1,1,0,0,0-.66,0,0,0,0,0,1-.06,0,0,0,0,0,1,0-.06,1,1,0,0,1,.74,0,.81.81,0,0,1,.39.54l0,.17-.12-.12a.66.66,0,0,0-.79-.09.51.51,0,0,0-.19.59.55.55,0,0,0,.52.4s0,0,0,0a0,0,0,0,1,0,.05Z"/><path class="cls-23" d="M179.28,201.76s2.33,2.46,1.79,9.54l-1.6-7Z"/><path class="cls-28" d="M177.72,229.51l-3.24-13.61h-8.83a6.59,6.59,0,0,0-2.29.65c-3.54,1.88-13.29,12.63-12.8,19.39.44,6.15,9.29,4.93,18.1,6.35l2-8.15-3.18-.85Z"/><path class="cls-28" d="M174.79,231.52V215.9h8.83a6.59,6.59,0,0,1,2.29.65c3.54,1.88,14.51,13,14,19.73-.44,6.15-10.78,5.9-15.63,7.4l-2.7-9.74.24-.5Z"/><path class="cls-28" d="M189.1,233.64l-.11,17s-15.41,2.81-29.14-.84c-.34-.09.64-14.08.64-14.08s0-2.71,1.43-3.55,13.11-6,13.39-6S189.1,233.64,189.1,233.64Z"/><path class="cls-5" d="M174.32,220.64a.17.17,0,0,0,.17-.16.17.17,0,0,0-.16-.18c-5.06-.31-6.71-3.78-6.73-3.82a.17.17,0,0,0-.22-.08.16.16,0,0,0-.08.22s1.74,3.68,7,4Z"/><path class="cls-10" d="M179.91,215.9H168.74s2,3.5,5.88,3.48C176.39,219.38,178.28,218.73,179.91,215.9Z"/><path class="cls-29" d="M173,238.42a1.31,1.31,0,0,1-.06-1.63,2.21,2.21,0,0,1,0-1.56s3,.89,4.67,1.51a1.91,1.91,0,0,0,1.29-.61l0,0c0-.83,0-1.86,0-2s.32-.51.81.11,1.45,2.31,1.45,2.31l2.46-1.45,2,6.94s-6,.85-6.91.91a11.59,11.59,0,0,1-5.08-1.48c-1-.79-.74-1.49-.74-1.49A1.21,1.21,0,0,1,173,238.42Z"/><path class="cls-30" d="M179.52,233.83V236a1.94,1.94,0,0,1-1.85.76l-.92-.34.73-3.12Z"/><path class="cls-22" d="M175,237.86a.12.12,0,0,0,.11-.08.12.12,0,0,0-.08-.14,14.29,14.29,0,0,1-2-.94.11.11,0,1,0-.11.19,13.47,13.47,0,0,0,2.05,1Z"/><path class="cls-22" d="M175,239.27a.12.12,0,0,0,.11-.1.1.1,0,0,0-.09-.12,7.39,7.39,0,0,1-1.94-.72.1.1,0,0,0-.15,0,.11.11,0,0,0,0,.15,7.16,7.16,0,0,0,2,.74Z"/><path class="cls-22" d="M174.75,240.87a.11.11,0,0,0,.11-.09.1.1,0,0,0-.08-.13,5.48,5.48,0,0,1-1.69-.71.13.13,0,0,0-.16,0,.1.1,0,0,0,0,.15,6,6,0,0,0,1.76.74Z"/><path class="cls-15" d="M182,235.29l3.4-.85s1.91,4.75,1.91,4.91a41.5,41.5,0,0,1-1.08,4.33,13.41,13.41,0,0,1-1.2-1.15Z"/><path class="cls-5" d="M188.22,232.19l1.68-.27a.19.19,0,0,0,.16-.23.2.2,0,0,0-.23-.17l-1.41.23-3.15-4.85a.2.2,0,1,0-.34.22Z"/><path class="cls-5" d="M187.59,220.34a.15.15,0,0,1-.13-.07c-1.26-1.8-2.33-1.81-2.33-1.81h0a.17.17,0,0,1-.17-.16.18.18,0,0,1,.17-.17h0c.06,0,1.26,0,2.6,2a.17.17,0,0,1,0,.23A.17.17,0,0,1,187.59,220.34Z"/><path class="cls-5" d="M187.24,222a.16.16,0,0,1-.15-.09c-1-1.93-2-2.12-2-2.13a.16.16,0,0,1-.14-.19.16.16,0,0,1,.19-.13c.05,0,1.24.2,2.29,2.3a.18.18,0,0,1-.08.23Z"/><path class="cls-22" d="M177.85,235.58a.11.11,0,0,1-.12-.05.13.13,0,0,1,0-.16,13.82,13.82,0,0,0,1.77-1.33.11.11,0,0,1,.16,0,.12.12,0,0,1,0,.16,13.81,13.81,0,0,1-1.81,1.37Z"/><path class="cls-22" d="M178.14,237a.13.13,0,0,1-.13-.07.12.12,0,0,1,.07-.15,6.69,6.69,0,0,0,1.74-1.1.11.11,0,1,1,.15.17,7.47,7.47,0,0,1-1.81,1.14Z"/><path class="cls-22" d="M178.71,238.47a.1.1,0,0,1-.12-.06.11.11,0,0,1,0-.15,5.62,5.62,0,0,0,1.51-1,.11.11,0,0,1,.16.16,6.07,6.07,0,0,1-1.57,1.09Z"/><path class="cls-5" d="M163.55,232.08l-1.7.09a.21.21,0,0,1-.21-.19.21.21,0,0,1,.19-.22l1.43-.07,2.09-5.4a.2.2,0,1,1,.37.15Z"/><path class="cls-15" d="M170.62,234.14l-1.74,8.37s-3.59-2.93-3.59-3.24a36.49,36.49,0,0,1,1.25-4.29C166.66,234.91,170.62,234.14,170.62,234.14Z"/><path class="cls-5" d="M169,242.72h-.17a30.94,30.94,0,0,1-9.07-2.3.21.21,0,0,1-.11-.27.2.2,0,0,1,.27-.1,30.81,30.81,0,0,0,8.75,2.25l1.5-7.88-6.82-2.33a.2.2,0,0,1-.12-.26.19.19,0,0,1,.25-.12l7.15,2.44Z"/><path class="cls-5" d="M182.87,242.72H183a30.86,30.86,0,0,0,9.07-2.3.21.21,0,0,0,.11-.27.19.19,0,0,0-.26-.1,30.84,30.84,0,0,1-8.76,2.25l-1.5-7.88,6.82-2.33a.21.21,0,0,0,.13-.26.2.2,0,0,0-.26-.12l-7.15,2.44Z"/><rect class="cls-23" x="158.26" y="231.52" width="34.42" height="20.22" rx="6.29" transform="translate(350.93 483.26) rotate(180)"/><circle class="cls-7" cx="175.11" cy="239.93" r="1.37"/><path class="cls-7" d="M354.32,249.76s-3.76,9.46-.6,16.62l-72.3.61-6.68-.61-5.88-3.64v-5.58l1.64-4.61,5.34-2.79Z"/><path class="cls-31" d="M278,267.91h78.11a.93.93,0,1,0,0-1.85H278c-4.72,0-8.55-3.56-8.55-7.93s3.83-7.93,8.55-7.93h78.11a.93.93,0,1,0,0-1.85H278c-5.73,0-10.39,4.39-10.39,9.78S272.3,267.91,278,267.91Z"/><path class="cls-32" d="M353.26,258.33H314.93a.2.2,0,1,1,0-.4h38.33a.2.2,0,1,1,0,.4Z"/><path class="cls-32" d="M309.53,258.33H272.29a.2.2,0,1,1,0-.4h37.24a.2.2,0,0,1,0,.4Z"/><path class="cls-32" d="M292.4,262H273.29a.21.21,0,1,1,0-.41H292.4a.2.2,0,0,1,.2.21A.2.2,0,0,1,292.4,262Z"/><path class="cls-32" d="M353.26,262H295.2a.2.2,0,0,1-.2-.2.2.2,0,0,1,.2-.21h58.06a.21.21,0,0,1,.21.21A.2.2,0,0,1,353.26,262Z"/><path class="cls-7" d="M281.83,231.51s3.49,8.78.56,15.42l67.1.57,6.19-.57,5.46-3.38v-5.17l-1.51-4.28-5-2.59Z"/><path class="cls-33" d="M352.64,248.35h-72.5a.86.86,0,1,1,0-1.71h72.5c4.37,0,7.93-3.3,7.93-7.36s-3.56-7.36-7.93-7.36h-72.5a.86.86,0,1,1,0-1.71h72.5c5.31,0,9.64,4.07,9.64,9.07S358,248.35,352.64,248.35Z"/><path class="cls-32" d="M318.39,239.48H282.81a.2.2,0,0,1-.2-.2.21.21,0,0,1,.2-.21h35.58a.22.22,0,0,1,.21.21A.21.21,0,0,1,318.39,239.48Z"/><path class="cls-32" d="M358,239.48H323.4a.2.2,0,0,1-.2-.2.21.21,0,0,1,.2-.21H358a.21.21,0,0,1,.21.21A.2.2,0,0,1,358,239.48Z"/><path class="cls-32" d="M357,242.89H339.3a.2.2,0,0,1-.2-.21.2.2,0,0,1,.2-.2H357a.2.2,0,0,1,.2.2A.2.2,0,0,1,357,242.89Z"/><path class="cls-32" d="M357,236.08H282.81a.2.2,0,0,1-.2-.21.2.2,0,0,1,.2-.2H357a.2.2,0,0,1,.2.2A.2.2,0,0,1,357,236.08Z"/><path class="cls-31" d="M356.14,268.11H278c-5.84,0-10.6-4.48-10.6-10s4.76-10,10.6-10h78.11a1.13,1.13,0,1,1,0,2.25.2.2,0,0,1-.2-.2.2.2,0,0,1,.2-.21.72.72,0,1,0,0-1.43H278c-5.62,0-10.19,4.29-10.19,9.57s4.57,9.57,10.19,9.57h78.11a.72.72,0,1,0,0-1.43.2.2,0,0,1-.2-.21.2.2,0,0,1,.2-.2,1.13,1.13,0,1,1,0,2.25Z"/><path class="cls-5" d="M352.64,248.56h-72.5a1.06,1.06,0,0,1,0-2.12.2.2,0,0,1,.2.2.2.2,0,0,1-.2.21.65.65,0,1,0,0,1.3h72.5c5.2,0,9.44-4,9.44-8.87s-4.24-8.87-9.44-8.87h-72.5a.65.65,0,0,0,0,1.3.2.2,0,0,1,.2.21.2.2,0,0,1-.2.2,1.06,1.06,0,0,1,0-2.12h72.5c5.43,0,9.85,4.16,9.85,9.28S358.07,248.56,352.64,248.56Z"/><path class="cls-34" d="M343.76,254.46s2.46,6.13,1.05,10.64l-2-3.09a26.8,26.8,0,0,0-2.21,3.09s-1.52-10.08-4.48-10.64Z"/><path class="cls-15" d="M325.23,242.68s-2.46,6.13-1,10.64l2-3.09a27.31,27.31,0,0,1,2.2,3.09s1.52-10.07,4.48-10.64Z"/><path class="cls-32" d="M353.26,254.66h-80a.2.2,0,1,1,0-.4h80a.2.2,0,1,1,0,.4Z"/><path class="cls-32" d="M336.7,242.89H282.81a.2.2,0,0,1-.2-.21.2.2,0,0,1,.2-.2H336.7a.2.2,0,0,1,.2.2A.2.2,0,0,1,336.7,242.89Z"/><polygon class="cls-10" points="294.43 259.83 297.97 261.81 302.19 257.66 302.31 256.98 301.27 249.42 293.05 250.96 294.43 259.83"/><path class="cls-35" d="M300.47,262l-11.33,1.54h-.25c-1.12-.18-.86-.91-.86-.91l5-4.11,0-.5a1.16,1.16,0,0,1,1.8-.79l2.09,1.13s4.91.07,5.39-1.4l.44,3.57S303.27,261.63,300.47,262Z"/><polygon class="cls-10" points="279.79 260.31 283.33 262.3 287.55 258.14 287.66 257.47 286.63 249.91 278.41 251.44 279.79 260.31"/><path class="cls-35" d="M285.83,262.52l-11.33,1.54-.26,0c-1.11-.18-.85-.9-.85-.9l5-4.11,0-.51a1.17,1.17,0,0,1,1.8-.79l2.09,1.13s4.91.07,5.38-1.39l.45,3.56S288.63,262.12,285.83,262.52Z"/><path class="cls-23" d="M307.58,230.12s14.13.66,18.06-.21,4.89-13.12.43-20.63S306,224.82,306,224.82Z"/><path class="cls-35" d="M298.83,211.92s-19.68,3.07-20.25,5.35-2.2,26.54-1,36.89c0,0,7.5.52,11.08-.35l1-23.71,6,.11L309,211.59Z"/><path class="cls-23" d="M308.41,213.35s-15.24,4.3-15.81,6.58-2.2,23.94-1,34.29c0,0,8.06.46,11.64-.41l1-23.81,3.48.12,8.43-14.83Z"/><path class="cls-36" d="M317.86,184.31s6.73.11,8.3,1,8.74,12.74,10.29,17.75a16.32,16.32,0,0,1-9.27,3.68l-1.25-2.36.71,4.84L313,213.31a22.48,22.48,0,0,1-14.13-.46l-1.41-.52s0-23,4.12-25.43C305.22,184.74,313.15,183.6,317.86,184.31Z"/><path class="cls-37" d="M309.39,173v6.51s-.09,2.2,1.84,2.48l-.36,2.93a2.29,2.29,0,0,0,1.56,2.47,6.16,6.16,0,0,0,1.82.28,3.69,3.69,0,0,0,3.58-2.47,30.85,30.85,0,0,0-.37-4.77l.07-1.94-.25-7.51Z"/><path class="cls-5" d="M314.7,176.27a.09.09,0,0,0,.07,0,.09.09,0,0,0,0-.13s-1.27-1.3-2.43-.37a.1.1,0,0,0,0,.13.09.09,0,0,0,.13,0c1-.82,2.13.31,2.18.36Z"/><path class="cls-5" d="M310.93,175.72a.06.06,0,0,0,.06,0,.08.08,0,0,0,0-.12s-.92-.78-1.47-.31a.09.09,0,1,0,.12.14c.43-.37,1.22.3,1.23.3A.06.06,0,0,0,310.93,175.72Z"/><path d="M312.85,176.64a.28.28,0,0,0,.55,0,.28.28,0,1,0-.55,0Z"/><path d="M309.93,176.36a.28.28,0,0,0,.27.28.29.29,0,0,0,.28-.28.28.28,0,0,0-.28-.27A.27.27,0,0,0,309.93,176.36Z"/><path class="cls-5" d="M317,171.36l-1.53,2.17s-4.65,1.81-7-.33S306.8,170,307.5,169a3.39,3.39,0,0,1,4-.71c1.1.49,1.91-1,3.19-.24s2.8,2,2.63,2.51S317,171.36,317,171.36Z"/><path class="cls-5" d="M316.93,170.44a2.74,2.74,0,0,1,2.71,1.93c.59,2-.21,3.11-.23,3.72s.39,4.7-2.48,4.39l-.78-6.76,1-2.69Z"/><circle class="cls-37" cx="316.77" cy="176.54" r="1.65"/><path class="cls-38" d="M316.9,177.55a.67.67,0,0,0,.64-.51.65.65,0,0,0-.26-.76.78.78,0,0,0-.86,0,.74.74,0,0,1,.33-.4,1,1,0,0,1,.73,0,0,0,0,0,0,.06,0s0-.05,0-.06a1.16,1.16,0,0,0-.81.06.92.92,0,0,0-.42.6l0,.16.12-.12a.72.72,0,0,1,.87-.11.55.55,0,0,1,.22.65.58.58,0,0,1-.55.45h0a0,0,0,0,0-.05,0,0,0,0,0,0,.05,0Z"/><path class="cls-38" d="M315.69,180.13s-.13,3.68-4.73,4l.27-2.16A4.39,4.39,0,0,0,315.69,180.13Z"/><path class="cls-5" d="M326.11,204.72a17.45,17.45,0,0,0,9.1-4.33l-.2-.19a17.18,17.18,0,0,1-8.94,4.24Z"/><path class="cls-5" d="M298.44,254.5a14,14,0,0,0,4.89-.56l.08,0,.93-24-1.47.7.12.25,1.06-.51-.91,23.32c-.39.14-2.23.67-6.6.47v.27C297.23,254.48,297.86,254.5,298.44,254.5Z"/><path class="cls-5" d="M301.78,249.33c.38-1.46.49-15.77.49-16.38H302c0,.15-.12,14.88-.49,16.32Z"/><path class="cls-5" d="M283.55,254.59a25.18,25.18,0,0,0,5.27-.53l.88-24-1.13.78.17.21.66-.53-.85,23.28a25.11,25.11,0,0,1-5.27.47v.27Z"/><path class="cls-5" d="M287.38,249.87c.38-2.22,0-17.22,0-17.85h-.27c0,.16.37,15.61,0,17.8Z"/><path class="cls-37" d="M301,214.53l1.56-2.42h0c.85-1.39,2.24-3.21,3.68-3.37,2.36-.26,16.71-.85,21.27-1.41,0,0-.32-.55-.31-.55s3.73-.62,3.73-.62l2.36-1.12,2.12-.92c.59,2.28,2.2,6,.55,8.66-3.05,4.84-26.4,2.45-28.47,1.82l-1.91,2.07-.38.6a.61.61,0,0,1-1-.67l-.16.25a.62.62,0,0,1-.85.18h0a.61.61,0,1,0-1-.67.61.61,0,0,1-.17-.85l.16-.25a.61.61,0,0,1-.85.18h0l0,0h0a.52.52,0,0,1-.1-.11A.66.66,0,0,1,301,214.53Z"/><path class="cls-5" d="M327.11,207h.09c4.63-.11,9.29-3.68,9.34-3.71l.09-.07-2.94-6.51-.26.11,2.86,6.32c-.65.48-4.84,3.44-9,3.58L326,204.12l-.24.12Z"/><path class="cls-38" d="M329.13,209.57a.06.06,0,0,0,.07,0,.09.09,0,0,0,0-.13l-1.67-2.15a.09.09,0,0,0-.15.11l1.67,2.15A.09.09,0,0,0,329.13,209.57Z"/><path class="cls-38" d="M301.83,215.61a.08.08,0,0,0,.09,0l2.19-3a.09.09,0,1,0-.15-.11l-2.18,3a.09.09,0,0,0,0,.13Z"/><path class="cls-38" d="M302.79,216.49a.09.09,0,0,0,.1,0l2.08-3.09a.09.09,0,0,0,0-.13.09.09,0,0,0-.13,0l-2.09,3.09a.11.11,0,0,0,0,.13Z"/><path class="cls-38" d="M304,217.05a.08.08,0,0,0,.1,0l1.73-2.62a.09.09,0,1,0-.15-.1l-1.74,2.62a.11.11,0,0,0,0,.13Z"/><path class="cls-5" d="M313.63,230.37a112,112,0,0,1-11.25-.47l0-.27a139.47,139.47,0,0,0,23.64,0l0,.28C321.35,230.26,317.14,230.37,313.63,230.37Z"/><rect class="cls-5" x="297.97" y="199.2" width="11.68" height="0.28" transform="translate(94.98 496.7) rotate(-88.19)"/><rect class="cls-5" x="324.33" y="193.83" width="0.28" height="13.7" transform="translate(-53.09 145.9) rotate(-23.48)"/><rect class="cls-5" x="325.93" y="203.66" width="0.28" height="3.82" transform="translate(-28.61 54.64) rotate(-9.18)"/><path class="cls-38" d="M311.88,178.49s0,0,0,0a0,0,0,0,0,0-.06l-.91-.3.29-2.16a.07.07,0,0,0,0-.06,0,0,0,0,0-.05,0l-.31,2.24,1,.33Z"/><path class="cls-25" d="M312.59,179.39l-1.81,0s.22.74.89.75A1,1,0,0,0,312.59,179.39Z"/><polygon class="cls-14" points="274.36 196.68 296.2 196.68 303.82 216.08 281.98 216.08 274.36 196.68"/><polygon class="cls-17" points="303.82 216.08 302.69 216.08 295.06 196.68 296.2 196.68 303.82 216.08"/><path class="cls-21" d="M288.64,205.76c.3.89.08,1.77-.49,2s-1.29-.37-1.6-1.26-.08-1.77.5-2S288.34,204.87,288.64,205.76Z"/><path class="cls-17" d="M311.05,214.51h-8.16v1.57h8.16a.78.78,0,0,0,.78-.78h0A.78.78,0,0,0,311.05,214.51Z"/><rect class="cls-14" x="303.82" y="215.05" width="5.16" height="0.25"/><rect class="cls-23" x="300.75" y="216.08" width="9.61" height="3.44"/><rect class="cls-5" x="6.13" y="267.82" width="360" height="1.11"/><polygon class="cls-10" points="64.3 265.06 55.48 265.18 55.35 256.86 64.14 255.76 64.3 265.06"/><path class="cls-39" d="M73.37,266.55h-18v-3.62a2.79,2.79,0,0,1,3.31-.85,4.41,4.41,0,0,0,5.61-.42l6.67,2.86S73.37,265.32,73.37,266.55Z"/><path class="cls-12" d="M56,266.55H74.15a0,0,0,0,1,0,0v1.27a0,0,0,0,1,0,0H56a.63.63,0,0,1-.63-.63v0A.63.63,0,0,1,56,266.55Z" transform="translate(129.5 534.38) rotate(180)"/><path class="cls-13" d="M66.25,262.51c-.61.94-1.82,2.84-2.59,4H62.43l2.85-4.46Z"/><path class="cls-13" d="M65.63,266.55H64.4l2.43-3.79,1,.41Z"/><polygon class="cls-10" points="49.11 265.06 40.29 265.18 40.16 256.86 48.95 255.76 49.11 265.06"/><path class="cls-39" d="M50.05,193c.29,8.59,1.56,42.21,4.23,64.2a2.89,2.89,0,0,0,2.87,2.54,22,22,0,0,0,6.36-.95,2.92,2.92,0,0,0,2.06-2.73l1.09-66.92a2.7,2.7,0,0,0,0-.49l-.05-.33a2.89,2.89,0,0,0-3.89-2.26L51.9,190.22A2.91,2.91,0,0,0,50.05,193Z"/><path class="cls-23" d="M38.2,191.28s-.74,41.34,1.18,66.84a2.44,2.44,0,0,0,2.25,2.25,21.71,21.71,0,0,0,7.25-.66,2.46,2.46,0,0,0,1.8-2.15l5.12-59.29L59,181.81Z"/><path class="cls-5" d="M39.53,260.09Z"/><path class="cls-40" d="M34.91,178.13c.18,1.65,1.17,26.15,3.91,28.17s29.05.08,29.67-2.31-3-28-3-28Z"/><path class="cls-40" d="M64.6,166.58c.36,0,14.43,6.64,14.43,6.64L76,178.62l-7.95-2Z"/><path class="cls-40" d="M44.79,140.3s-6.06-.42-9,1.12c-4.41,2.3-3.35,16.38-3.35,16.38s3.74-1.87,4-2.53S44.79,140.3,44.79,140.3Z"/><path class="cls-40" d="M38.88,141.19c3.47-.36,12.58-.38,12.58-.38s1.2.36.82.17c10,2.12,10.85,9.61,10.85,9.61l4.17,21.7,5.45.49c1.65,3.4,0,12.39,0,12.39l-26.55,2.08s-5.75.75-10.38-5.62c-3-4.21-3.71-16.84-3.4-26C32.47,155.59,33.49,141.75,38.88,141.19Z"/><path class="cls-5" d="M46.73,172h.1a.17.17,0,0,0,.13-.2c0-.12-2.39-12-3.31-19.4a.17.17,0,0,0-.19-.14.16.16,0,0,0-.14.18c.92,7.45,3.29,19.31,3.31,19.42A.17.17,0,0,0,46.73,172Z"/><path class="cls-5" d="M63.12,172.25l-.1,0a.18.18,0,0,1-.18-.16c0-.14-.8-13.77-1.59-18.28a.16.16,0,0,1,.13-.19.17.17,0,0,1,.2.13c.8,4.54,1.59,18.18,1.59,18.32A.19.19,0,0,1,63.12,172.25Z"/><path class="cls-5" d="M65.13,169.29a.16.16,0,0,0,.2-.06l1.19-1.89v-.06l-3.22-16.72a10.14,10.14,0,0,0-1.84-4.28c-1.47-2.05-4.41-4.69-10.1-5.65a.18.18,0,0,0-.19.14.17.17,0,0,0,.14.19c5.56.94,8.43,3.51,9.86,5.5a9.76,9.76,0,0,1,1.8,4.15h0l3.21,16.66-1.12,1.77a.16.16,0,0,0,0,.23Z"/><path class="cls-5" d="M42.28,170.7h0l4.44,1.17a.16.16,0,0,0,.2-.12.16.16,0,0,0-.12-.2l-4.43-1.18a.17.17,0,0,0-.11.32Z"/><path class="cls-5" d="M71,169.55a.15.15,0,0,0,.21-.08.16.16,0,0,0-.08-.22l-4.76-2.09a.16.16,0,0,0-.22.08.16.16,0,0,0,.08.22L71,169.55Z"/><path class="cls-34" d="M90.77,185.37l-15.65-1A1.33,1.33,0,0,1,73.84,183L77,159.94a.91.91,0,0,1,1-.73l15.65,1a1.32,1.32,0,0,1,1.28,1.35l-3.12,23A.9.9,0,0,1,90.77,185.37Z"/><path class="cls-10" d="M83.18,180.53a.83.83,0,0,0-.78-.83l-2.66-.18a.18.18,0,0,1-.18-.14h0a.2.2,0,0,1,.18-.25l3.94-.26a.65.65,0,0,0,.6-.85h0a1,1,0,0,0-1-.74l-4,.27a.21.21,0,0,1-.2-.15l0-.06a.21.21,0,0,1,.14-.24l4.31-1.16a.85.85,0,0,0,.61-1,.81.81,0,0,0-1-.59l-4.34,1.16a.19.19,0,0,1-.24-.14l0-.2a.19.19,0,0,1,.11-.23l3.85-1.6a.84.84,0,0,0,.48-1,.8.8,0,0,0-1.06-.46s-5.92,2.1-6.89,2.35l1.78-.83c1.31,1.23-.17-.45-1.25-.67s-4.35,2.68-4.35,2.68a1.63,1.63,0,0,0,.24,1.24c.88,4.68,1.05,5.39,1.4,6.63l4.87-1.48a12,12,0,0,1,4.34-.5l.36,0A.8.8,0,0,0,83.18,180.53Z"/><ellipse class="cls-7" cx="85.24" cy="168.19" rx="1.56" ry="1.47" transform="translate(-103.13 176.73) rotate(-65.72)"/><polygon class="cls-34" points="75.52 172.4 75.3 174.11 77.12 173.5 77.1 172.26 75.52 172.4"/><path class="cls-5" d="M93.63,160.07,78,159a1.07,1.07,0,0,0-1.19.87l-1.88,14.34.39-.14L77.12,160a.74.74,0,0,1,.86-.6l15.65,1a.14.14,0,0,0,.16-.15A.17.17,0,0,0,93.63,160.07Z"/><path class="cls-40" d="M72.75,172.78s1.61,4.17,0,12.39l-1.56-5.9-2.6-3.85Z"/><path class="cls-5" d="M41,171.92H41c.24,0,23.9.1,31.61,1a20.91,20.91,0,0,1,.55,8,.17.17,0,0,0,.15.18.18.18,0,0,0,.18-.16c.46-5.42-.56-8.08-.6-8.2l0-.09h-.1c-7.62-.91-31.51-1-31.75-1a.16.16,0,0,0-.16.16A.18.18,0,0,0,41,171.92Z"/><path class="cls-5" d="M50.61,186.69c9.66,0,21.48-1.25,22.21-1.32a.21.21,0,0,0,.17-.22.19.19,0,0,0-.21-.17c-.27,0-26.43,2.78-33,.21s-6.94-16.86-7-17a.19.19,0,0,0-.2-.19.19.19,0,0,0-.19.2c0,.6.47,14.71,7.2,17.35C41.8,186.4,46,186.69,50.61,186.69Z"/><path class="cls-5" d="M45,125.38s-2.3,1.19-1.15,5.82l.87-.45-.3-2.46Z"/><path class="cls-10" d="M53,128.26V135s.1,2.3-1.9,2.58l.37,3.07a2.4,2.4,0,0,1-1.62,2.57,6.2,6.2,0,0,1-1.89.29A3.8,3.8,0,0,1,44.3,141a32,32,0,0,1,.38-5l-.07-2,.26-7.83Z"/><path class="cls-5" d="M47.54,131.65a.09.09,0,0,1-.07,0,.09.09,0,0,1,0-.13s1.32-1.36,2.51-.39a.09.09,0,0,1,0,.13.09.09,0,0,1-.13,0c-1.06-.86-2.21.32-2.26.37Z"/><path class="cls-5" d="M51.45,131.08a.1.1,0,0,1-.07,0,.09.09,0,0,1,0-.13s.94-.82,1.52-.32a.09.09,0,0,1,0,.13.1.1,0,0,1-.14,0c-.45-.38-1.26.32-1.27.32A.07.07,0,0,1,51.45,131.08Z"/><path d="M49.46,132a.29.29,0,0,1-.29.28.29.29,0,0,1,0-.57A.29.29,0,0,1,49.46,132Z"/><path d="M52.49,131.75a.29.29,0,0,1-.29.29.29.29,0,0,1,0-.58A.29.29,0,0,1,52.49,131.75Z"/><ellipse class="cls-10" cx="44.42" cy="132.14" rx="1.71" ry="1.72"/><path class="cls-22" d="M44.29,133.19a.72.72,0,0,1-.67-.54.68.68,0,0,1,.27-.78.79.79,0,0,1,.9,0,.79.79,0,0,0-.34-.43,1.12,1.12,0,0,0-.76-.05,0,0,0,0,1-.06,0,0,0,0,0,1,0-.06,1.16,1.16,0,0,1,.83.06.94.94,0,0,1,.44.63l0,.16-.12-.12a.77.77,0,0,0-.91-.11.58.58,0,0,0-.22.68.61.61,0,0,0,.57.46h0a.05.05,0,1,1,0,.1Z"/><path class="cls-5" d="M53.37,134s.62,4.6-2.41,4.76c-4.34.24-4.76-2.26-5-4.3l0-4.2L46,129h0a2.23,2.23,0,0,1,.53,1.26c.09,1,.31,3.72.56,3.84S52.7,133.52,53.37,134Z"/><path class="cls-22" d="M50.46,134s0,0,0,0a0,0,0,0,1,0-.06l.95-.32-.3-2.25a0,0,0,0,1,0-.06,0,0,0,0,1,0,0l.31,2.34-1,.34Z"/><path class="cls-25" d="M49.72,134.9l1.89-.05s-.24.77-.93.79S49.72,134.9,49.72,134.9Z"/><path class="cls-5" d="M46,129.07l-.86-.78-.89,2.14a1.36,1.36,0,0,1,1.12,1.32c0,1.14-.6,2.92,1.38,5.49s-.16-3.83-.18-4.05S46,129.07,46,129.07Z"/><path class="cls-5" d="M45,125.38c.91-.91,4.09-1.43,6.36-.06h0A3.08,3.08,0,0,1,53,129.23l0,0,0,.18a3.11,3.11,0,0,0-.34-.41l-1-.78a5.37,5.37,0,0,0-2.32-.66,7,7,0,0,0-2.54.21,10.59,10.59,0,0,0-.12,4c.33,3.47-1.18-.74-1.73-2.35a3.79,3.79,0,0,0-.25,1S43.16,127.2,45,125.38Z"/><path class="cls-10" d="M53,130.16a13.52,13.52,0,0,0,0-1.7c-.07-.3-3.17-1.18-4.87-.94s1.6,2.1,1.64,2.1Z"/><polygon class="cls-10" points="47.15 127.87 45.51 126.34 47.06 128.58 47.15 127.87"/><path class="cls-5" d="M47.15,124.87s.34-3.3-1.49-2.58-2.15,2.23-.49,3.23S47.15,124.87,47.15,124.87Z"/><path class="cls-40" d="M40.4,147.34l3.23-5.43,5.68,1.72,2.31-2.45s.49,2.26.47,2.45a14.59,14.59,0,0,1-2.92,2.84C48.83,146.44,40.4,147.34,40.4,147.34Z"/><path class="cls-5" d="M40.86,207.07a.19.19,0,0,0,.19-.18.19.19,0,0,0-.18-.21c-2.73-.19-3.1-2.51-3.72-6.35-.11-.7-.23-1.41-.37-2.18-.92-5.1-1.33-17.47-1.33-17.59a.2.2,0,0,0-.2-.19h0a.19.19,0,0,0-.19.2c0,.12.41,12.52,1.34,17.65.14.77.25,1.48.36,2.17.63,3.89,1.05,6.47,4.08,6.68Z"/><path class="cls-41" d="M51.28,138.74l.23,1.92a14.28,14.28,0,0,1-2.37,2.78c-1.91-1.32-4.86-3.17-4.86-3.17l.17-2.43c-3.54-.4-7.57,1.82-6.65,3s5.72,1.5,7,1.92,4.47,1.39,4.47,1.39a37.36,37.36,0,0,0,3.11-3.29l2.29.63C54.71,139.14,51.28,138.74,51.28,138.74Z"/><path class="cls-23" d="M58.18,266.55h-18v-3.62a2.79,2.79,0,0,1,3.31-.85,4.41,4.41,0,0,0,5.61-.42l6.67,2.86S58.18,265.32,58.18,266.55Z"/><path class="cls-16" d="M40.79,266.55H59a0,0,0,0,1,0,0v1.27a0,0,0,0,1,0,0H40.79a.63.63,0,0,1-.63-.63v0a.63.63,0,0,1,.63-.63Z" transform="translate(99.12 534.38) rotate(180)"/><path class="cls-13" d="M51.05,262.51c-.6.94-1.81,2.84-2.59,4H47.24l2.85-4.46Z"/><path class="cls-13" d="M50.43,266.55H49.21l2.43-3.79,1,.41C52,264.19,51.05,265.6,50.43,266.55Z"/><path d="M49.26,144.25a.15.15,0,0,0,.09,0l4-4.07a.13.13,0,0,0-.18-.18l-4,4.06a.14.14,0,0,0,0,.19A.15.15,0,0,0,49.26,144.25Z"/><rect class="cls-2" width="375" height="11.96"/></g></g></g></svg>