<?xml version="1.0" encoding="utf-8"?>
<!-- Generator: Adobe Illustrator 25.4.1, SVG Export Plug-In . SVG Version: 6.00 Build 0)  -->
<svg version="1.1" id="Camada_1" xmlns="http://www.w3.org/2000/svg" xmlns:xlink="http://www.w3.org/1999/xlink" x="0px" y="0px"
	 viewBox="0 0 1200 858" style="enable-background:new 0 0 1200 858;" xml:space="preserve">
<style type="text/css">
	.st0{fill:#FDBAA1;}
	.st1{fill:#A8A8D0;}
	.st2{fill:#D3D3F2;}
	.st3{fill:#EDEDF9;}
	.st4{opacity:0.57;fill:#FFFAFF;enable-background:new    ;}
	.st5{fill:#CEBC72;}
	.st6{fill:#ACDAFF;}
	.st7{fill:#7474B4;}
	.st8{fill:#2A2962;}
	.st9{fill:#58877E;}
	.st10{fill:#B6CECA;}
	.st11{fill:#ACC9C5;}
	.st12{fill:#6DA49A;}
	.st13{fill:#D8EFEA;}
	.st14{fill:#83AAA3;}
	.st15{fill:#A7C1BC;}
	.st16{fill:#CFE5E1;}
	.st17{fill:#C4AE53;}
	.st18{fill:#E2D391;}
	.st19{fill:#5251A2;}
	.st20{fill:#CBCBEF;}
	.st21{fill:#FFFFFF;}
	.st22{fill:#DFDFF7;}
	.st23{fill:#F79E77;}
	.st24{fill:#36357E;}
	.st25{fill:#FFB797;}
	.st26{fill:#FFAE83;}
	.st27{fill:#6263AB;}
	.st28{fill:#FF69A6;}
	.st29{fill:#EFE6BD;}
	.st30{fill:#C5E2DD;}
</style>
<g id="Camada_2_00000072964366422467642950000009927213357476644287_">
	<g id="Camada_2-2">
		<path class="st0" d="M397,0.1c266.1,0,532.3,0,798.4-0.1c3.8,0,4.6,0.8,4.6,4.6c-0.1,213.4-0.1,426.9-0.1,640.4l-5.9,1
			c-26.4,4.5-52.8,9-79.2,13.6c-37.2,6.4-74.4,13-111.6,19.4c-44.1,7.6-88.2,15.1-132.3,22.6c-32.8,5.5-65.6,11.1-98.4,16.3
			c-30.2,4.8-60.4,9.3-90.7,13.8c-22.9,3.3-45.8,6.3-68.7,9.5c-22.6,3.1-45.2,5.9-67.8,8.2c-18.7,1.9-37.4,4-56.1,5.7
			c-13.4,1.3-26.8,2.3-40.3,3.3c-16.9,1.3-33.8,2.7-50.6,3.6c-11.1,0.6-22.3,0.5-33.4,0.7c-25.6,0.6-51.2,0.2-76.8-1.6
			c-20.9-1.5-41.8-3.5-62.4-7.1c-31.1-5.4-61.4-13.5-89.4-28.8c-21.1-11.5-39.1-26.7-51.8-47.3c-16.4-26.6-21.1-55.8-19.6-86.6
			c1.6-32.4,9.2-63.5,19.7-94c19.9-57.7,48-111.6,78.7-164.1c31.2-53.4,65.3-104.9,101-155.4c35.3-50.1,71.9-99.2,109.7-147.5
			C381.8,20.3,390.1,10.7,397,0.1z"/>
		<ellipse class="st1" cx="537.6" cy="805.3" rx="97" ry="21"/>
		<ellipse class="st1" cx="881.8" cy="784.4" rx="97" ry="21"/>
		<ellipse class="st1" cx="727.4" cy="763.4" rx="251.7" ry="21"/>
		<ellipse class="st1" cx="421.9" cy="749.1" rx="251.7" ry="21"/>
		<circle class="st2" cx="362.7" cy="337.1" r="159.9"/>
		<circle class="st3" cx="362.7" cy="337.1" r="138.5"/>
		<path class="st4" d="M412.2,342.5c19.3-29.2,21.4-81.8,11.6-109.8c-57.6-33.8-131.8-14.5-165.6,43.2
			c-20.5,34.9-22.1,77.8-4.4,114.2c1,0,1.9,0.2,2.8,0.4C300.9,408.9,375.9,397.4,412.2,342.5z"/>
		<path class="st1" d="M359.2,242.5l0.2-31.7c0-0.7,0.6-1.3,1.3-1.3h5.8c0.7,0,1.3,0.6,1.3,1.3l-0.2,31.7c0,0.7-0.6,1.3-1.3,1.3
			h-5.8C359.8,243.8,359.2,243.2,359.2,242.5z"/>
		<path class="st1" d="M357.5,463.5l0.2-31.7c0-0.7,0.6-1.3,1.3-1.3h5.8c0.7,0,1.3,0.6,1.3,1.3l-0.2,31.7c0,0.7-0.6,1.3-1.3,1.3
			h-5.8C358,464.8,357.5,464.3,357.5,463.5z"/>
		<path class="st1" d="M456,340.8V335c0-0.7,0.6-1.3,1.3-1.3l31.7,0.2c0.7,0,1.3,0.6,1.3,1.3v5.8c0,0.7-0.6,1.3-1.3,1.3l-31.7-0.2
			C456.6,342.1,456,341.5,456,340.8z"/>
		<path class="st1" d="M235.5,339.7l0.1-5.8c0-0.7,0.6-1.3,1.3-1.3l31.7,0.3c0.7,0,1.3,0.6,1.3,1.3l-0.1,5.8c0,0.7-0.6,1.3-1.3,1.3
			l-31.7-0.3C236.1,341.1,235.5,340.5,235.5,339.7z"/>
		<circle class="st1" cx="420.3" cy="239.2" r="4.2"/>
		<circle class="st1" cx="305.1" cy="435.1" r="4.2"/>
		<circle class="st1" cx="461.5" cy="281.1" r="4.2"/>
		<circle class="st1" cx="263.9" cy="393.2" r="4.2"/>
		<circle class="st1" cx="460.6" cy="394.7" r="4.2"/>
		<circle class="st1" cx="264.7" cy="279.6" r="4.2"/>
		<circle class="st1" cx="418.7" cy="436" r="4.2"/>
		<circle class="st1" cx="306.6" cy="238.3" r="4.2"/>
		<path class="st5" d="M405.6,305.3c12.7-4.9,71.7-30.4,71.7-30.4l0.2,0.4l0.4,0.8l0.2,0.4c0,0-53.8,35.3-64.9,43.1
			s-50.4,20.1-50.4,20.1l-0.7-1.3l-0.4-0.8l-0.7-1.3C361.1,336.3,393,310.3,405.6,305.3z"/>
		<path class="st5" d="M322.5,345.7c-9.7-1.5-55.7-6.4-55.7-6.4v-1.8c0,0,45.8-6.3,55.5-8.1S361,335,361,335v1.5v0.9v1.5
			C361,338.9,332.2,347.2,322.5,345.7z"/>
		<circle class="st6" cx="362.7" cy="337.1" r="8.5"/>
		<path class="st7" d="M278.6,510L241,735.6c-0.4,2.3,1.1,4.5,3.5,4.9c0.2,0,0.5,0.1,0.7,0.1l0,0c2,0,3.7-1.4,4.2-3.4L298.7,510
			H278.6z"/>
		<path class="st7" d="M315,496.5l-26.5,227.1c-0.3,2.3,1.4,4.5,3.7,4.7c0.2,0,0.5,0,0.7,0l0,0c2-0.1,3.7-1.6,4-3.6l38-229.3
			L315,496.5z"/>
		<path class="st7" d="M470.7,510l37.6,225.6c0.4,2.3-1.1,4.5-3.5,4.9c-0.2,0-0.5,0.1-0.7,0.1l0,0c-2,0-3.7-1.4-4.2-3.4L450.7,510
			H470.7z"/>
		<path class="st7" d="M434.3,496.5l26.5,227.1c0.3,2.3-1.4,4.5-3.7,4.7c-0.2,0-0.5,0-0.7,0l0,0c-2-0.1-3.7-1.6-4-3.6l-38.1-229.3
			L434.3,496.5z"/>
		<path class="st8" d="M243.4,494.5h266.3c1.8,0,3.3,1.5,3.3,3.3V512c0,1.8-1.5,3.3-3.3,3.3H243.4c-1.8,0-3.3-1.5-3.3-3.3v-14.3
			C240.2,495.9,241.6,494.5,243.4,494.5z"/>
		<path class="st9" d="M253.7,689.3l-0.6-0.2c4.6-15.2,5.8-31.2,3.2-46.9c-4-23.3-19-54.8-68.2-72.6l0.2-0.6
			c21.9,7.9,38.9,19.2,50.6,33.4c9.4,11.4,15.6,25.2,18,39.8C259.5,657.9,258.4,674,253.7,689.3z"/>
		<path class="st9" d="M195,571.9c0,0-12.9,2-19.6-4S180.1,559.1,195,571.9z"/>
		<path class="st9" d="M208.4,578.2c0,0-4-17.1-10.3-20.5S190.9,566.6,208.4,578.2z"/>
		<path class="st9" d="M206.4,577.1c0,0-17.4-2.5-22.8,2.1S189.1,589.1,206.4,577.1z"/>
		<path class="st9" d="M217.1,583.6c0,0-17.4-2.5-22.8,2.1S199.8,595.7,217.1,583.6z"/>
		<path class="st9" d="M227.8,591.2c0,0-17.4-2.5-22.8,2.1S210.6,603.3,227.8,591.2z"/>
		<path class="st9" d="M238.2,601.7c0,0-17.1-3.9-22.9,0.3S220.1,612.4,238.2,601.7z"/>
		<path class="st9" d="M247.8,615.7c0,0-15.9-7.4-22.5-4.6S227.8,622.2,247.8,615.7z"/>
		<path class="st9" d="M254.7,632.8c0,0-12.7-12.1-19.8-11.5S233.7,632.6,254.7,632.8z"/>
		<path class="st9" d="M257.7,652.8c0,0-8-15.7-14.9-17.5S238,645.5,257.7,652.8z"/>
		<path class="st9" d="M257,672.4c0,0-4.1-17.1-10.4-20.4S239.4,660.8,257,672.4z"/>
		<path class="st9" d="M220.4,585.7c0,0,1.7-15-4.1-23.1s-7.7,1.2-5.5,6.4S220.4,585.7,220.4,585.7z"/>
		<path class="st9" d="M229.2,592.7c0,0,4.1-14.6-0.4-23.4s-7.8,0-6.4,5.4S229.2,592.7,229.2,592.7z"/>
		<path class="st9" d="M237.3,600.9c0,0,7.3-13.2,5.1-22.9s-7.6-1.9-7.5,3.8S237.3,600.9,237.3,600.9z"/>
		<path class="st9" d="M245.3,611.4c0,0,7.3-13.2,5.1-22.9s-7.6-1.9-7.5,3.8S245.3,611.4,245.3,611.4z"/>
		<path class="st9" d="M252.2,625.9c0,0,9-12.2,8-22s-7.3-2.8-8,2.8S252.2,625.9,252.2,625.9z"/>
		<path class="st9" d="M256.9,645.1c0,0,11.1-10.3,12-20.1s-6.6-4.2-8.3,1.2S256.9,645.1,256.9,645.1z"/>
		<path class="st9" d="M257.7,662.5c0,0,13-7.8,15.8-17.3s-5.6-5.4-8.4-0.5S257.7,662.5,257.7,662.5z"/>
		<path class="st10" d="M337.2,655.7l0.6-0.2c-4.7-15.2-5.8-31.2-3.2-46.9c4-23.3,19-54.8,68.2-72.6l-0.2-0.6
			c-21.9,7.9-38.9,19.1-50.6,33.4c-9.4,11.4-15.6,25.2-18,39.8C331.4,624.3,332.5,640.4,337.2,655.7z"/>
		<path class="st10" d="M395.8,538.3c0,0,12.9,2,19.6-4S410.8,525.4,395.8,538.3z"/>
		<path class="st10" d="M382.4,544.6c0,0,4-17.1,10.3-20.5S400,533,382.4,544.6z"/>
		<path class="st10" d="M384.5,543.4c0,0,17.4-2.5,22.8,2.1S401.7,555.5,384.5,543.4z"/>
		<path class="st10" d="M373.8,550c0,0,17.4-2.5,22.8,2.1S391,562,373.8,550z"/>
		<path class="st10" d="M363,557.6c0,0,17.4-2.5,22.8,2.1S380.3,569.6,363,557.6z"/>
		<path class="st10" d="M352.6,568.1c0,0,17.1-3.9,22.9,0.3S370.8,578.7,352.6,568.1z"/>
		<path class="st10" d="M343.1,582.1c0,0,15.9-7.4,22.5-4.6S363.1,588.6,343.1,582.1z"/>
		<path class="st10" d="M336.1,599.2c0,0,12.7-12.2,19.9-11.5S357.2,598.9,336.1,599.2z"/>
		<path class="st10" d="M333.1,619.1c0,0,8-15.7,14.9-17.5S352.9,611.9,333.1,619.1z"/>
		<path class="st10" d="M333.9,638.8c0,0,4.1-17.1,10.4-20.4S351.5,627.2,333.9,638.8z"/>
		<path class="st10" d="M370.5,552.1c0,0-1.7-15,4.1-23.1s7.7,1.2,5.5,6.4S370.5,552.1,370.5,552.1z"/>
		<path class="st10" d="M361.7,559c0,0-4.1-14.6,0.4-23.4s7.8-0.1,6.5,5.4S361.7,559,361.7,559z"/>
		<path class="st10" d="M353.5,567.2c0,0-7.3-13.2-5.1-22.9s7.6-1.9,7.5,3.8S353.5,567.2,353.5,567.2z"/>
		<path class="st10" d="M345.6,577.8c0,0-7.3-13.2-5.1-22.9s7.6-1.9,7.5,3.8S345.6,577.8,345.6,577.8z"/>
		<path class="st10" d="M338.6,592.2c0,0-9-12.2-8-22s7.3-2.8,8,2.8S338.6,592.2,338.6,592.2z"/>
		<path class="st10" d="M333.9,611.4c0,0-11.1-10.2-12-20.1s6.6-4.2,8.3,1.2S333.9,611.4,333.9,611.4z"/>
		<path class="st10" d="M333.2,628.9c0,0-13-7.8-15.8-17.3s5.6-5.4,8.4-0.5S333.2,628.9,333.2,628.9z"/>
		<path class="st11" d="M262.2,626.4c0,0-15.1-44.7-1.5-57.6c13.6-12.9-3.3-31.1,0.7-43s18.6-18.9,25,2.8
			c6.4,21.7,8.2,22.5,24.2,23.5s14.8,33.3,12,48.2s12.9-8.6,17.7,7.3s-18.3,48.9-42.6,66s-54-31.6-51.9-43.8S256.8,634,262.2,626.4z
			"/>
		<path class="st12" d="M264.4,564c-0.9,1.8-2.2,3.4-3.6,4.8c-13.6,12.8,1.5,57.6,1.5,57.6c-5.5,7.6-14.4-8.7-16.4,3.5
			s27.7,61,51.9,43.8c1.3-0.9,2.6-1.9,3.9-2.9C298.8,632.6,285.9,595.7,264.4,564z"/>
		<path class="st13" d="M289.5,678c-0.3,0.3-0.6,0.4-1,0.3c-0.6-0.1-1-0.7-0.9-1.3s11.3-61.8-17-150.5c-0.2-0.5,0-1.2,0.6-1.4
			c0.5-0.2,1.2,0,1.4,0.6c0,0.1,0,0.1,0.1,0.2c28.5,89.3,17.2,150.9,17,151.6C289.7,677.7,289.6,677.8,289.5,678z"/>
		<path class="st13" d="M279.2,552.8l-14.3-11.5c-0.4-0.4-0.5-1.1-0.1-1.5s1-0.5,1.4-0.2l12.4,10l6.5-10.9c0.3-0.5,0.9-0.7,1.5-0.4
			c0.5,0.3,0.7,0.9,0.4,1.5c0,0,0,0.1-0.1,0.1L279.2,552.8z"/>
		<path class="st13" d="M314.2,561.6L314.2,561.6l-27.9,25.5l-22.1-15c-0.5-0.4-0.5-1.1-0.2-1.5s0.9-0.5,1.4-0.3l20.7,14.1
			l26.6-24.3c0.4-0.4,1.1-0.4,1.5,0.1C314.5,560.6,314.5,561.2,314.2,561.6L314.2,561.6z"/>
		<path class="st13" d="M320.2,597.1L320.2,597.1l-29.5,29.8l-29.1-23.2c-0.5-0.4-0.5-1-0.2-1.5c0.4-0.5,1-0.5,1.5-0.2l27.6,22
			l28.1-28.4c0.4-0.4,1.1-0.4,1.5,0l0,0C320.6,596,320.6,596.7,320.2,597.1z"/>
		<path class="st13" d="M332.9,618.1L332.9,618.1l-42.1,42.8l-36.1-25.3c-0.5-0.3-0.6-1-0.3-1.5s1-0.6,1.5-0.3l34.6,24.2l40.9-41.5
			c0.4-0.4,1.1-0.3,1.5,0.1C333.2,617.1,333.2,617.7,332.9,618.1L332.9,618.1z"/>
		<path class="st11" d="M255.4,683.9c0,0-33-16.5-32.5-31.1s-18.9-15.5-23.2-24.2s-0.1-20.8,15.5-12.2s16.9,8,26.4-0.3
			s26.6,10.3,33.2,20.2s2.4-11.9,13.9-5.7s16.7,37.2,12.7,60.1s-47.4,12.2-53,4.3S256.6,691.1,255.4,683.9z"/>
		<path class="st12" d="M222.3,648.1c0.5,1.5,0.7,3.1,0.6,4.7c-0.5,14.6,32.5,31.1,32.5,31.1c1.2,7.2-12.8,3.1-7.2,11
			s48.9,18.6,53-4.3c0.2-1.2,0.4-2.5,0.6-3.8C279.1,667.2,251.7,653.8,222.3,648.1z"/>
		<path class="st13" d="M299,697.5c0,0.5-0.3,0.9-0.8,0.9c-0.3,0-0.6-0.1-0.7-0.4c-0.3-0.4-27.7-40.5-92.3-74.2
			c-0.4-0.2-0.6-0.7-0.4-1.1c0.2-0.4,0.7-0.6,1.1-0.4l0,0c65,33.9,92.6,74.4,92.9,74.8C298.9,697.2,299,697.4,299,697.5z"/>
		<path class="st13" d="M224.4,633.7l-14.3,1.5c-0.5,0-0.9-0.3-0.9-0.8s0.3-0.9,0.8-0.9l12.4-1.3l-2.4-9.7c-0.1-0.4,0.2-0.9,0.6-1
			c0.4-0.1,0.9,0.2,1,0.6L224.4,633.7z"/>
		<path class="st13" d="M248.6,619.3L248.6,619.3l-1.4,29.5l-20.6,3.8c-0.5,0.1-0.9-0.2-1-0.7s0.2-0.9,0.7-1l19.2-3.6l1.4-28.2
			c0-0.5,0.4-0.8,0.9-0.8l0,0C248.3,618.5,248.6,618.9,248.6,619.3z"/>
		<path class="st13" d="M271.5,635.7v32.8l-29,3.1c-0.5,0.1-0.9-0.3-0.9-0.7l0,0c-0.1-0.5,0.3-0.9,0.7-0.9l0,0l27.5-3v-31.2
			c0-0.5,0.4-0.8,0.8-0.8C271.1,634.9,271.5,635.3,271.5,635.7L271.5,635.7z"/>
		<path class="st13" d="M290.1,640.4L290.1,640.4l0.2,47l-34,5.9c-0.5,0.1-0.9-0.2-1-0.7l0,0c-0.1-0.5,0.2-0.9,0.7-1l32.6-5.6
			l-0.2-45.5c0-0.5,0.4-0.8,0.8-0.8C289.7,639.6,290.1,640,290.1,640.4L290.1,640.4z"/>
		<path class="st14" d="M329.7,679.2c0,0,43.5-18.3,44.1-37s25.5-18.1,31.7-29s1.8-26.5-18.7-16.9s-22.3,8.7-33.6-2.6
			s-34.8,11-44,22.9s-2.1-15.4-17.2-8.4s-24.5,46.1-21.2,75.7s59.5,19.5,67.2,9.9S327.6,688.4,329.7,679.2z"/>
		<path class="st12" d="M375,636.3c-0.7,1.9-1.2,3.9-1.2,5.9c-0.6,18.7-44.1,37-44.1,37c-2.1,9.2,16,5,8.3,14.6s-64,19.7-67.2-9.9
			c-0.2-1.6-0.3-3.2-0.4-4.8C300.9,656,337,641.2,375,636.3z"/>
		<path class="st13" d="M273,693c-0.1,0.6,0.4,1.1,1,1.2c0.4,0,0.7-0.1,1-0.4c0.4-0.5,38.8-49.4,124-87c0.5-0.2,0.8-0.8,0.6-1.4l0,0
			c-0.2-0.5-0.9-0.8-1.4-0.5c-85.7,37.8-124.5,87.1-124.8,87.6C273.1,692.6,273,692.8,273,693z"/>
		<path class="st13" d="M373.6,617.8l18.1,3.1c0.6,0.1,1.1-0.3,1.2-0.9l0,0c0.1-0.6-0.3-1.1-0.9-1.2l-15.7-2.7l3.9-12.1
			c0.2-0.6,0-1.2-0.6-1.4s-1.2,0-1.4,0.6c0,0.1,0,0.1-0.1,0.2L373.6,617.8z"/>
		<path class="st13" d="M343.8,597.4L343.8,597.4l-0.6,37.8l25.9,6.6c0.6,0.1,1.2-0.3,1.3-0.9c0.1-0.5-0.2-1.1-0.7-1.2l-24.3-6.2
			l0.6-36c0-0.6-0.5-1.1-1.1-1.1C344.3,596.5,343.9,596.9,343.8,597.4L343.8,597.4z"/>
		<path class="st13" d="M313.2,616.4L313.2,616.4l-2.7,41.9l36.7,6.5c0.6,0.1,1.1-0.3,1.2-0.9c0.1-0.6-0.3-1.1-0.9-1.2l0,0
			l-34.8-6.1l2.6-39.9c0.1-0.6-0.4-1.1-1-1.2C313.8,615.4,313.3,615.8,313.2,616.4L313.2,616.4z"/>
		<path class="st13" d="M289.1,620.8L289.1,620.8l-4.2,60l42.9,10.3c0.6,0.1,1.2-0.3,1.3-0.8c0.1-0.6-0.2-1.1-0.8-1.3l-41.1-9.9
			l4-58.1c0.1-0.6-0.4-1.1-1-1.2C289.6,619.8,289.1,620.2,289.1,620.8L289.1,620.8z"/>
		<path class="st11" d="M456.5,623.6c0,0,12.6-37.2,1.3-47.9s2.7-25.9-0.6-35.8s-15.5-15.8-20.8,2.4s-6.8,18.7-20.2,19.5
			s-12.3,27.7-10,40.1s-10.8-7.2-14.7,6.1s15.3,40.7,35.5,55s45-26.3,43.3-36.5S461.1,629.9,456.5,623.6z"/>
		<path class="st12" d="M454.8,571.6c0.8,1.5,1.8,2.9,3,4c11.3,10.7-1.3,47.9-1.3,47.9c4.6,6.3,12-7.2,13.7,2.9s-23,50.8-43.2,36.5
			c-1.1-0.8-2.2-1.6-3.2-2.4C426.2,628.7,436.8,598.1,454.8,571.6z"/>
		<path class="st13" d="M433.8,666.5c0.2,0.2,0.5,0.3,0.8,0.3c0.5-0.1,0.8-0.5,0.7-1c-0.1-0.5-9.4-51.5,14.1-125.3
			c0.2-0.5-0.1-1-0.5-1.1l0,0c-0.5-0.1-1,0.1-1.1,0.6l0,0c-23.7,74.3-14.3,125.7-14.2,126.2C433.7,666.2,433.7,666.4,433.8,666.5z"
			/>
		<path class="st13" d="M442.4,562.3l11.9-9.6c0.4-0.3,0.4-0.9,0.1-1.3l0,0c-0.3-0.4-0.9-0.4-1.3-0.1l-10.3,8.3l-5.4-9.1
			c-0.3-0.4-0.8-0.6-1.2-0.3c-0.4,0.3-0.6,0.8-0.3,1.2l0,0L442.4,562.3z"/>
		<path class="st13" d="M413.3,569.6L413.3,569.6l23.2,21.3l18.5-12.5c0.4-0.3,0.5-0.8,0.2-1.2s-0.8-0.5-1.2-0.2l0,0l-17.2,11.7
			l-22.1-20.3c-0.4-0.3-0.9-0.3-1.3,0.1C413,568.7,413,569.3,413.3,569.6z"/>
		<path class="st13" d="M408.3,599.2L408.3,599.2l24.6,24.8l24.3-19.3c0.4-0.3,0.5-0.9,0.1-1.3s-0.9-0.5-1.3-0.1l-23,18.3L409.6,598
			c-0.4-0.3-0.9-0.3-1.3,0C408,598.4,408,598.9,408.3,599.2L408.3,599.2z"/>
		<path class="st13" d="M397.7,616.7L397.7,616.7l35.1,35.6l30.1-21c0.4-0.3,0.4-0.9,0-1.3c-0.3-0.3-0.7-0.4-1-0.2L433,650l-34-34.6
			c-0.3-0.4-0.9-0.4-1.3,0C397.4,615.7,397.4,616.3,397.7,616.7L397.7,616.7z"/>
		<path class="st15" d="M405.8,675.5c0,0-33-16.5-32.5-31.1s-18.9-15.5-23.3-24.3s-0.1-20.8,15.5-12.2s16.9,8,26.4-0.3
			s26.6,10.3,33.2,20.2s2.4-11.9,13.9-5.7s16.7,37.2,12.7,60.1s-47.4,12.2-53,4.3S407,682.7,405.8,675.5z"/>
		<path class="st12" d="M372.6,639.7c0.5,1.5,0.7,3.1,0.6,4.7c-0.5,14.6,32.5,31.1,32.5,31.1c1.2,7.2-12.8,3.1-7.2,11
			s48.9,18.6,53-4.3c0.2-1.2,0.4-2.5,0.6-3.8C429.5,658.8,402.1,645.4,372.6,639.7z"/>
		<path class="st13" d="M449.3,689.1c0,0.5-0.3,0.9-0.8,0.9c-0.3,0-0.6-0.1-0.7-0.4c-0.3-0.4-27.7-40.5-92.3-74.2
			c-0.4-0.2-0.6-0.7-0.4-1.1l0,0c0.2-0.4,0.7-0.6,1.1-0.4l0,0c65,33.9,92.6,74.4,92.9,74.8C449.3,688.8,449.3,689,449.3,689.1z"/>
		<path class="st13" d="M374.7,625.3l-14.3,1.5c-0.5,0.1-0.9-0.3-0.9-0.7l0,0c0-0.5,0.3-0.9,0.8-0.9l12.4-1.3l-2.4-9.7
			c-0.1-0.5,0.2-0.9,0.6-1c0.5-0.1,0.9,0.2,1,0.6L374.7,625.3z"/>
		<path class="st13" d="M399,610.9L399,610.9l-1.4,29.6l-20.6,3.8c-0.5,0.1-0.9-0.2-1-0.7c-0.1-0.4,0.2-0.8,0.6-0.9l19.2-3.6
			l1.4-28.2c0-0.5,0.4-0.8,0.8-0.8C398.6,610.1,399,610.4,399,610.9L399,610.9z"/>
		<path class="st13" d="M421.9,627.3L421.9,627.3v32.8l-29,3.1c-0.5,0-0.9-0.3-0.9-0.8s0.3-0.9,0.8-0.9l27.5-3v-31.2
			c0-0.5,0.4-0.8,0.8-0.8C421.4,626.5,421.8,626.9,421.9,627.3L421.9,627.3z"/>
		<path class="st13" d="M440.5,632L440.5,632l0.2,47l-34,5.9c-0.5,0.1-0.9-0.2-1-0.7s0.2-0.9,0.7-1l32.6-5.6l-0.1-45.6
			c0-0.5,0.4-0.8,0.8-0.8C440.1,631.2,440.5,631.5,440.5,632z"/>
		<path class="st16" d="M360.5,684.8c0,0-30-3.9-33.5-15.3s-18.8-6.9-24.5-12.5s-5.6-16.1,8.7-13.6s15.2,1.6,20.3-7.4
			s23.3,0.9,31.1,6.7s-1.3-9.8,9.2-8.1s23,24.3,26,43.1s-33.4,22.2-39.8,17.5S363.4,690.1,360.5,684.8z"/>
		<path class="st11" d="M325.2,666c0.8,1,1.4,2.2,1.8,3.5c3.6,11.4,33.5,15.3,33.5,15.3c2.9,5.3-9.1,5.8-2.6,10.4
			s42.9,1.2,39.8-17.5c-0.2-1-0.4-2-0.6-3.1C374.3,665.5,349.5,662.6,325.2,666z"/>
		<path class="st13" d="M397.9,683.6c0.1,0.4,0,0.8-0.4,0.9c-0.2,0.1-0.5,0.1-0.7-0.1c-0.3-0.2-32.4-23.9-91.4-32.6
			c-0.4-0.1-0.6-0.4-0.6-0.8l0,0c0.1-0.4,0.4-0.6,0.8-0.6c59.4,8.8,91.7,32.6,92,32.9C397.7,683.4,397.8,683.5,397.9,683.6z"/>
		<path class="st13" d="M323,654.4l-10.7,5c-0.4,0.1-0.8,0-0.9-0.4c-0.1-0.3,0-0.7,0.3-0.9l9.2-4.3l-4.5-6.8c-0.2-0.3-0.2-0.7,0.1-1
			c0,0,0,0,0.1,0c0.3-0.2,0.7-0.2,1,0.1c0,0,0,0,0,0.1L323,654.4z"/>
		<path class="st13" d="M337.9,636.7L337.9,636.7l6.8,23.3l-14.9,8.5c-0.3,0.2-0.7,0.2-1-0.1c-0.2-0.3-0.2-0.7,0.1-1l0.1-0.1l13.9-8
			l-6.5-22.1c-0.1-0.4,0.1-0.7,0.5-0.9C337.4,636.2,337.7,636.4,337.9,636.7z"/>
		<path class="st13" d="M360,643.2L360,643.2l8.8,25.3l-21.6,10.2c-0.3,0.2-0.8,0-0.9-0.3c-0.2-0.3,0-0.8,0.3-0.9l20.4-9.7
			l-8.4-24.2c-0.1-0.4,0.1-0.8,0.4-0.9C359.5,642.7,359.9,642.9,360,643.2L360,643.2z"/>
		<path class="st13" d="M375.6,641.8L375.6,641.8l12.8,36.3l-24.7,13.7c-0.3,0.2-0.7,0.1-0.9-0.2l0,0c-0.2-0.3-0.1-0.7,0.3-0.9l0,0
			l23.7-13.1l-12.4-35.2c-0.1-0.4,0.1-0.8,0.4-0.9C375.1,641.3,375.5,641.5,375.6,641.8z"/>
		<path class="st10" d="M480,679.2c0,0,43.5-18.3,44.1-37s25.5-18.1,31.7-29s1.8-26.5-18.7-16.9s-22.2,8.7-33.6-2.6
			s-34.8,11-44,22.9s-2.1-15.4-17.2-8.4S417.8,654.4,421,684s59.5,19.5,67.2,9.9S477.9,688.4,480,679.2z"/>
		<path class="st12" d="M525.3,636.3c-0.7,1.9-1.1,3.9-1.2,5.9c-0.6,18.7-44.1,37-44.1,37c-2.1,9.2,16,5,8.3,14.6s-64,19.7-67.2-9.9
			c-0.2-1.6-0.3-3.2-0.4-4.8C451.2,656,487.3,641.2,525.3,636.3z"/>
		<path class="st13" d="M423.3,693c-0.1,0.6,0.4,1.1,1,1.2c0.4,0,0.7-0.1,1-0.4c0.4-0.5,38.8-49.4,124-87c0.6-0.2,0.8-0.9,0.6-1.4
			s-0.9-0.8-1.4-0.6c-85.7,37.8-124.5,87.1-124.8,87.6C423.4,692.6,423.3,692.8,423.3,693z"/>
		<path class="st13" d="M523.9,617.8l18.1,3.1c0.6,0.1,1.1-0.3,1.2-0.9l0,0c0.1-0.6-0.3-1.1-0.9-1.2l-15.7-2.7l3.9-12.1
			c0.2-0.6,0-1.2-0.6-1.4s-1.2,0-1.4,0.6c0,0.1,0,0.1-0.1,0.2L523.9,617.8z"/>
		<path class="st13" d="M494.1,597.4L494.1,597.4l-0.6,37.8l25.9,6.6c0.6,0.1,1.2-0.2,1.3-0.8l0,0c0.1-0.6-0.2-1.2-0.8-1.3
			l-24.3-6.2l0.6-36c0-0.6-0.5-1.1-1.1-1.1C494.7,596.5,494.2,596.9,494.1,597.4L494.1,597.4z"/>
		<path class="st13" d="M463.5,616.4L463.5,616.4l-2.8,41.9l36.7,6.5c0.6,0.2,1.2-0.2,1.3-0.8c0.2-0.6-0.2-1.2-0.8-1.3
			c-0.1,0-0.1,0-0.2,0l-34.8-6.1l2.6-39.9c0.1-0.6-0.4-1.1-1-1.2C464.1,615.4,463.6,615.8,463.5,616.4L463.5,616.4z"/>
		<path class="st13" d="M439.4,620.8L439.4,620.8l-4.2,60l42.8,10.3c0.6,0.1,1.2-0.2,1.3-0.8s-0.2-1.2-0.8-1.3l-41.1-9.9l4-58.1
			c0.1-0.6-0.4-1.1-1-1.2C440,619.8,439.5,620.2,439.4,620.8L439.4,620.8z"/>
		<polygon class="st17" points="546.3,749.1 222.2,749.1 214,675.1 554.5,675.1 		"/>
		<polygon class="st18" points="548.7,727.6 219.8,727.6 220.4,733.2 548.1,733.2 		"/>
		<polygon class="st18" points="550.9,707.8 217.6,707.8 218.8,718.6 549.7,718.6 		"/>
		<rect x="208.9" y="670" class="st18" width="350" height="17.4"/>
		<path class="st8" d="M847.2,765.9H571.9c-19.5,0-49.8-14.6-47.5-34.1l84.1-585.2c2.3-19.5,19.9-35.3,39.4-35.3l258.4-10.1
			c31.4,0,50.3,25.9,48,45.4l-67.7,584.1C884.3,750.1,866.7,765.9,847.2,765.9z"/>
		<path class="st19" d="M826.9,755.7H551.6c-19.5,0-33.5-15.8-31.2-35.3l67.8-584.1c2.3-19.5,19.9-35.3,39.4-35.3h275.3
			c19.5,0,33.4,15.8,31.2,35.3l-67.8,584.1C864,739.9,846.4,755.7,826.9,755.7z"/>
		<path class="st20" d="M826.9,743.4H554.5c-14.8,0-25.5-12-23.7-26.8l67.1-578.5c1.7-14.8,15.1-26.8,30-26.8h272.3
			c14.8,0,25.5,12,23.7,26.8l-67.1,578.5C855.1,731.4,841.7,743.4,826.9,743.4z"/>
		<path class="st8" d="M715.4,728.9h-56.8c-5.8,0.1-10.6-4.5-10.7-10.2c0-0.6,0-1.2,0.1-1.8l0,0c1-6.7,6.6-11.7,13.3-11.9h56.8
			c5.8-0.1,10.6,4.5,10.7,10.3c0,0.6,0,1.1-0.1,1.7l0,0C727.8,723.6,722.2,728.7,715.4,728.9z"/>
		
			<ellipse transform="matrix(0.7273 -0.6863 0.6863 0.7273 81.9299 471.5795)" class="st8" cx="634.4" cy="132.7" rx="9.5" ry="8.5"/>
		
			<ellipse transform="matrix(0.7273 -0.6863 0.6863 0.7273 88.4563 488.0675)" class="st8" cx="658.4" cy="132.7" rx="5.7" ry="5.1"/>
		<polygon class="st21" points="845.3,691.3 546,691.3 608,156.6 907.3,156.6 		"/>
		<path class="st2" d="M865.9,239.1H630.5c-6.3,0.1-11.5-4.9-11.7-11.2c0-0.6,0-1.3,0.1-1.9l4.8-41c1-7.3,7.2-12.8,14.6-13h235.3
			c6.3-0.2,11.5,4.8,11.7,11.1c0,0.6,0,1.2-0.1,1.9l-4.8,41C879.5,233.4,873.3,238.9,865.9,239.1z"/>
		
			<image style="overflow:visible;" width="874" height="106" xlink:href="7760DF99.png"  transform="matrix(0.24 0 0 0.24 651.36 192.24)">
		</image>
		<polygon class="st2" points="662.5,312.7 608.9,312.7 615.1,259.1 668.7,259.1 		"/>
		<polygon class="st1" points="731.8,312.7 678.2,312.7 684.5,259.1 738,259.1 		"/>
		<polygon class="st2" points="801.1,312.7 747.5,312.7 753.8,259.1 807.3,259.1 		"/>
		<polygon class="st2" points="870.4,312.7 816.8,312.7 823.1,259.1 876.6,259.1 		"/>
		<polygon class="st2" points="654.5,381.2 601,381.2 607.2,327.6 660.8,327.6 		"/>
		<polygon class="st2" points="723.8,381.2 670.3,381.2 676.5,327.6 730.1,327.6 		"/>
		<polygon class="st2" points="793.2,381.2 739.6,381.2 745.8,327.6 799.4,327.6 		"/>
		<polygon class="st2" points="862.5,381.2 808.9,381.2 815.1,327.6 868.7,327.6 		"/>
		<polygon class="st2" points="646.6,449.7 593,449.7 599.2,396.1 652.8,396.1 		"/>
		<polygon class="st2" points="715.9,449.7 662.3,449.7 668.5,396.1 722.1,396.1 		"/>
		<polygon class="st2" points="785.2,449.7 731.7,449.7 737.9,396.1 791.4,396.1 		"/>
		<polygon class="st2" points="854.5,449.7 801,449.7 807.2,396.1 860.7,396.1 		"/>
		<polygon class="st2" points="638.7,518.2 585.1,518.2 591.3,464.6 644.9,464.6 		"/>
		<polygon class="st2" points="708,518.2 654.4,518.2 660.6,464.6 714.2,464.6 		"/>
		<polygon class="st2" points="777.3,518.2 723.7,518.2 729.9,464.6 783.5,464.6 		"/>
		<polygon class="st2" points="846.6,518.2 793,518.2 799.2,464.6 852.8,464.6 		"/>
		<path class="st22" d="M625.5,628.9c0.6-4.3,4.2-7.5,8.5-7.6h48.4c4.6-0.1,8.9-2.7,11-6.8c2.2-4.2,1.8-8.8-1-12l-18.8-21.3
			c-1.9-2.1-4.6-3.3-7.4-3.2h-58.9c-3.1,0.1-5.9-2.1-6.6-5.1l-2.5-10.7c-0.5-2.5,0.1-5,1.8-6.9c1.6-2,4-3.2,6.6-3.2h81.2
			c1.9,0,3.8,0.8,5.1,2.2l30.4,33.9c0.3-1.5,0.6-3,0.9-4.5l-28.6-31.9c-1.9-2.1-4.6-3.2-7.4-3.2H607c-3.7,0-7.2,1.8-9.5,4.7
			c-2.4,2.7-3.3,6.4-2.6,10l2.5,10.7c1,4.4,5,7.5,9.6,7.4h58.9c2,0,3.8,0.8,5.1,2.2l18.8,21.3c2,2.3,2.2,5.7,0.7,8.3
			c-1.5,2.8-4.4,4.6-7.6,4.7h-48.4c-6.2,0.1-11.5,4.8-12.3,11l-1.3,11.2c-0.8,5.3,2.9,10.2,8.2,10.9c0.5,0.1,1,0.1,1.6,0.1H684
			c3.7-0.1,6.7,2.9,6.8,6.6c0,0.4,0,0.8-0.1,1.2c-0.6,4.3-4.2,7.5-8.5,7.6h-107l-0.4,3.4h107c6.3-0.2,11.5-4.9,12.3-11.2
			c0.8-5.3-2.9-10.2-8.2-10.9c-0.5-0.1-1.1-0.1-1.6-0.1h-53.5c-3.7,0.1-6.7-2.8-6.8-6.5c0-0.4,0-0.8,0.1-1.1L625.5,628.9z"/>
		<path class="st19" d="M743.1,560.7c-1,8.7-19.5,31.8-19.5,31.8s-13.1-23.1-12.1-31.8c1.2-8.9,8.7-15.6,17.6-15.8
			c7.6-0.2,13.9,5.8,14.1,13.4C743.3,559.1,743.2,559.9,743.1,560.7z"/>
		<ellipse transform="matrix(0.7273 -0.6863 0.6863 0.7273 -185.9942 651.9539)" class="st21" cx="727.4" cy="560" rx="9" ry="8"/>
		
			<ellipse transform="matrix(0.7273 -0.6863 0.6863 0.7273 -299.9958 581.616)" class="st19" cx="581.9" cy="668.3" rx="14" ry="12.5"/>
		
			<ellipse transform="matrix(0.7273 -0.6863 0.6863 0.7273 -299.9958 581.616)" class="st21" cx="581.9" cy="668.3" rx="7.2" ry="6.4"/>
		<path class="st17" d="M457.6,423.2c0,0,28.1-41,32.6-50.7s4.9-18-2-23.1s-19.9-9-31.3,7s-32.5,65.4-33.3,80.8s68.9,62.1,75.1,65.1
			c6.8-1.8,9.7-12,9.7-12S463.3,433.1,457.6,423.2z"/>
		<path class="st23" d="M480.7,762c0,0,1.4,8.1-3.2,20.3s-4.9,16.1,0,18.8s8.4,3.5,22,0c13.6-3.5,28.8-11,28.8-11
			s-14.8-9.4-18.4-13.4s-11.2-18.2-11-20.3S480.7,762,480.7,762z"/>
		<path class="st24" d="M517.7,783c-5.5,3.7-10.7,7.7-17.7,6.7c-5.6-1.4-7.7-7-11.3-11.3c-2.7-2-6.2-2.6-9.5-1.6
			c-0.5,1.7-1,3.6-1.8,5.5c-4.6,12.2-4.9,16.1,0,18.8s8.4,3.5,22,0c13.7-3.5,28.8-11,28.8-11S522.8,786.6,517.7,783z"/>
		<path class="st25" d="M645.8,340.6l17,7.3c5.7-7,9.9-12.3,12.7-12.9c7.2,1,10.3-2.1,12.2-4.6s-0.5-3.9-0.2-4.8
			c2-2.9-1.4-4.1-0.8-4.8c2.1-2.4,1.7-3.8,0.4-4.4s-3.4-1.3-3-2.5s5.6-4.5,10.1-6.6s9.5-5.6,6.7-7.4s-28.4,10.5-33.2,15.8
			s-3.6,10.8-9.6,16.6C656.1,334.4,651.3,337.5,645.8,340.6z"/>
		<path class="st26" d="M498.5,759.5c0,0,1.2,16.6-4.1,30.1s-3.8,19.5,5.8,22.3s14.9-3.8,27.4-3.4s29.1-1,33.4-12.5
			s-15.7-6.3-27.8-9.9s-6.7-24.8-6.7-24.8L498.5,759.5z"/>
		<path class="st24" d="M533.5,785.8c-1.1,3.6,8.8,7.5,5.9,9.4c-10.6,7.7-23.2-5.6-35.2-9.9c-2.6-1.1-5.5-1.4-8.2-0.7
			c-0.5,1.7-1,3.4-1.6,5c-5.3,13.5-3.8,19.5,5.8,22.3s14.9-3.8,27.4-3.4s36.2-2,40.4-13.5S545.7,789.2,533.5,785.8z"/>
		<path class="st8" d="M566.6,789.5c-0.1,0.3-0.2,0.6-0.2,0.8c-4.3,11.5-27.9,13.8-40.4,13.5s-17.8,6.2-27.4,3.4
			c-3.3-0.9-5.6-2.3-7-4.2c0.4,4.6,3.2,7.2,8.8,8.8c9.6,2.7,14.9-3.8,27.4-3.4s36.2-2,40.4-13.5C569,792.4,568.3,790.7,566.6,789.5z
			"/>
		<path class="st24" d="M518.7,546.5c-5.8-2.7-10.7-7.2-13.8-12.8c-5.7-10.1-5.2-22.1-3.2-28.3c3.1-9.2,15.4-32.5,15.4-32.5
			l-30.3-5.6c0,0-13.6,23.5-20.5,42c-6.9,18.5-1.3,38,2.1,52.7s11.8,56.5,8.2,72.2s-10.3,39.6-8.5,57.8s10.8,61.7,10.5,71.4
			c2.7,1.2,5.7,1.8,8.8,1.8c5.2-0.2,10.2-2,14.4-5c0,0,2.1-74.8,9.8-107.6C519.2,619.5,526.9,558.3,518.7,546.5z"/>
		<path class="st8" d="M518.7,546.5c-5.8-2.7-10.7-7.2-13.8-12.8c-12.8-6.1-3.9-29.6-4.9-44.1c-5.1,14-24.5,39.3,2,70.8
			c9.5,8.8,0.2,77.7-7.9,108.7c-7.3,26.3-4.1,68.6-2.8,95.5c3.8-0.8,7.3-2.4,10.4-4.6c0,0,2.1-74.8,9.8-107.6
			S526.9,558.3,518.7,546.5z"/>
		<path class="st24" d="M567.2,472.5c0,0,8.9,33.9,6.2,70.2s-27.1,97.3-29.8,110.6s-6.5,51.8-9.9,69s-5.1,33.4-3.2,37.8
			c-8,8.6-29.5,7.5-34.3,0c1.7-35.3,0.9-65.6,7.5-89.4s2.6-30,5.3-44.9s5.5-61,6.9-66.5s-12.3-8.2-17.3-17.1s-15.2-30.3,13.2-74
			C530.3,467.8,548.9,469.2,567.2,472.5z"/>
		<path class="st27" d="M567.2,472.5c-18.3-3.3-36.9-4.7-55.5-4.1c-0.6,0.9-1.1,1.7-1.6,2.6c14.8,0.2,29.6,1.6,44.2,4.2
			c0,0,8.9,33.9,6.2,70.2s-22.2,96.3-24.9,109.6s-3.8,50-7.2,67.3c-3,14.9-3.5,33.4-2.4,41.1c1.7-0.8,3.2-1.9,4.5-3.2
			c-1.9-4.5-0.2-20.6,3.2-37.8s7.2-55.7,9.9-69s27.1-74.3,29.8-110.6S567.2,472.5,567.2,472.5z"/>
		<path class="st26" d="M551.6,267.7c0,0,2.6,30.5-0.8,39.9s-6.8,16.3-8.7,18.1s-11-1.5-12.8,0s-1.6,19.2-1.6,19.2l-25.2-1
			c0,0,2.9-31.9,5.1-40.6S549,267,551.6,267.7z"/>
		<path class="st5" d="M492,343.3c0,0,19.5-9.8,35.5-2.1c15.9,7.7,40.8,40.1,44.7,46.2s6.4,20,0,32.6s-4.1,49.6-0.8,56
			c-27,8-68.9,2.8-88.1-5.7c10.8-15.7,16.4-21.6,8.7-38.8S475,365.6,492,343.3z"/>
		<path class="st17" d="M560,422.5c6.4-12.6,3.8-26.5,0-32.6s-28.8-38.5-44.7-46.2c-5.3-2.4-11.1-3.4-16.8-2.8
			c-2.2,0.7-4.4,1.5-6.5,2.5c-17,22.4-7.7,71.2,0,88.4s2.1,23.1-8.7,38.8c16.2,7.1,48.4,11.9,74.3,8.5l1.7-0.5
			C555.9,472,553.6,435,560,422.5z"/>
		<path class="st18" d="M590.4,380.5c0,0-40.6-28.5-50.4-33.1s-18-5.1-23.1,1.8s-9.2,19.8,6.7,31.3s65,33.1,80.4,34.2
			s62.9-68.2,65.9-74.4c-1.7-6.9-11.9-9.9-11.9-9.9S600.4,374.9,590.4,380.5z"/>
		<path class="st28" d="M523.6,380.5c-0.5-0.4-1-0.8-1.5-1.1C522.5,379.8,523,380.1,523.6,380.5z"/>
		<path class="st29" d="M515.9,355.9c5.1-6.9,13.4-6.4,23.1-1.8s48.8,30.1,48.8,30.1c10-5.7,70.2-53.8,70.2-53.8
			s-57.7,44.4-67.7,50.1c0,0-40.7-28.6-50.3-33.1s-18-5.1-23.1,1.8c-2.9,3.7-4.5,8.2-4.6,12.9C513.2,359.8,514.4,357.8,515.9,355.9z
			"/>
		<path class="st24" d="M549.7,253.3c-11.7-11.6-33.2-16.1-33.2-16.1c-18.3-6.2-32.5,11-36.6,26.4s-2.1,33.4-8.4,53.6
			c-3.2,9.9-48.8,80.5,11,131.7c15.2,7.5,26.8,10.8,43.3-1.9c-17.3-41.1-11.8-80.6-8.3-92.5c3.4-11.5,10.3-11.9,16.7-9.5l0.9,0.3
			c-0.6-1.2-1.4-2.5-2.3-4c-3.2-9.5-0.2-29.4,6.4-36.4c7.7-8.2,11.3-21.6,12.6-31.3c1.8,11.6-2.3,18.8-5.1,22.9
			C557.5,288,561.3,264.9,549.7,253.3z"/>
		<path class="st8" d="M476.4,406.4c-6.8-47.3,12.2-95.9,29.7-140.4c5.2-13.7,20.3-19.9,35.7-18.9c-11.5-7.1-25.2-9.9-25.2-9.9
			c-18.3-6.2-32.5,11-36.6,26.4s-2.1,33.4-8.4,53.6c-3.2,9.9-48.8,80.5,11,131.7c12.3,6.1,22.2,9.4,34.3,3.7
			c-4.4-1-8.7-2.8-12.4-5.3C490.8,437.8,479,422.6,476.4,406.4z"/>
		<path class="st11" d="M838.7,449.3c0,0-25.9-76.7-2.6-98.7s-5.6-53.3,1.2-73.6s32-32.4,42.9,4.9s14,38.5,41.5,40.2
			s25.4,57.1,20.5,82.6s22.2-14.8,30.3,12.6s-31.4,83.8-73,113.2s-92.6-54.2-89.1-75.1S829.3,462.4,838.7,449.3z"/>
		<path class="st12" d="M842.3,342.4c-1.6,3.1-3.7,5.9-6.2,8.2c-23.3,22,2.6,98.7,2.6,98.7c-9.4,13.1-24.7-14.9-28.2,6
			s47.4,104.5,89.1,75.1c2.2-1.6,4.5-3.2,6.7-5C901.4,460,879.3,397.3,842.3,342.4z"/>
		<path class="st30" d="M885.4,537.7c-0.7,0.8-1.9,0.8-2.6,0.1c-0.5-0.4-0.7-1.1-0.6-1.7c0.2-1,19.4-105.9-29.1-258
			c-0.3-1,0.3-2,1.3-2.3c0.9-0.2,1.9,0.3,2.2,1.1c48.8,153,29.4,258.7,29.2,259.8C885.8,537.1,885.6,537.4,885.4,537.7z"/>
		<path class="st30" d="M867.7,323.2l-24.5-19.8c-0.8-0.6-0.9-1.8-0.3-2.6c0.6-0.8,1.8-0.9,2.6-0.3l0,0l21.2,17.1l11.2-18.7
			c0.5-0.9,1.6-1.3,2.5-0.8s1.3,1.6,0.8,2.5c0,0.1-0.1,0.2-0.1,0.2L867.7,323.2z"/>
		<path class="st30" d="M927.7,338.2l-0.1,0.1L879.8,382l-37.9-25.7c-0.7-0.7-0.8-1.9-0.1-2.6c0.6-0.6,1.4-0.8,2.2-0.4l35.5,24.1
			l45.6-41.7c0.8-0.7,1.9-0.6,2.6,0.2C928.3,336.6,928.3,337.6,927.7,338.2L927.7,338.2z"/>
		<path class="st30" d="M938,399.1L938,399.1l-50.6,51.1l-49.9-39.8c-0.8-0.6-1-1.8-0.3-2.6s1.8-1,2.6-0.3l0,0l47.4,37.8l48.2-48.6
			c0.7-0.7,1.9-0.8,2.6-0.1C938.7,397.2,938.7,398.4,938,399.1L938,399.1z"/>
		<path class="st30" d="M959.8,435.1L959.8,435.1l-72.3,73.4l-61.9-43.3c-0.9-0.5-1.2-1.6-0.7-2.5s1.6-1.2,2.5-0.7
			c0.1,0.1,0.2,0.1,0.2,0.2l59.4,41.5l70-71.2c0.7-0.7,1.9-0.7,2.6,0C960.4,433.2,960.4,434.3,959.8,435.1z"/>
		<path class="st11" d="M828,619.6c0,0-56.6-28.3-55.8-53.4s-32.5-26.5-39.8-41.6s-0.1-35.6,26.5-20.9c26.6,14.7,29,13.6,45.2-0.5
			s45.6,17.7,56.9,34.6s4.2-20.4,23.8-9.7s28.7,63.8,21.7,103s-81.2,20.8-90.8,7.3S830,632,828,619.6z"/>
		<path class="st12" d="M771.2,558.2c0.8,2.6,1.2,5.3,1.1,8c-0.8,25.1,55.8,53.4,55.8,53.4c2,12.4-21.9,5.3-12.3,18.8
			s83.9,31.9,90.8-7.3c0.4-2.1,0.7-4.3,1-6.4C868.6,591,821.6,568,771.2,558.2z"/>
		<path class="st30" d="M902.6,642.9c0,0.8-0.6,1.5-1.4,1.5c-0.5,0-1-0.2-1.2-0.6c-0.5-0.7-47.5-69.5-158.2-127.2
			c-0.7-0.4-1-1.2-0.6-1.9s1.2-1,1.9-0.6c111.3,58.1,158.8,127.5,159.3,128.2C902.5,642.4,902.6,642.7,902.6,642.9z"/>
		<path class="st30" d="M774.7,533.6l-24.5,2.5c-0.8,0.1-1.5-0.5-1.6-1.3s0.5-1.5,1.3-1.6l21.2-2.2l-4.1-16.6
			c-0.2-0.8,0.3-1.6,1-1.8s1.6,0.3,1.8,1L774.7,533.6z"/>
		<path class="st30" d="M816.3,508.9v0.1l-2.5,50.5l-35.2,6.6c-0.8,0.2-1.5-0.3-1.7-1.1s0.3-1.5,1.1-1.7c0,0,0,0,0.1,0l33-6.2
			l2.4-48.3c0-0.8,0.6-1.4,1.4-1.4S816.3,508.1,816.3,508.9L816.3,508.9L816.3,508.9z"/>
		<path class="st30" d="M855.6,537v56.2l-49.7,5.4c-0.8,0.1-1.5-0.5-1.6-1.3s0.5-1.5,1.3-1.6l47.1-5.1V537c0-0.8,0.7-1.4,1.5-1.4
			C854.9,535.8,855.5,536.3,855.6,537L855.6,537z"/>
		<path class="st30" d="M887.4,545L887.4,545l0.3,80.5l-58.2,10c-0.8,0.1-1.5-0.5-1.6-1.3c-0.1-0.7,0.4-1.4,1.1-1.5l55.8-9.6
			l-0.3-78.1c0-0.8,0.6-1.5,1.4-1.5C886.8,543.5,887.4,544.1,887.4,545L887.4,545L887.4,545z"/>
		<path class="st30" d="M975.7,583c0,0,48.4-64.8,33.1-93s21.9-48.9,21.7-70.4s-20.3-40.8-42.3-8.7s-25.3,32.2-52,25.3
			s-41.8,46.4-45.2,72.1c-3.3,25.7-16.5-20.9-32.7,2.5c-16.2,23.4,3.8,89.4,34.3,130.2s104.8-22.8,108-43.8S980.5,598.3,975.7,583z"
			/>
		<path class="st12" d="M1005.4,480.2c0.5,3.4,1.7,6.7,3.4,9.8c15.3,28.2-33.1,93-33.1,93c4.8,15.3,28.1-6.5,24.9,14.4
			s-77.5,84.6-108,43.8c-1.6-2.2-3.2-4.5-4.8-6.8C912.7,573.7,953.2,521,1005.4,480.2z"/>
		<path class="st13" d="M903.8,652.5c0.4,0.9,1.5,1.4,2.4,0.9c0.6-0.3,1-0.8,1.1-1.5c0.1-1,14.5-106.7,107.8-236.2
			c0.5-0.9,0.3-2-0.6-2.5c-0.8-0.5-1.8-0.3-2.4,0.4c-93.9,130.3-108.3,236.8-108.4,237.9C903.6,651.8,903.7,652.2,903.8,652.5z"/>
		<path class="st13" d="M987.3,454.1l29.5-11.1c0.9-0.4,1.4-1.4,1.1-2.4l0,0c-0.4-0.9-1.4-1.4-2.4-1.1l-25.5,9.7l-4.8-21.3
			c-0.3-1-1.3-1.5-2.3-1.2c-0.9,0.3-1.4,1.1-1.3,2L987.3,454.1z"/>
		<path class="st13" d="M925.6,449.8c0,0.1,0,0.1,0.1,0.2l31.8,56.3l44-12.7c1-0.2,1.7-1.2,1.5-2.2s-1.2-1.7-2.2-1.5
			c-0.1,0-0.2,0-0.3,0.1l-41.2,11.9l-30.4-53.8c-0.5-0.9-1.6-1.3-2.5-0.8C925.5,447.8,925.1,448.9,925.6,449.8L925.6,449.8
			L925.6,449.8z"/>
		<path class="st13" d="M896.8,504.5L896.8,504.5l32.2,64.3l59.9-22.3c0.9-0.4,1.4-1.5,0.9-2.4c-0.4-0.9-1.3-1.3-2.2-1l-56.8,21.2
			L900,503.1c-0.5-0.9-1.6-1.2-2.5-0.8C896.8,502.6,896.5,503.6,896.8,504.5L896.8,504.5z"/>
		<path class="st13" d="M865,531.9L865,531.9l45.9,92.2l72.3-21.9c1-0.3,1.5-1.3,1.2-2.3l0,0c-0.3-1-1.3-1.5-2.3-1.2l-69.3,21
			l-44.5-89.4c-0.4-0.9-1.5-1.3-2.5-0.9S864.5,530.9,865,531.9L865,531.9z"/>
		<polygon class="st17" points="815.6,646.8 958.2,646.8 928.5,787.9 836.6,787.9 		"/>
		<polygon class="st18" points="945.9,705.1 824.3,705.1 826.5,719.8 942.8,719.8 		"/>
		<polygon class="st18" points="941.5,726.2 827.4,726.2 828.5,733.6 940,733.6 		"/>
		<rect x="811.3" y="644.4" class="st18" width="150.9" height="20.1"/>
	</g>
</g>
</svg>
