<svg xmlns="http://www.w3.org/2000/svg" viewBox="0 0 375 306.02"><defs><style>.cls-1{isolation:isolate;}.cls-2{fill:#fdbaa1;}.cls-3{fill:#ed9d61;}.cls-4{fill:#ffd1b2;}.cls-5{fill:#1e214f;}.cls-6{fill:#304fa1;}.cls-7{fill:#7575b7;}.cls-8{fill:#5250a5;}.cls-9{fill:#feb382;}.cls-10,.cls-29{fill:#430505;}.cls-11{fill:#ac6161;}.cls-12{fill:#ff3c37;}.cls-12,.cls-26,.cls-29{mix-blend-mode:screen;opacity:0.5;}.cls-13{fill:#fb805a;}.cls-14{fill:#93b4e2;}.cls-15{fill:#fe975b;}.cls-16{fill:#c4d9f6;}.cls-17{fill:#fec49b;}.cls-18{fill:#fdcfb7;}.cls-19{fill:#fff;}.cls-20{fill:#c6d7ee;}.cls-21{fill:#d74c37;}.cls-22{fill:#ca352b;}.cls-23{fill:#a5903e;}.cls-24{fill:#ccb34f;}.cls-25{fill:#ffaa2d;}.cls-27{fill:#e16b4b;}.cls-28{fill:#fd805a;}</style></defs><g class="cls-1"><g id="Camada_2" data-name="Camada 2"><g id="Camada_1-2" data-name="Camada 1"><path class="cls-2" d="M374.9,306a228.35,228.35,0,0,0-35.32-43.71,335.87,335.87,0,0,0-68.41-49.72c-48-26.72-99.6-43.06-153.3-53.25a603,603,0,0,0-62.58-8.45c-18.38-1.54-36.73-3.24-55.2-2.82Q.09,75.89,0,3.71C0,1,.26,0,3.49,0q184.05.18,368.1,0c4.15,0,3.32,2,3.32,4.31Q374.9,155.17,374.9,306Z"/><rect class="cls-2" width="375" height="34"/></g><g id="Camada_2-2" data-name="Camada 2"><polygon class="cls-3" points="130.87 272.86 135.33 272.86 117.51 184.44 113.06 184.44 130.87 272.86"/><polygon class="cls-3" points="241.05 272.86 236.6 272.86 254.42 184.44 258.87 184.44 241.05 272.86"/><rect class="cls-3" x="99.62" y="187.34" width="176.75" height="5.7"/><rect class="cls-4" x="96.41" y="229.05" width="151.67" height="4.43"/><path class="cls-5" d="M292.74,214H259a4.67,4.67,0,0,1-3.87-1.84,3.11,3.11,0,0,1-.4-2.91l3-8.15C260.24,194,268.53,189,277.81,189H306l-7.9,21.67A5.57,5.57,0,0,1,292.74,214Zm-14.93-23.44c-8.66,0-16.36,4.55-18.74,11.06l-3,8.14a1.63,1.63,0,0,0,.23,1.54,3.2,3.2,0,0,0,2.63,1.19h33.78a4.12,4.12,0,0,0,4-2.28l7.17-19.65Z"/><rect class="cls-6" x="260.68" y="213.34" width="28.13" height="5.02" transform="translate(549.48 431.69) rotate(180)"/><path class="cls-5" d="M263.36,190H308v-4H267.38a4,4,0,0,0-4,4Z"/><path class="cls-5" d="M278.25,216.88h16.17a2.83,2.83,0,0,1,2.83,2.83v5.37a0,0,0,0,1,0,0H275.41a0,0,0,0,1,0,0v-5.37A2.83,2.83,0,0,1,278.25,216.88Z" transform="translate(572.67 441.96) rotate(180)"/><rect class="cls-5" x="283.86" y="223.53" width="4.95" height="33.7" transform="translate(572.67 480.75) rotate(180)"/><polygon class="cls-5" points="288.05 251.77 288.05 256.11 319.53 262.69 319.53 261.42 288.05 251.77"/><path class="cls-5" d="M311.9,268.36a4.72,4.72,0,1,0,4.72-4.72A4.72,4.72,0,0,0,311.9,268.36Z"/><rect class="cls-5" x="317.45" y="262.02" width="0.99" height="2.54" transform="translate(635.89 526.58) rotate(180)"/><polygon class="cls-5" points="287.83 253.25 287.83 257.17 305.22 263.32 305.22 262.05 287.83 253.25"/><path class="cls-5" d="M297.45,268.36a4.72,4.72,0,1,0,4.71-4.72A4.72,4.72,0,0,0,297.45,268.36Z"/><rect class="cls-5" x="303" y="262.02" width="0.99" height="2.54" transform="translate(606.98 526.58) rotate(180)"/><polygon class="cls-5" points="284.71 251.77 284.71 256.11 253.22 262.69 253.22 261.42 284.71 251.77"/><path class="cls-5" d="M260.85,268.36a4.72,4.72,0,1,1-4.71-4.72A4.72,4.72,0,0,1,260.85,268.36Z"/><rect class="cls-5" x="254.32" y="262.02" width="0.99" height="2.54"/><polygon class="cls-5" points="284.92 253.25 284.92 257.17 267.53 263.32 267.53 262.05 284.92 253.25"/><path class="cls-5" d="M275.31,268.36a4.72,4.72,0,1,1-4.72-4.72A4.72,4.72,0,0,1,275.31,268.36Z"/><rect class="cls-5" x="268.77" y="262.02" width="0.99" height="2.54"/><path class="cls-7" d="M337.29,145a4.91,4.91,0,0,1,4,2.13c1.53,2.23,3.55,5.94,3.44,9.87-.15,5.19-10.88,41.75-14.55,54.11a3.18,3.18,0,0,1-4.77,1.76l-.31-.2L329.31,145Z"/><path class="cls-8" d="M284.08,212.62h41.06L339.2,147.2a1.86,1.86,0,0,0-1.82-2.25H304.26a7,7,0,0,0-6.83,5.52Z"/><path class="cls-6" d="M258.23,215.5a3.62,3.62,0,0,0,.62,2,1.89,1.89,0,0,0,1.51.87h62.2c2.35,0,4.26-2.66,4.26-5.94H260.45C259.24,212.43,258.19,213.81,258.23,215.5Z"/><path class="cls-6" d="M286.12,215.5a3.63,3.63,0,0,0,.63,2,1.89,1.89,0,0,0,1.51.87h34.62c2.08,0,3.89-1.93,4.45-4.71l.24-1.23H288.35C287.13,212.43,286.09,213.81,286.12,215.5Z"/><path class="cls-9" d="M251.84,268c.21-.92.32-1.62.32-1.62s.59-3.15,1.28-7.46c-2.89,0-5.77,0-8.66-.1l1.8,8.55a54.24,54.24,0,0,1-6.7,4.06c-2.25.93-2.68,1.6-2.68,1.6l15.65-.21c1-1.13-1-4.82-1-4.82Z"/><path class="cls-10" d="M252.25,268.47a.33.33,0,0,1,.45-.06,2.17,2.17,0,0,1,.74.9c.2.83.7,2.61.13,3.62a.29.29,0,0,1-.27.15h-16a.32.32,0,0,1-.32-.35c0-.31.32-.76,1.43-1.17,1.62-.6,6.61-3.45,7.95-4.22a1.22,1.22,0,0,1,.9-.13,1.93,1.93,0,0,1,.85.44,5.15,5.15,0,0,0,1,.7.44.44,0,0,1,.1.72l-1.12,1.08a6.91,6.91,0,0,0,2.67-.55A3.9,3.9,0,0,0,252.25,268.47Z"/><path class="cls-11" d="M284.1,193.93s-43.83,16.06-46,19.24,7.23,52.38,7.23,52.38h8l-.15-43.4,47.75-19.54Z"/><path class="cls-9" d="M258.36,268h0c.2-.92.31-1.62.31-1.62s.24-1.29.6-3.35a55.84,55.84,0,0,1-5.93-.14h-1.19l.94,4.48a54.24,54.24,0,0,1-6.7,4.06c-2.25.93-2.68,1.6-2.68,1.6l15.65-.21C260.38,271.66,258.36,268,258.36,268Z"/><path class="cls-10" d="M258.48,268.47a.32.32,0,0,1,.44-.06,2.1,2.1,0,0,1,.74.9c.21.83.7,2.61.13,3.62a.29.29,0,0,1-.27.15H243.57a.32.32,0,0,1-.32-.35c0-.31.32-.76,1.43-1.17,1.63-.6,6.61-3.45,7.95-4.22a1.23,1.23,0,0,1,.9-.13,1.93,1.93,0,0,1,.85.44,4.93,4.93,0,0,0,1,.7.45.45,0,0,1,.1.72l-1.13,1.08a6.88,6.88,0,0,0,2.67-.55A4.05,4.05,0,0,0,258.48,268.47Z"/><path class="cls-11" d="M310.87,191.18s2.46,15,.43,19.68L260.23,224l.15,43.69-8.83-.43-8.43-48a7.43,7.43,0,0,1,4.13-8l36.85-17.41Z"/><path class="cls-12" d="M251,265l-2-11-1.92-11q-1.9-11-3.69-22l-.42-2.77-.08-.73a4.41,4.41,0,0,1,.08-.74,8.23,8.23,0,0,1,.41-1.39,7.87,7.87,0,0,1,1.49-2.46,5.34,5.34,0,0,1,1.14-.93c.42-.23.84-.45,1.26-.65,3.35-1.65,6.71-3.23,10.1-4.8l10.14-4.68,10.19-4.6-20.14,9.68c-3.35,1.63-6.73,3.21-10.06,4.87-.42.2-.82.42-1.22.64a4.7,4.7,0,0,0-1,.83,7.24,7.24,0,0,0-1.37,2.3,7.33,7.33,0,0,0-.38,1.29,3.68,3.68,0,0,0-.07.64l.08.66.43,2.75,3.55,22.06,1.76,11Z"/><path class="cls-12" d="M259,264.92c-.41-3.52-.81-7.05-1-10.6-.08-1.77-.09-3.55,0-5.32s.27-3.54.4-5.3a69.44,69.44,0,0,0-.35-10.59l-.2-2.65c0-.45-.09-.86-.07-1.37a2.11,2.11,0,0,1,.2-.71,1.22,1.22,0,0,0,.13-.54c0-.38-.13-.84-.17-1.3a8.94,8.94,0,0,1,0-1.37,8.47,8.47,0,0,1,.63-2.66l.07-.15h.17l1,0a3.06,3.06,0,0,0,.92-.15,5.22,5.22,0,0,0,1.65-1,14.62,14.62,0,0,0,1.43-1.41,5.26,5.26,0,0,1,1.73-1.25,12.12,12.12,0,0,1,2-.64l2-.48,4-1c5.29-1.28,10.57-2.56,15.83-3.94,2.63-.69,5.26-1.38,7.87-2.12,1.31-.37,2.62-.75,3.92-1.14a9.35,9.35,0,0,0,3.56-1.75,8.08,8.08,0,0,0,2.11-3.36,26.26,26.26,0,0,0,1-3.93,39.49,39.49,0,0,0,.52-4,7.44,7.44,0,0,0-.57-4,7.65,7.65,0,0,1,.66,4,39.36,39.36,0,0,1-.44,4.06,26.3,26.3,0,0,1-.91,4,8,8,0,0,1-2.13,3.5,9.55,9.55,0,0,1-3.67,1.87c-1.3.41-2.61.8-3.91,1.19-2.61.76-5.23,1.51-7.86,2.2-5.26,1.4-10.54,2.71-15.82,4l-4,1-2,.48a10.68,10.68,0,0,0-1.89.6,4.63,4.63,0,0,0-1.56,1.12,15.56,15.56,0,0,1-1.48,1.44,5.77,5.77,0,0,1-1.82,1.09,3.4,3.4,0,0,1-1.08.18l-1,0,.24-.16a7.64,7.64,0,0,0-.61,2.49,7.81,7.81,0,0,0,0,1.28c0,.43.15.84.16,1.35a1.71,1.71,0,0,1-.17.74,1.6,1.6,0,0,0-.16.55c0,.38,0,.86.06,1.29l.19,2.65a67.62,67.62,0,0,1,.24,10.65c-.15,1.76-.36,3.53-.47,5.29s-.12,3.54-.08,5.31C258.32,257.86,258.65,261.39,259,264.92Z"/><path class="cls-9" d="M289.44,138.24l4.12-.46a27.75,27.75,0,0,0,3-1.25,6,6,0,0,1-1.47-1.82,40,40,0,0,1-2.44-7.2L288.88,131l-4.16.23-.69,5.22a9.35,9.35,0,0,1-.71,2.53C285.37,138.75,287.4,138.48,289.44,138.24Z"/><path class="cls-13" d="M284.48,133a7.48,7.48,0,0,0,6.15-1.91,9.25,9.25,0,0,0,2.14-3.17,7.45,7.45,0,0,1-1.31,1.58,7.55,7.55,0,0,1-6.76,1.81Z"/><path class="cls-14" d="M282.9,139.19l1.16-4.24s9.93-2.8,10.7-2.51,1.55,3.38,1.55,3.38,7.9,5.11,8.77,8,5.79,47.36,5.79,47.36-28,4.15-28.94,4.25.58-7,.58-7-7.81-33.57-8-35.11S282.9,139.19,282.9,139.19Z"/><path class="cls-9" d="M240.13,161.93c-3.58-.56-6.12-.55-6.19.6s1.65,2.74,4.2,4.64A46.18,46.18,0,0,1,240.13,161.93Z"/><path class="cls-9" d="M229,160.46s-3-2.34-3.25-2.72-.69-1.34-.56-1.51,1.05.91,1.05.91l3.81,2.47Z"/><path class="cls-9" d="M237.92,162s-1.33,2.91-2.73,3-6.29-2.29-7-3-4.58-4.07-4.46-4.59S229,159.6,229,159.6s.86.45,1-.61c0,0,2.81-.45,3.8,0A20.6,20.6,0,0,1,237.92,162Z"/><path class="cls-9" d="M230.72,159.91a21.16,21.16,0,0,0-2-2.08c-.4-.24-1.12-1-.8-1.24s5.25,1.78,6,2.65-.76,1.85-.76,1.85Z"/><path class="cls-14" d="M238.53,161.09,236,166.3s22.48,16.11,31.54,14.76,32.7-25.76,32.7-25.76S291.39,143,285.6,141.51L267.85,169.1Z"/><path class="cls-9" d="M232.93,175.46c0-.21.09-.19.13-.37-3.11.92-5.38,1.72-5.7,2.75s2.23,2,6,2.77A24.67,24.67,0,0,1,232.93,175.46Z"/><path class="cls-15" d="M222,178.09s-3.58,1.17-4,1.43-1.1,1-1,1.23,1.3-.49,1.3-.49l4.42-1Z"/><path class="cls-9" d="M230.92,179.7s-.25-3.2-1.56-3.71-6.68,0-7.62.36-5.7,2.25-5.76,2.77,5.72-.24,5.72-.24,1-.12.69.91c0,0,2.49,1.39,3.58,1.28A20.44,20.44,0,0,0,230.92,179.7Z"/><path class="cls-9" d="M223.43,179.2a21.19,21.19,0,0,1-2.54,1.27c-.47.09-1.42.59-1.19.9s5.55.13,6.53-.45-.08-2-.08-2Z"/><polygon class="cls-14" points="282.9 139.19 262.74 171.02 230.14 175.37 231.01 180.96 265.54 181.92 287.24 165.82 282.9 139.19"/><path class="cls-16" d="M247.17,173.19c1.28-.27,2.57-.51,3.86-.72s2.58-.43,3.87-.62,2.59-.36,3.88-.53,2.6-.3,3.9-.43l-.13.08c.34-.47.68-.95,1-1.41s.69-.93,1.05-1.39c-.28.51-.58,1-.88,1.51s-.59,1-.9,1.49l0,.06-.08,0c-1.29.22-2.58.43-3.87.62s-2.59.37-3.89.54-2.59.31-3.89.44S248.48,173.11,247.17,173.19Z"/><path class="cls-16" d="M262.7,172.8a3.46,3.46,0,0,1-.24-.86,4.23,4.23,0,0,1,0-.87l0-.67.45.47a3.69,3.69,0,0,1,.43.53,3.46,3.46,0,0,1,.34.63,2.51,2.51,0,0,1-.63-.33,3.78,3.78,0,0,1-.54-.43l.48-.2a4.23,4.23,0,0,1,0,.87A2.78,2.78,0,0,1,262.7,172.8Z"/><path class="cls-16" d="M279.58,174.35c1.7-1.61,3.43-3.19,5.15-4.77l5.18-4.74c1.73-1.56,3.43-3.16,5.14-4.77.84-.8,1.68-1.61,2.5-2.44s1.62-1.68,2.38-2.57a42.15,42.15,0,0,1-4.57,5.33c-1.64,1.67-3.35,3.28-5.06,4.88s-3.49,3.13-5.27,4.64S281.44,172.92,279.58,174.35Z"/><path class="cls-16" d="M292.8,162.68a14.93,14.93,0,0,1,5.2-2.61,14.93,14.93,0,0,1-5.2,2.61Z"/><path class="cls-16" d="M296.27,161.13c.66,2.35,1.22,4.72,1.73,7.1s.95,4.78,1.35,7.18.7,4.82.89,7.26a42.38,42.38,0,0,1,.08,7.3c0-.61,0-1.21-.05-1.82l-.12-1.82c-.09-1.21-.19-2.42-.35-3.62-.28-2.41-.62-4.82-1-7.21s-.79-4.79-1.21-7.19Z"/><path class="cls-16" d="M289.5,139.18a5,5,0,0,1,4.07-.68,12.78,12.78,0,0,1-2,.47A12.38,12.38,0,0,1,289.5,139.18Z"/><path class="cls-9" d="M278,123.3a18.25,18.25,0,0,0,.63-2,15.74,15.74,0,0,1,.38-3.19v0a10.87,10.87,0,0,1,.41-1.66c1.63-4.65,6.37-7.21,10.59-5.74,3.77,1.31,5.85,5.41,5.1,9.58-.21,2-1,6.84-3.64,9.27a7.51,7.51,0,0,1-9.5.54,6.8,6.8,0,0,1-1.59-1.67,8.16,8.16,0,0,1-.66-1.15.5.5,0,0,1,0-.13,8.76,8.76,0,0,1-.35-.84s0-.08,0-.12,0-.11,0-.16c-.07-.22-.13-.43-.19-.65s-.08-.35-.11-.52l-.35,0a.82.82,0,0,1-.75-.68A2.09,2.09,0,0,1,278,123.3Z"/><path class="cls-17" d="M281.91,126.11a2.66,2.66,0,1,0,2.34-3A2.66,2.66,0,0,0,281.91,126.11Z"/><path class="cls-10" d="M290.37,122.93a2.4,2.4,0,0,0,.12-1.12.54.54,0,0,0-.21-.44.5.5,0,0,0-.46,0,1.37,1.37,0,0,0-.62.82c-.12.36-.24.73-.33,1.1a4.13,4.13,0,0,0-.17,1.1.37.37,0,0,0,.05.2.08.08,0,0,0,.11,0,1,1,0,0,0,.36-.34,1.78,1.78,0,0,0,.33-1,1.12,1.12,0,0,0-.45-1,1.13,1.13,0,0,1,.59,1,1.92,1.92,0,0,1-.29,1.16,1,1,0,0,1-.46.45.35.35,0,0,1-.4-.12.69.69,0,0,1-.1-.34,4.27,4.27,0,0,1,.15-1.19c.11-.38.22-.74.36-1.11a1.48,1.48,0,0,1,.79-.93.62.62,0,0,1,.89.63A2.23,2.23,0,0,1,290.37,122.93Z"/><path class="cls-18" d="M279.23,123.9c0,.08-.1.14-.24.14s-.24-.06-.24-.13.11-.14.24-.14S279.23,123.83,279.23,123.9Z"/><path class="cls-10" d="M279.48,124.63a.48.48,0,0,1,.1-.29.43.43,0,0,1,.26-.14.42.42,0,0,1-.09.29A.47.47,0,0,1,279.48,124.63Z"/><path class="cls-10" d="M279.66,127.13a.5.5,0,0,0,0,.13,1.26,1.26,0,0,0,.65-.27A3.62,3.62,0,0,1,279.66,127.13Z"/><path class="cls-10" d="M279.22,126s0,.1,0,.16,0,.08,0,.12h.2a3.08,3.08,0,0,0,1.11-.32,2.47,2.47,0,0,0,.87-.73,3.85,3.85,0,0,1-.71.41l-.26.11a3.74,3.74,0,0,1-1,.24Z"/><path class="cls-10" d="M280.71,122.3a1.63,1.63,0,0,0,.33.83,2.33,2.33,0,0,1,.63-.25,1.71,1.71,0,0,0,.06-.7c-.07-.57-.35-1-.63-1S280.65,121.73,280.71,122.3Z"/><path class="cls-10" d="M280.23,119.6a.9.9,0,0,1,.81-.53,2.4,2.4,0,0,1,1,0,2.33,2.33,0,0,1,1.5,1.05.14.14,0,0,1-.19.2h0a5.07,5.07,0,0,0-.71-.34,2.6,2.6,0,0,0-.71-.16,2.8,2.8,0,0,0-.71,0,1.17,1.17,0,0,1-.8,0h0a.19.19,0,0,1-.1-.23Z"/><path class="cls-10" d="M280.09,119.24c.15.12.24.22.33.3l.13.13a1,1,0,0,0,.18.14.39.39,0,0,1-.52-.07A.51.51,0,0,1,280.09,119.24Z"/><path class="cls-10" d="M297,120.5c-.35-.79-1-1.69-.47-2.38a3.66,3.66,0,0,0-2.35-5.88,8.46,8.46,0,0,0-6.91-3.67,3.75,3.75,0,0,0-1.75.33,1.93,1.93,0,0,0-1.08,1.35,5.44,5.44,0,0,0-5,1.49,5.24,5.24,0,0,0-1.28,4.91,3.67,3.67,0,0,0-.42,3,3.54,3.54,0,0,0,.88,1.43c0-.45.05-.88.09-1.29a2.56,2.56,0,0,0,1.88.24,5.77,5.77,0,0,0,2.43-1.6,9.82,9.82,0,0,1,2.47-1.73,3.38,3.38,0,0,0,.19,2.78,3.42,3.42,0,0,0,2.22,1.7,2.57,2.57,0,0,1,2.34-.92,1.93,1.93,0,0,1,1.22,1.31,3.13,3.13,0,0,1-.11,1.84,9.58,9.58,0,0,1-.82,1.67,2.38,2.38,0,0,0,.52,2.58,3,3,0,0,0,1.95,1.06c0,.17.09.34.14.53a2.75,2.75,0,0,0,1.33-2.48,3.27,3.27,0,0,0,2.93-2.38A5.67,5.67,0,0,0,297,120.5Z"/><path class="cls-19" d="M277.74,123a3.88,3.88,0,0,0-.38,3c.45,1.67,4.49,7.32,11.12,5.36,0,0-4.39-4.18-4.85-6.54A17.58,17.58,0,0,1,277.74,123Z"/><path class="cls-19" d="M288.66,120.65a27.34,27.34,0,0,1-3.06,2.75c-.54.42-1.08.84-1.64,1.24s-1.13.77-1.68,1.18a8.87,8.87,0,0,1,1.4-1.53c.5-.47,1-.91,1.56-1.34A24.06,24.06,0,0,1,288.66,120.65Z"/><path class="cls-19" d="M288.48,131.27a17.23,17.23,0,0,0,1.33-1.91,13.55,13.55,0,0,0,1-2.06,10.27,10.27,0,0,0,.59-2.19,13.54,13.54,0,0,0,.12-2.31,6.46,6.46,0,0,1,.33,2.36,7.32,7.32,0,0,1-.5,2.35A8.28,8.28,0,0,1,288.48,131.27Z"/><path class="cls-20" d="M277.84,122.94a5.57,5.57,0,0,0-.12,3,5.37,5.37,0,0,0,1.55,2.54,9.25,9.25,0,0,0,1.19,1c.44.27.88.53,1.34.78s.94.46,1.42.65,1,.38,1.47.6c-.52-.09-1-.22-1.56-.33s-1-.34-1.52-.51-1-.48-1.45-.73a8.32,8.32,0,0,1-1.29-1,5.17,5.17,0,0,1-1.59-2.86A4.73,4.73,0,0,1,277.84,122.94Z"/><path class="cls-5" d="M322.9,214.13H289.12a4.66,4.66,0,0,1-3.87-1.83,3.13,3.13,0,0,1-.41-2.92l3-8.14c2.59-7.1,10.88-12.05,20.16-12.05h28.22l-7.91,21.67A5.54,5.54,0,0,1,322.9,214.13ZM308,190.69c-8.66,0-16.36,4.55-18.74,11.06l-3,8.15a1.6,1.6,0,0,0,.23,1.53,3.18,3.18,0,0,0,2.63,1.2H322.9a4.11,4.11,0,0,0,4-2.29L334,190.69Z"/><rect class="cls-5" x="290.83" y="213.49" width="28.13" height="5.02" transform="translate(609.8 432.01) rotate(180)"/><path class="cls-5" d="M293.52,190.16h44.67v-4H297.54a4,4,0,0,0-4,4Z"/><path class="cls-5" d="M114.11,214H80.33a5.57,5.57,0,0,1-5.39-3.28L67,189H95.26c9.28,0,17.56,5,20.15,12.05l3,8.15a3.11,3.11,0,0,1-.4,2.91A4.68,4.68,0,0,1,114.11,214ZM69.19,190.54l7.17,19.65a4.12,4.12,0,0,0,4,2.28h33.78a3.2,3.2,0,0,0,2.63-1.19,1.63,1.63,0,0,0,.23-1.54l-3-8.14c-2.38-6.51-10.08-11.06-18.74-11.06Z"/><rect class="cls-5" x="84.26" y="213.34" width="28.13" height="5.02"/><path class="cls-5" d="M109.71,190H65v-4h40.65a4,4,0,0,1,4,4Z"/><path class="cls-5" d="M75.82,216.88H97.66a0,0,0,0,1,0,0v5.37a2.83,2.83,0,0,1-2.83,2.83H78.65a2.83,2.83,0,0,1-2.83-2.83v-5.37A0,0,0,0,1,75.82,216.88Z"/><rect class="cls-5" x="84.26" y="223.53" width="4.95" height="33.7"/><polygon class="cls-5" points="85.02 251.77 85.02 256.11 53.54 262.69 53.54 261.42 85.02 251.77"/><path class="cls-5" d="M61.17,268.36a4.72,4.72,0,1,1-4.72-4.72A4.72,4.72,0,0,1,61.17,268.36Z"/><rect class="cls-5" x="54.63" y="262.02" width="0.99" height="2.54"/><polygon class="cls-5" points="85.23 253.25 85.23 257.17 67.85 263.32 67.85 262.05 85.23 253.25"/><path class="cls-5" d="M75.62,268.36a4.72,4.72,0,1,1-4.72-4.72A4.72,4.72,0,0,1,75.62,268.36Z"/><rect class="cls-5" x="69.08" y="262.02" width="0.99" height="2.54"/><polygon class="cls-5" points="88.36 251.77 88.36 256.11 119.85 262.69 119.85 261.42 88.36 251.77"/><path class="cls-5" d="M112.22,268.36a4.72,4.72,0,1,0,4.71-4.72A4.72,4.72,0,0,0,112.22,268.36Z"/><rect class="cls-5" x="117.76" y="262.02" width="0.99" height="2.54" transform="translate(236.52 526.58) rotate(180)"/><polygon class="cls-5" points="88.15 253.25 88.15 257.17 105.54 263.32 105.54 262.05 88.15 253.25"/><path class="cls-5" d="M97.76,268.36a4.72,4.72,0,1,0,4.72-4.72A4.72,4.72,0,0,0,97.76,268.36Z"/><rect class="cls-5" x="103.31" y="262.02" width="0.99" height="2.54" transform="translate(207.61 526.58) rotate(180)"/><path class="cls-7" d="M35.78,145a4.89,4.89,0,0,0-4,2.13c-1.53,2.23-3.55,5.94-3.44,9.87.15,5.19,10.88,41.75,14.54,54.11a3.19,3.19,0,0,0,4.78,1.76l.31-.2L43.76,145Z"/><path class="cls-8" d="M89,212.62H47.93L33.87,147.2A1.86,1.86,0,0,1,35.69,145H68.81a7,7,0,0,1,6.83,5.52Z"/><path class="cls-6" d="M114.84,215.5a3.62,3.62,0,0,1-.62,2,1.89,1.89,0,0,1-1.51.87H50.51c-2.35,0-4.26-2.66-4.26-5.94h66.37C113.83,212.43,114.88,213.81,114.84,215.5Z"/><path class="cls-6" d="M87,215.5a3.63,3.63,0,0,1-.63,2,1.89,1.89,0,0,1-1.51.87H50.19c-2.08,0-3.9-1.93-4.45-4.71l-.24-1.23H84.72C85.94,212.43,87,213.81,87,215.5Z"/><path class="cls-21" d="M136.66,219.77a5.31,5.31,0,0,0-.33-1.51c-.42-1.45-1.1-2.59-2.18-2.94-1.27-1-5.82-3.78-11.44-7.17-3.79,3.77-7.53,7.58-11.12,11.53L110,221.47c3.86,1.39,7,2.5,8.9,3.16a48.78,48.78,0,0,0-4,4.26c-4.8,5.85-13.38,26.52-13.38,26.52s-.26.57-.57,1.38c-.58.25-3.78,1.72-3.7,3.1l12.09,9.94s.09-.79-1.09-2.92a54.41,54.41,0,0,1-2.74-7.5l27.67-28.84A12.91,12.91,0,0,0,136.66,219.77Z"/><path class="cls-10" d="M99.11,257.64a3.71,3.71,0,0,0-2.17,2.15.27.27,0,0,0,.08.29l12.23,10a.18.18,0,0,0,.3-.12,6.58,6.58,0,0,0-1.11-3.67,6.33,6.33,0,0,1-4.36-2.26C100.59,259.51,99.11,257.64,99.11,257.64Z"/><path class="cls-21" d="M127.66,271.05a54.23,54.23,0,0,1-6.82-4.15l3.92-43.57c.93-2.26-.52-4.65-2.1-6-.5-.42-2.61-1.68-5.64-3.42l-.46.48h0l-1,1c-1.34,1.4-2.68,2.82-4,4.25-2,2.21-4,4.44-6,6.69l3.82,1.2s.27.07.75.16a62,62,0,0,0-1.05,9.47c-.09,7.57,6.11,29.07,6.11,29.07s.16.61.43,1.44c-.3.55-1.88,3.7-1,4.73l15.65.21S129.91,272,127.66,271.05Z"/><path class="cls-22" d="M111.87,252.75A55.29,55.29,0,0,1,110,246c-.24-1.15-.47-2.3-.63-3.46a18,18,0,0,1-.23-3.52c.16,1.16.44,2.3.67,3.44l.75,3.42C111,248.14,111.52,250.42,111.87,252.75Z"/><path class="cls-22" d="M123.15,241.1c.08-1.13.19-2.26.28-3.39l.32-3.38c.22-2.26.47-4.51.67-6.76s.48-4.52.48-6.74a1.11,1.11,0,0,0,0-.19v-.16a1.9,1.9,0,0,0-.19-.32,7.81,7.81,0,0,0-.53-.64c-.37-.42-.76-.82-1.16-1.22-.79-.81-1.61-1.59-2.43-2.37.9.68,1.77,1.42,2.62,2.16.43.38.84.77,1.24,1.18.2.21.4.42.58.65a1.54,1.54,0,0,1,.26.4l0,.14v.11a2.08,2.08,0,0,1,0,.23,26.08,26.08,0,0,1-.07,3.43c-.08,1.13-.17,2.27-.28,3.4-.24,2.25-.49,4.5-.79,6.75S123.56,238.87,123.15,241.1Z"/><path class="cls-10" d="M114.65,269.68a3.72,3.72,0,0,0-.35,3,.26.26,0,0,0,.24.17l15.81.19a.19.19,0,0,0,.16-.29,6.59,6.59,0,0,0-3.16-2.17,6.31,6.31,0,0,1-4.82,1C117,270.22,114.65,269.68,114.65,269.68Z"/><path class="cls-23" d="M59.05,182.15a23.36,23.36,0,0,0-6.56,13.31c-1.26,8.58,6.17,17.07,10.32,18.13S107,227.38,107,227.38l20.35-17.07L83.84,186.1Z"/><path class="cls-24" d="M61.79,184a41.57,41.57,0,0,0-2.6,8.8c-.13.75-.24,1.51-.34,2.27,0,.38-.09.75-.12,1.14a6,6,0,0,0,0,1.11,1,1,0,0,0,.48.83c.14.11.31.21.47.35a1.76,1.76,0,0,1,.4.5,2.21,2.21,0,0,1,.24,1.23,7.5,7.5,0,0,1-.18,1.17,6.46,6.46,0,0,0-.24,2.19,2.34,2.34,0,0,0,1.22,1.61A9.3,9.3,0,0,1,63,206.59c.56.63.82,1.37,1.29,1.93A9.58,9.58,0,0,0,67.94,211c1.4.61,2.82,1.19,4.25,1.73,5.72,2.2,11.65,3.82,17.53,5.59,2.94.89,5.88,1.79,8.78,2.81.73.25,1.45.53,2.17.79s1.42.59,2.13.88l4.25,1.79L102.74,223c-.71-.27-1.42-.56-2.15-.81s-1.45-.5-2.18-.73c-2.91-1-5.86-1.82-8.81-2.65-5.91-1.68-11.84-3.31-17.61-5.48q-2.16-.83-4.27-1.77a9.82,9.82,0,0,1-3.85-2.67c-.52-.63-.79-1.39-1.26-1.91a9.29,9.29,0,0,0-1.81-1.29,4.12,4.12,0,0,1-.93-.8,2.25,2.25,0,0,1-.5-1.16,6.78,6.78,0,0,1,.29-2.36,3.18,3.18,0,0,0,0-2.11,1.44,1.44,0,0,0-.31-.39,4.21,4.21,0,0,0-.44-.34,1.57,1.57,0,0,1-.44-.48,1.45,1.45,0,0,1-.17-.63,5.68,5.68,0,0,1,.07-1.18c0-.38.09-.76.14-1.15.11-.76.23-1.52.38-2.28A40,40,0,0,1,61.79,184Z"/><path class="cls-24" d="M83.85,197.52c1.65.76,3.3,1.5,5,2.17s3.38,1.28,5.11,1.81,3.46,1,5.22,1.44c.88.21,1.76.4,2.65.58l1.33.26c.45.07.9.15,1.34.24-.9,0-1.81-.13-2.71-.22s-1.81-.26-2.7-.42a45.67,45.67,0,0,1-10.41-3.28A40.33,40.33,0,0,1,83.85,197.52Z"/><path class="cls-24" d="M84.4,200.2a38.33,38.33,0,0,0,5,2.93q2.63,1.25,5.36,2.25c1.81.69,3.66,1.31,5.49,2l2.75,1c.91.36,1.82.71,2.71,1.1l-5.6-1.67c-1.87-.57-3.72-1.17-5.56-1.86a42.65,42.65,0,0,1-5.35-2.4L88,202.79,86.71,202l-1.18-.86C85.14,200.83,84.77,200.52,84.4,200.2Z"/><path class="cls-22" d="M80.12,155.36l-2.47,1.36c4.66,10.94,12.44,27,17.57,26.47s-.38-21.15-4.17-33.4C87.4,151.62,83.71,153.39,80.12,155.36Z"/><path class="cls-22" d="M89.28,180.39s5.77,3.5,9.65,3,31-3.43,29.68-6.91-25.38-5.33-29.53-5.26c-3.09.05-12.43,3.63-12.43,3.63Z"/><path class="cls-22" d="M134,176.42s3.65,1,4.07,1.19,1.17,1,1.11,1.16-1.32-.41-1.32-.41l-4.48-.74Z"/><path class="cls-22" d="M125.17,178.58s0-3.21,1.33-3.8,6.67-.42,7.62-.11,5.83,1.9,5.93,2.42-5.73.11-5.73.11-1-.07-.63,1c0,0-2.4,1.53-3.5,1.5A20.63,20.63,0,0,1,125.17,178.58Z"/><path class="cls-22" d="M132.61,177.62a20.61,20.61,0,0,0,2.62,1.12c.47.06,1.45.5,1.24.82s-5.53.47-6.54-.05-.05-2-.05-2Z"/><path class="cls-21" d="M76.15,141.9A47.24,47.24,0,0,0,88,144.4c-1.6-2.68-3.75-6.33-4.72-8a9.79,9.79,0,0,1-1-2.31,13,13,0,0,1-.46-5.35l-4.16-.18-3.83-3.45s-1.9,8.06-4.23,9.42l-.33.23c-.72.56-1.48,1.06-2.13,1.6A32.6,32.6,0,0,0,76.15,141.9Z"/><path class="cls-22" d="M81.73,130.82a7.5,7.5,0,0,1-4.93-1.92,8.58,8.58,0,0,1-1.06-1.19,7.6,7.6,0,0,0,6.05,1.19A12.42,12.42,0,0,0,81.73,130.82Z"/><path class="cls-25" d="M69.7,134.47s6.81,3.6,12,6.68c3.76,2.23,5,1.26,5,1.26s6.85,10,6.37,13.4-8.52,31.05-8.52,31.05-16-.37-25.82-4.13l1.35-8.3s-1.18-27.61,1.35-32.89C62.58,139.2,69.7,134.47,69.7,134.47Z"/><g class="cls-26"><path class="cls-25" d="M68.61,135.77c.71.46,1.42.93,2.14,1.37s1.44.9,2.17,1.32c1.45.86,2.91,1.7,4.42,2.46a35.67,35.67,0,0,0,4.63,2,15.48,15.48,0,0,0,2.43.63,8.43,8.43,0,0,0,2.51.12,10.2,10.2,0,0,1-5.08-.32,26.06,26.06,0,0,1-4.75-1.91,41.24,41.24,0,0,1-4.4-2.59A40.52,40.52,0,0,1,68.61,135.77Z"/><path class="cls-25" d="M68.39,163c-.15,1.78-.36,3.55-.58,5.32s-.47,3.53-.73,5.29-.54,3.52-.86,5.27l-.47,2.63c-.18.87-.35,1.75-.54,2.62.06-.89.17-1.78.25-2.67l.32-2.65c.22-1.77.47-3.53.73-5.29s.55-3.52.87-5.27S68,164.71,68.39,163Z"/><path class="cls-25" d="M65.56,172.45a5.71,5.71,0,0,1,1.59.76,5.81,5.81,0,0,1,1.33,1.16,4.18,4.18,0,0,1-1.64-.67A4.35,4.35,0,0,1,65.56,172.45Z"/></g><path class="cls-21" d="M124.07,177.31s3.69.82,4.12,1,1.2.91,1.15,1.11-1.34-.35-1.34-.35l-4.5-.57Z"/><path class="cls-21" d="M115.37,179.8s-.07-3.21,1.18-3.85,6.66-.67,7.62-.39,5.9,1.67,6,2.19-5.72.32-5.72.32-1,0-.6,1c0,0-2.34,1.62-3.43,1.63A20.94,20.94,0,0,1,115.37,179.8Z"/><path class="cls-21" d="M122.77,178.56a22,22,0,0,0,2.66,1c.48,0,1.47.45,1.27.77s-5.51.68-6.54.2-.12-2-.12-2Z"/><path class="cls-21" d="M68.72,141a8.22,8.22,0,0,0-5.56,10.29l0,.1c1.07,3.28,15.63,32.5,19.87,33.66s34.44-5.5,34.44-5.5l-1-3.59-28.76-2.87-5.56-24.14a10.74,10.74,0,0,0-13.21-8Z"/><path class="cls-21" d="M88.47,120.78a17.84,17.84,0,0,1-.66-2,15.53,15.53,0,0,0-.41-3.19,0,0,0,0,1,0,0,10,10,0,0,0-.43-1.65c-1.68-4.63-6.44-7.14-10.65-5.63-3.76,1.36-5.79,5.48-5,9.64.24,2,1,6.83,3.74,9.23a7.51,7.51,0,0,0,9.51.44,6.94,6.94,0,0,0,1.57-1.68,7.73,7.73,0,0,0,.64-1.16.38.38,0,0,0,.06-.13,6.78,6.78,0,0,0,.33-.85.56.56,0,0,0,0-.12l.06-.16.18-.65c0-.17.07-.35.11-.53l.34,0a.79.79,0,0,0,.74-.69A2,2,0,0,0,88.47,120.78Z"/><path class="cls-27" d="M84.57,123.63a2.66,2.66,0,1,1-2.37-2.93A2.68,2.68,0,0,1,84.57,123.63Z"/><path class="cls-10" d="M76.07,120.54a2.22,2.22,0,0,1-.27-1.13.67.67,0,0,1,.24-.58.69.69,0,0,1,.65-.07,1.51,1.51,0,0,1,.79.93c.14.37.26.72.37,1.1A4.67,4.67,0,0,1,78,122a.69.69,0,0,1-.1.35.33.33,0,0,1-.4.12,1.06,1.06,0,0,1-.47-.44,2,2,0,0,1-.29-1.16,1.11,1.11,0,0,1,.58-1,1.09,1.09,0,0,0-.44,1,1.72,1.72,0,0,0,.34,1,1,1,0,0,0,.36.34.09.09,0,0,0,.11,0,.48.48,0,0,0,.05-.2,4.6,4.6,0,0,0-.18-1.1c-.1-.36-.22-.74-.34-1.09a1.38,1.38,0,0,0-.63-.81.49.49,0,0,0-.47,0,.53.53,0,0,0-.2.44A2.4,2.4,0,0,0,76.07,120.54Z"/><path class="cls-18" d="M87.22,121.4c0,.07.11.13.24.13s.24-.06.24-.13-.11-.14-.24-.14S87.22,121.32,87.22,121.4Z"/><path class="cls-10" d="M87,122.13a.4.4,0,0,1-.27-.15.43.43,0,0,1-.1-.28.41.41,0,0,1,.27.14A.48.48,0,0,1,87,122.13Z"/><path class="cls-10" d="M86.83,124.63a.38.38,0,0,1-.06.13,1.34,1.34,0,0,1-.64-.26A5.4,5.4,0,0,0,86.83,124.63Z"/><path class="cls-28" d="M87.44,122.85l-.18.65-.06.16a3.37,3.37,0,0,1-1.6-.45l.09-.06a2.14,2.14,0,0,1,1.46-.37Z"/><path class="cls-10" d="M87.26,123.5l-.06.16a.56.56,0,0,1,0,.12H87a2.85,2.85,0,0,1-1.11-.32,2.57,2.57,0,0,1-.89-.71,5.07,5.07,0,0,0,.72.4l.26.11a4.22,4.22,0,0,0,1,.23Z"/><path class="cls-10" d="M85.72,119.81a1.62,1.62,0,0,1-.31.83,2.62,2.62,0,0,0-.64-.24,1.71,1.71,0,0,1-.06-.7,1.75,1.75,0,0,1,.09-.41c.11-.35.32-.59.52-.57S85.78,119.24,85.72,119.81Z"/><path class="cls-10" d="M85.32,118.73a1.83,1.83,0,0,1-1-.37s0,.79.62,1Z"/><path class="cls-10" d="M86,117.36a1.24,1.24,0,0,1-.8,0,2.82,2.82,0,0,0-.71,0,2.62,2.62,0,0,0-.71.17,4.49,4.49,0,0,0-.7.34h0a.14.14,0,0,1-.2-.06.14.14,0,0,1,0-.15,2.35,2.35,0,0,1,1.49-1.06,2.4,2.4,0,0,1,1,0,.91.91,0,0,1,.81.52.18.18,0,0,1-.09.24h0Z"/><path class="cls-10" d="M86.31,116.74a2.41,2.41,0,0,0-.32.31l-.13.13a1,1,0,0,1-.18.14.4.4,0,0,0,.52-.07A.52.52,0,0,0,86.31,116.74Z"/><path class="cls-10" d="M90.75,117.62a3.9,3.9,0,0,1-1.25-2.24c-.19-.85-.23-1.72-.41-2.58A8.94,8.94,0,0,0,84,106.61a10,10,0,0,0-8.07.11,11.18,11.18,0,0,0-5.37,6.09,3.28,3.28,0,0,0-1.91,2,6.71,6.71,0,0,0-.29,2.82A14.05,14.05,0,0,0,71.14,125a29.28,29.28,0,0,1,2,2.63c3.36.66,4-4.43,4-4.43-2.07-.29-3.33-3.25-2.07-4.63s2.36.4,2.36.4c.72,2.93,2.78,1.41,2.78,1.41-1.08.51-1.34-1.74-1.34-1.74a3.46,3.46,0,0,0,.33-4.63,90.89,90.89,0,0,0,8.58,4.47c0,.11,0,.2,0,.31a14.78,14.78,0,0,0,.56,1.72,8,8,0,0,0,2.68-.35,3.21,3.21,0,0,0,2.12-2.43A2,2,0,0,1,90.75,117.62Z"/><path class="cls-29" d="M72.51,112.3a8.32,8.32,0,0,1,2.39,0,8.57,8.57,0,0,1,2.32.57,8.69,8.69,0,0,1-2.39,0A8.85,8.85,0,0,1,72.51,112.3Z"/><path class="cls-19" d="M88.26,120.05A3.86,3.86,0,0,1,88.8,123c-.36,1.7-4.08,7.56-10.81,6,0,0,4.16-4.41,4.48-6.8A17.43,17.43,0,0,0,88.26,120.05Z"/><path class="cls-19" d="M77.27,118.75a22.78,22.78,0,0,1,3.51,1.89c.56.37,1.11.75,1.63,1.16a7.89,7.89,0,0,1,1.47,1.36c-.56-.35-1.15-.65-1.72-1s-1.13-.68-1.69-1A26.28,26.28,0,0,1,77.27,118.75Z"/><path class="cls-19" d="M78,129a9.44,9.44,0,0,1-3-3.88,8.16,8.16,0,0,1-.62-2.41,6.77,6.77,0,0,1,.2-2.46,13.45,13.45,0,0,0,.25,2.39,11.07,11.07,0,0,0,.7,2.25A15.65,15.65,0,0,0,76.62,127,20.11,20.11,0,0,0,78,129Z"/><path class="cls-20" d="M81.77,129a19.38,19.38,0,0,0,2.77-1.39,11.39,11.39,0,0,0,2.37-1.86,5.67,5.67,0,0,0,1.34-2.61,6.89,6.89,0,0,0,0-3,5.34,5.34,0,0,1,.48,3.11,5.4,5.4,0,0,1-1.35,2.92,9.4,9.4,0,0,1-2.58,1.87A10.73,10.73,0,0,1,81.77,129Z"/><path class="cls-5" d="M84,214.36H50.17a5.54,5.54,0,0,1-5.38-3.28l-7.91-21.67H65.1c9.28,0,17.57,5,20.15,12.05l3,8.15a3.08,3.08,0,0,1-.4,2.91A4.67,4.67,0,0,1,84,214.36ZM39,190.92l7.16,19.65a4.12,4.12,0,0,0,4,2.28H84a3.18,3.18,0,0,0,2.63-1.2,1.6,1.6,0,0,0,.23-1.53l-3-8.14c-2.38-6.52-10.08-11.06-18.74-11.06Z"/><rect class="cls-5" x="54.11" y="213.72" width="28.13" height="5.02"/><path class="cls-5" d="M79.55,190.39H34.88v-4H75.53a4,4,0,0,1,4,4Z"/><polygon class="cls-4" points="91.21 272.86 86.75 272.86 104.57 184.44 109.03 184.44 91.21 272.86"/><polygon class="cls-4" points="281.56 272.86 286.02 272.86 268.2 184.44 263.75 184.44 281.56 272.86"/><rect class="cls-4" x="95.58" y="182.15" width="185.66" height="5.98"/></g></g></g></svg>