<svg xmlns="http://www.w3.org/2000/svg" viewBox="0 0 89.71 97.87"><defs><style>.cls-1{fill:#60992e;}.cls-2{fill:#fe4400;}.cls-3{fill:#fffffa;opacity:0.2;}</style></defs><g id="Camada_2" data-name="Camada 2"><g id="OBJECTS"><path class="cls-1" d="M89.69,0a27.71,27.71,0,0,1-8.22,20.42,33,33,0,0,1-30.79,9.39A15.39,15.39,0,0,1,43,26.39c-5.4-5.09.59-13.4,4.65-17.55A26.43,26.43,0,0,1,65.77,1.05C73.88.84,82.69,4.1,89.69,0Z"/><path class="cls-1" d="M36.47,11.23c-.23-1.41-.4-2.42-.45-2.76a.63.63,0,0,1,0-.36.59.59,0,0,1,.38-.27c.72-.27,2.54-1,3.23-.42a2.27,2.27,0,0,1,.55,1A47.56,47.56,0,0,1,42,17.86c.25,2.68,1,6.44,0,9a2.44,2.44,0,0,1-2,1.67C39.41,28.57,37.4,16.81,36.47,11.23Z"/><path class="cls-2" d="M54.21,22.39a36.76,36.76,0,0,1,22.13,17.2c8.28,14.22,7.28,32.64-4.43,44.67C60,96.54,39.36,101,23.18,95.66-10,84.78-6.23,32.64,26,23.07,35.45,20.24,45.36,19.86,54.21,22.39Z"/><path class="cls-3" d="M51.85,23.11a32.1,32.1,0,0,1,19.31,15c7.22,12.4,6.34,28.46-3.87,39C56.86,87.77,38.91,91.64,24.79,87-4.13,77.52-.86,32,27.21,23.7A44.35,44.35,0,0,1,51.85,23.11Z"/></g></g></svg>