<svg xmlns="http://www.w3.org/2000/svg" viewBox="0 0 304.55 394.98"><defs><style>.cls-1{fill:#ca5f00;}.cls-2{fill:#2a2962;}.cls-25,.cls-3{fill:#fff;}.cls-4{fill:none;}.cls-5{fill:#dbdbdb;}.cls-6{fill:#ebebeb;}.cls-7{opacity:0.56;}.cls-8{fill:#a8a8d0;}.cls-10,.cls-9{fill:#a6a6a6;}.cls-10{stroke:#fff;}.cls-10,.cls-25{stroke-miterlimit:10;stroke-width:0.5px;}.cls-11{fill:#3b0d0d;}.cls-12{fill:#f4ac75;}.cls-13{fill:#dc8e53;}.cls-14{fill:#7a4444;}.cls-15{fill:#9b6161;}.cls-16{fill:#c4ae53;}.cls-17{fill:#e69d43;}.cls-18{fill:#23314f;}.cls-19{fill:#fe885c;}.cls-20{fill:#2c3a64;}.cls-21{fill:#998639;}.cls-22{fill:#7474b4;}.cls-23{fill:#fe4400;}.cls-24{fill:#263238;}.cls-25{stroke:#263238;}.cls-26{fill:#fdfbfb;}.cls-27{fill:#e6421e;}.cls-28{fill:#fefcfb;}</style></defs><g id="Camada_2" data-name="Camada 2"><g id="Camada_1-2" data-name="Camada 1"><g id="Camada_2-2" data-name="Camada 2"><g id="Device"><ellipse class="cls-1" cx="75" cy="387.8" rx="75" ry="7.18"/><path class="cls-2" d="M263.83,0h-169a17.26,17.26,0,0,0-17.1,17.42h0v348a17.27,17.27,0,0,0,17.1,17.42h169A17.28,17.28,0,0,0,281,365.45v-348A17.27,17.27,0,0,0,263.89,0Zm6.43,354.67c0,9.16-6.86,16.57-15.32,16.57H103.7c-8.48,0-15.34-7.41-15.34-16.57V30.61C88.36,12,95.22,11,103.7,11H134c1.76,0,3.2,2,3.2,4.48v1.07c0,5.81,3.18,5.83,7.09,5.83h70.06c3.94,0,7.09,0,7.09-5.83v-1c0-2.48,1.42-4.48,3.21-4.48H255c8.46,0,15.32,2.48,15.32,19.57Z"/><path class="cls-3" d="M188.86,15.16H169.75A1.18,1.18,0,0,1,168.57,14h0a1.18,1.18,0,0,1,1.18-1.18h19.11A1.17,1.17,0,0,1,190,14h0A1.18,1.18,0,0,1,188.86,15.16Z"/><line class="cls-4" x1="88.36" y1="334.13" x2="87.79" y2="334.13"/><path class="cls-3" d="M270.26,30.61V354.67c0,9.16-6.86,16.57-15.32,16.57H103.7c-8.48,0-15.34-7.41-15.34-16.57V30.61C88.36,12,95.22,11,103.7,11H134c1.76,0,3.2,2,3.2,4.48v1.07c0,5.81,3.18,5.83,7.09,5.83h70.06c3.94,0,7.09,0,7.09-5.83v-1c0-2.48,1.42-4.48,3.21-4.48H255C263.4,11,270.26,13.52,270.26,30.61Z"/><path class="cls-5" d="M265.16,13.86h-43.5c.46-1.65,1.61-2.82,3-2.82H255C258.87,11,262.45,11.57,265.16,13.86Z"/><path class="cls-6" d="M88.36,338.7V343h15.07v-4.3ZM270.25,71.87,221.3,123.76H198.79V80.9h9V76.56H194.46v47.2H170.05V22.42h-8.67V52.79h-73v8.65h73v62.32H90.65v17H88.36v4.34h2.29v64.39l13,29.79H88.36V248h19.09l10.2,23.29a30.83,30.83,0,0,0,9.79,59h0l21.16,34.6-6.39,6.39H162.7l-25.55-41.72a30.91,30.91,0,0,0,23.63-30,30.39,30.39,0,0,0-2-11l60.44-28.75h51v-8.66H246L195.3,196h74.91V191.7H191.36l-54.57-59.32H225l29.82-31.62,15.4,15.4V104l-9.44-9.45,9.44-10ZM129.93,321.73a22.2,22.2,0,1,1,22.2-22.2h0A22.22,22.22,0,0,1,129.93,321.73Zm104.35-70.55h-17L154.58,281A30.7,30.7,0,0,0,126.09,269L99.3,207.68V132.41H125Zm6.44,120.06h6.14l23.39-23.41V341.7Z"/><g class="cls-7"><rect class="cls-5" x="106.72" y="138.97" width="12.59" height="12.59"/><polygon class="cls-5" points="237.5 187.24 237.5 162.93 228.66 162.93 228.66 152.78 213.1 152.78 213.1 187.24 237.5 187.24"/><polygon class="cls-5" points="194.33 22.42 194.33 46.87 181.15 46.87 181.15 31.98 174.03 31.98 174.03 22.42 194.33 22.42"/><path class="cls-5" d="M270.25,30.61V39h-11V17.83h8.85C269.47,20.73,270.25,24.83,270.25,30.61Z"/><polygon class="cls-5" points="202.2 120.08 202.2 102.01 236.07 102.01 217.78 120.3 202.2 120.08"/><rect class="cls-5" x="174.03" y="103.29" width="17.01" height="17.01"/><rect class="cls-5" x="136.83" y="64.84" width="20.49" height="18.85"/><polygon class="cls-5" points="157.32 87.38 157.32 120.3 132.26 120.3 116.28 104.32 116.28 87.38 157.32 87.38"/><polygon class="cls-5" points="111.75 107.95 124.34 120.55 90.74 120.55 90.74 107.95 111.75 107.95"/><polygon class="cls-5" points="109.95 267.02 88.36 267.02 88.36 251.86 103.84 251.86 109.95 267.02"/><path class="cls-5" d="M104.07,325.45v7.28H88.36V300.35h4.29A46.83,46.83,0,0,0,104.07,325.45Z"/><path class="cls-5" d="M179.33,262.55,166.16,234.1h-16l-27.39,12.71,7.15,15.64H130a37,37,0,0,1,26,10.63Z"/><polygon class="cls-5" points="270.25 227.12 270.25 246.01 249.66 246.01 232.27 227.12 270.25 227.12"/><path class="cls-5" d="M140.86,363.27l-7.54,8H103.69a14.31,14.31,0,0,1-3.26-.38v-9h12.81V342.05l9.66-8.12Z"/><path class="cls-5" d="M201.87,329.93l-26-27.09-10,7.79a37.65,37.65,0,0,1-18.43,22.2l21.74,35.51Z"/><polygon class="cls-5" points="173.56 290.88 219.21 268.31 241.98 268.31 241.98 308.01 206.49 325.54 173.56 290.88"/><path class="cls-5" d="M270.23,355.4c-.31,8-5.88,14.52-13.05,15.66h-2.61Z"/><polygon class="cls-8" points="106.72 156.81 106.72 206.7 120.64 240.76 146.05 228.17 205.29 228.17 138.85 156.81 106.72 156.81"/><polygon class="cls-5" points="251.22 85.45 202.2 85.45 202.2 97.74 239.63 97.74 251.22 85.45"/><polygon class="cls-5" points="97.11 235.2 88.36 235.2 88.36 214.93 97.11 235.2"/><rect class="cls-5" x="248.3" y="268.31" width="21.96" height="25.96"/><rect class="cls-5" x="248.3" y="298.32" width="21.96" height="9.11"/><polygon class="cls-5" points="242.83 362.45 234.04 371.24 176.34 371.24 206.88 333.93 242.83 362.45"/><polygon class="cls-8" points="245.98 358.16 260.81 343.93 242.83 328.27 242.83 314.19 211.12 330.34 245.98 358.16"/><polygon class="cls-5" points="270.25 311.46 270.25 333.54 264.38 339.06 248.3 325.54 248.3 311.46 270.25 311.46"/><path class="cls-5" d="M94,348v19.55a17.13,17.13,0,0,1-5.64-12.85V348Z"/><rect class="cls-5" x="100.42" y="350.01" width="7.64" height="7.64"/><path class="cls-5" d="M156,22.42V47.59H107.54V18.79L116,11h18c1.75,0,3.19,2,3.19,4.48v1.07c0,5.81,3.19,5.83,7.1,5.83Z"/><rect class="cls-5" x="88.36" y="32.13" width="15.08" height="15.44"/><path class="cls-5" d="M103.44,19.51v8.63h-15a35.43,35.43,0,0,1,1.2-8.63Z"/><path class="cls-5" d="M111.42,11l-5.33,5h-15c2.77-4.65,7.38-5,12.61-5Z"/><polygon class="cls-5" points="208.08 201.31 228.66 222.92 248.29 222.92 248.29 201.31 208.08 201.31"/><rect class="cls-5" x="252.38" y="212.98" width="17.88" height="9.94"/><rect class="cls-5" x="252.38" y="201.31" width="10.51" height="9.03"/><rect class="cls-5" x="265.5" y="201.3" width="4.75" height="9.03"/><polygon class="cls-5" points="172.31 234.1 205.29 234.1 205.29 249.87 184.2 259.44 172.31 234.1"/><circle class="cls-8" cx="129.94" cy="299.66" r="14.8"/><rect class="cls-5" x="88.36" y="64.83" width="7.92" height="11.37"/><polygon class="cls-5" points="111.39 103.85 111.39 64.84 99.3 64.84 99.3 96.2 90.75 96.2 90.75 103.85 111.39 103.85"/><rect class="cls-5" x="116.28" y="64.84" width="17.11" height="17.8"/><rect class="cls-5" x="88.36" y="78.39" width="7.92" height="14.37"/><rect class="cls-5" x="241.18" y="162.93" width="25.42" height="24.31"/><polygon class="cls-5" points="148.37 136.75 174.88 165.61 208.17 165.61 208.17 136.75 148.37 136.75"/><polygon class="cls-5" points="178.66 168.94 195.49 187.24 208.08 187.24 208.08 168.94 178.66 168.94"/><rect class="cls-5" x="213.1" y="136.75" width="15.56" height="12.05"/><polygon class="cls-8" points="266.61 148.3 266.61 121.2 254.31 107.96 232.87 130.95 232.87 157.25 258.29 157.25 258.29 148.3 266.61 148.3"/><polygon class="cls-5" points="270.25 91.26 270.25 98.53 266.74 95.1 270.25 91.26"/><polygon class="cls-5" points="270.25 42.98 270.25 65.33 255.49 81.55 236.06 81.55 236.06 42.98 270.25 42.98"/><rect class="cls-8" x="212.64" y="57.11" width="18.91" height="24.44"/><path class="cls-5" d="M255.49,17.83V39H231.55V54H212.64V22.42h1.7c3.64,0,6.6,0,7-4.59Z"/><rect class="cls-5" x="196.63" y="22.42" width="13.57" height="16.1"/><rect class="cls-5" x="174.03" y="49.5" width="36.18" height="17.79"/><rect class="cls-5" x="196.63" y="41.09" width="13.58" height="5.77"/><polygon class="cls-5" points="191.04 99.89 181.15 99.89 174.03 93.14 174.03 73.47 191.04 73.47 191.04 99.89"/></g><g id="u5Zjqx"><path class="cls-9" d="M128.76,18.32l-.29.29c-.06.05-.11.11-.17.17a4,4,0,0,0-5.64,0l-.16-.17-.29-.29h0c.12-.11.24-.22.37-.32a4.26,4.26,0,0,1,.85-.55,4.14,4.14,0,0,1,1.14-.38,3.78,3.78,0,0,0,.56-.08,2.58,2.58,0,0,1,.5,0H126a4.88,4.88,0,0,1,1,.25,4.47,4.47,0,0,1,.7.33,5.35,5.35,0,0,1,.67.47l.31.28Z"/><path class="cls-9" d="M123.59,19.7l-.46-.46a3.21,3.21,0,0,1,1.88-.95,3.33,3.33,0,0,1,2.83.94l-.47.46a2.67,2.67,0,0,0-3.78,0Z"/><path class="cls-9" d="M126.91,20.16l-.46.46a1.38,1.38,0,0,0-1.94,0l-.46-.46a2,2,0,0,1,2.83,0Z"/><path class="cls-9" d="M125.9,21a.39.39,0,1,1-.77-.07.39.39,0,1,1,.77.07Z"/></g><path class="cls-9" d="M100.22,19.2a1.21,1.21,0,1,1,1.21,1.21h0a1.2,1.2,0,0,1-1.2-1.2Z"/><path class="cls-9" d="M104,19.2a1.21,1.21,0,1,1,1.21,1.21h0A1.21,1.21,0,0,1,104,19.2Z"/><path class="cls-9" d="M107.81,19.2A1.21,1.21,0,1,1,109,20.41h0A1.21,1.21,0,0,1,107.81,19.2Z"/><path class="cls-9" d="M111.61,19.2a1.21,1.21,0,1,1,1.21,1.21h0a1.2,1.2,0,0,1-1.2-1.2Z"/><path class="cls-9" d="M115.41,19.2a1.21,1.21,0,1,1,1.21,1.21h0a1.2,1.2,0,0,1-1.2-1.2Z"/><rect class="cls-10" x="247.05" y="17.54" width="9.31" height="4.05"/><rect class="cls-9" x="247.61" y="18.06" width="6.33" height="3"/><rect class="cls-9" x="256.62" y="18.35" width="0.87" height="2.43"/><path class="cls-11" d="M81.13,149.43a17.3,17.3,0,0,0-8.44,2.74c-3.38,2.15-11,13.05-13.53,19.54s2.73,9.29-1,13-8.75,14-.17,19.14c4.85,2.88,13.47-6,19-7.27s20.37,10.16,24.27,6.57,7.8-9.76-3.92-17.57c-3-2,10.31-3.28,4.6-17.74C98,157.88,91,149.15,81.13,149.43Z"/><path class="cls-12" d="M123.28,212c0-.15-2.14-4.56-1.46-4.9s1.9-.29,2,.48A27.37,27.37,0,0,1,123.28,212Z"/><path class="cls-11" d="M91.39,157.13s-10.45-10.53-17.08-.9c0,0-4.1-1.19-5.89,7.23-1.82,8.59,1,13.84,3.92,12.23,1.9-1,3.33,2.28,3.33,2.28Z"/><path class="cls-12" d="M106.93,237.21c9.95-3.66,19.54-20.7,19.54-20.7l-3.14-2.2c-2.61,3.82-14.38,11.17-14.38,11.17-.27-3.22-.66-6.15-1.14-8.8-3.27-18-10.74-23.34-12.74-24.47a4.06,4.06,0,0,0-.51-.26v.39c0,.54.09,1.63.2,3.13C95.56,206.61,98.61,240.28,106.93,237.21Z"/><path class="cls-12" d="M58.8,255.6c4.92-11,7.27-14.15,7.36-17.62.06-2.75-1.29-5.71-3.92-13a27.07,27.07,0,0,1-1.31-5.25c-2.08-14,6.05-29.32,11.08-30.35,2.18-.52,3.74-5.24,3.71-13.39l.63.13L87,178.24s-.24,3.34-.25,6.48c0,2.62-.44,5.37.74,5.41l1.22.12s8.83,12.26,9.57,23.67-7.07,16.37.06,39.17C105.58,276.38,56.09,261.7,58.8,255.6Z"/><path class="cls-13" d="M87,178.24s-.24,3.34-.25,6.48c-5.93-.17-9.06-5.58-10.35-8.57Z"/><path class="cls-11" d="M75.26,175s-3.11-4.91-3.85-9.1c-.54-3,1-14.11,12.15-12.51a15,15,0,0,1,6.29,2.38c2.43,1.64,5.92,5.17,2,14.86l-1,3.28Z"/><path class="cls-12" d="M88.93,181.22s-14,.23-14-8.51S73.06,158.12,82,157.6s10.7,2.82,11.41,5.73S92.58,180.93,88.93,181.22Z"/><path class="cls-11" d="M88.41,157.39s-3.84,10.25-9.74,11.77-8.45-.07-8.45-.07a16.66,16.66,0,0,0,5.46-9.86S85.51,152.51,88.41,157.39Z"/><path class="cls-11" d="M87.46,158.22A12.34,12.34,0,0,1,91,161.84c1.28,1.95,2.55,3.68,2.36,7.54,0,0,2.9-7-.36-10.9C89.57,154.3,87.46,158.22,87.46,158.22Z"/><path class="cls-14" d="M71.22,361.46a138.15,138.15,0,0,0,8.84,24.8l4.63-.32a130.79,130.79,0,0,1-2.14-25.37c.09-10.2,1.35-22.25,5.38-33.75,13.84-39.53,11.61-68.3,11.61-68.3l-26,3.05-1.21.14c-.11,12-.42,28.18-.69,40.87-.24,11.42-.45,20-.45,20C66.16,333.33,68,348.54,71.22,361.46Z"/><path class="cls-12" d="M40.56,267.32l4.21,1.26s13.89-23,15.16-29c.41-2,1.42-5.86,2.6-10.24,2.44-9.07,5.58-20.16,5.58-20.16l1-4.49,3.54-15.32s-6.77.7-10.74,2.35a4.93,4.93,0,0,0-2.66,2c-2.91,6.4-5.81,22.54-7.85,34.06-1.14,6.42-2,11.4-2.46,12.46C47.72,243.11,43.86,259.32,40.56,267.32Z"/><path class="cls-15" d="M56.29,359.22c1.5,16,8.09,26.3,8.09,26.3l2.21,1.6s2.09-11.25,3.57-24.64c1.41-12.72,3.34-26.19,5.53-30.3C84.37,315.88,87,254.35,87,254.35L60.59,253c-2.65,4.46-3.81,11.78-4.09,20.1-.69,21,4.25,48.39,5,52.35h0a1.36,1.36,0,0,1-.18.88C56.06,336.77,55.3,348.67,56.29,359.22Z"/><path class="cls-16" d="M55.49,263.57a6.47,6.47,0,0,0,.17,2.1c.56,1.77,2.49,2.58,7.15,2.09,2.85-.29,4.12-5.07,4.69-9.14,1.71,5.83,4.1,9.1,7.2,9.79,4.52,1,27.32,3.77,28.81-7.06,1.64-11.92-3.27-33-3.54-44.41a55.68,55.68,0,0,0,.82-10.55c-.19-8.1-2.8-12.81-4.63-14.64a34.32,34.32,0,0,0-8.34-1.57c.39.69,1.7,4.68,1.48,6.72-.67,6.33-7.21,5.65-13,1.82-4.24-2.83-6.64-9-6.64-9s-8.47.69-10.46,3.93c-3.79,6.21-6.76,22.71-9.14,34.31a16.89,16.89,0,0,0,12.36,1.81C60.43,243.14,55.8,257.48,55.49,263.57Z"/><path class="cls-12" d="M123.33,214.31c0-.43-.36-6.7.75-8s3.4-3.18,4.11-3.13,3.52,3.78,2.68,6.63-4.4,6.72-4.4,6.72Z"/><rect class="cls-17" x="116.57" y="197.22" width="13.74" height="7.59" rx="0.41" transform="translate(-104.55 261.56) rotate(-73.32)"/><rect class="cls-1" x="117.95" y="197.64" width="13.74" height="7.59" rx="0.72" transform="translate(-103.97 263.18) rotate(-73.32)"/><path class="cls-18" d="M77.4,390.14h2.95c1-.16,1.72-.44,2.74-.58a2.73,2.73,0,0,1,2.39.58H98.05c.32-.45,0-1.5-.28-2.26a1.77,1.77,0,0,0-1.18-1.08,13.47,13.47,0,0,1-6.35-2.9c-1.35-1.22-6.53-4.49-6.53-4.49h0c-.12,0-.66.17-3,2.16-1.22,1-3.29-1.45-3.29-1.45a2.79,2.79,0,0,0-.68.92,3.06,3.06,0,0,0-.27,1.93,12.57,12.57,0,0,1-.9,4.65c-.29.86-.54,1.47-.54,1.47S74.86,389.82,77.4,390.14Z"/><path class="cls-19" d="M76.71,381.06a9.37,9.37,0,0,0,3.18,1.61c1.33.17,3.82-3.23,3.82-3.23h0c-.12,0-.66.17-3,2.16-1.22,1-3.29-1.45-3.29-1.45A2.87,2.87,0,0,0,76.71,381.06Z"/><path class="cls-19" d="M77.4,390.14h2.95c1-.16,1.72-.44,2.74-.58a2.73,2.73,0,0,1,2.39.58H98.05c.32-.45,0-1.5-.28-2.26-.38-.34-.49,1.47-.7,1.76s-10.23.1-10.81-.32a6.09,6.09,0,0,0-4.74-.58c-2.11.5-5.21-.79-6-1.13-.29.86-.54,1.47-.54,1.47S74.86,389.82,77.4,390.14Z"/><path class="cls-20" d="M61.64,390.14h3c1-.16,1.72-.44,2.74-.58a2.73,2.73,0,0,1,2.39.58H82.29c.32-.45,0-1.5-.28-2.26a1.77,1.77,0,0,0-1.18-1.08,13.47,13.47,0,0,1-6.35-2.9c-1.35-1.22-6.53-4.49-6.53-4.49h0c-.12,0-.66.17-3,2.16-1.22,1-3.29-1.45-3.29-1.45A2.79,2.79,0,0,0,61,381a3.13,3.13,0,0,0-.27,1.93,12.57,12.57,0,0,1-.9,4.65c-.29.86-.54,1.47-.54,1.47S59.1,389.82,61.64,390.14Z"/><path class="cls-19" d="M61,381.06a9.37,9.37,0,0,0,3.18,1.61c1.33.17,3.82-3.23,3.82-3.23h0c-.12,0-.66.17-3,2.16-1.22,1-3.29-1.45-3.29-1.45A2.87,2.87,0,0,0,61,381.06Z"/><path class="cls-19" d="M61.64,390.14h3c1-.16,1.72-.44,2.74-.58a2.73,2.73,0,0,1,2.39.58H82.29c.32-.45,0-1.5-.28-2.26-.38-.34-.49,1.47-.7,1.76s-10.23.1-10.81-.32a6.09,6.09,0,0,0-4.74-.58c-2.11.5-5.21-.79-6-1.13-.29.86-.54,1.47-.54,1.47S59.1,389.82,61.64,390.14Z"/><path class="cls-21" d="M55.49,263.57c3.2-5.05,5.08-11.15,7.59-18.14,6.45-18,5.47-27.84,3.91-28.21s-4.52,12.56-4.52,12.56C60.43,243.14,55.8,257.48,55.49,263.57Z"/><path class="cls-16" d="M98.58,219.1a7.25,7.25,0,0,0,1.47-.22l.32-.08a11.46,11.46,0,0,0,3.42-1.72,34.81,34.81,0,0,0,4.51-4.16c-4.17-18.59-12.14-21.17-12.14-21.17S93.62,219.37,98.58,219.1Z"/><path class="cls-12" d="M128.86,203.64s-2.7-4.16-3.36-3.92c-.94.33,2.45,5.6,2.45,5.6s-2.52-3.94-2.91-3.64c-.89.67.53,3.15,1.94,5,0,0-2.52-2.32-2.61-1.9-.29,1.46,2.78,5,2.78,5l1.71-3.91Z"/><path class="cls-12" d="M130.89,207.51c-.13-.51-.79-10.45-1.07-9.5s-1,6.15-1,6.15Z"/><path class="cls-16" d="M69.6,212.21,64.44,231s-10.76.75-14.33-3l6.51-16.72Z"/><path class="cls-21" d="M100.05,218.88l.32-.08a11.46,11.46,0,0,0,3.42-1.72,5.68,5.68,0,0,0-1.27-1.83c-1.26-1.17-2.3-6-2.74-5.57S100.05,218.88,100.05,218.88Z"/><path class="cls-12" d="M40.56,267.32s-5.08,3.38-5.86,4.8-2.59,6.66-2.59,6.66,1.3.2,2.59-2.07,5.57-2.07,7-3.3,3.08-4.83,3.08-4.83Z"/><path class="cls-12" d="M44.22,269.7s-.85,4-1.88,5.14-2.46,3.1-3,2.59.64-4.86.64-4.86Z"/><path class="cls-12" d="M35.41,272.57c-.13.2-4.59,4.94-4.59,4.94s1.62.73,2.07,0S35.41,272.57,35.41,272.57Z"/></g><g id="Route"><polygon class="cls-8" points="187.85 271.22 187.04 269.39 220.67 254.45 241.48 254.45 124.98 127.25 164.85 127.25 164.85 52.38 166.85 52.38 166.85 129.25 129.53 129.25 246.03 256.45 221.09 256.45 187.85 271.22"/><path class="cls-22" d="M172.61,40.58c-.34-3.38-2.67-6.74-6.76-6.74s-6.41,3.36-6.75,6.74c-.51,5.21,3,9.94,6.75,14.25C169.61,50.52,173.13,45.79,172.61,40.58Zm-6.76,3.75a3.7,3.7,0,1,1,3.71-3.7,3.7,3.7,0,0,1-3.71,3.7Z"/><polygon class="cls-23" points="182.84 283.31 182.75 272.94 174.41 266.78 194.83 267.04 182.84 283.31"/><path class="cls-3" d="M304.18,230.38a29.68,29.68,0,0,1-52,19.58H194.5l-8.07,14.93L178.36,250H171V210.8h81.2a29.69,29.69,0,0,1,52,19.59Z"/><path class="cls-24" d="M304.18,230.38a32.82,32.82,0,0,1-1.32,8.86,31.84,31.84,0,0,1-3.92,8.06A29.84,29.84,0,0,1,285,258.24c-.72.23-1.4.57-2.13.73l-2.19.56c-.73.15-1.48.25-2.22.37a15.3,15.3,0,0,1-2.24.21,28.38,28.38,0,0,1-9-.79A29.88,29.88,0,0,1,252,250.09l.15.07-57.69.16.32-.19-8,14.95-.35.66-.36-.66L178,250.18l.39.23h-7.83v-40H171l81.2.22-.2.2h0v-.13a29.82,29.82,0,0,1,15.22-9.21,28.38,28.38,0,0,1,8.95-.79,15.31,15.31,0,0,1,2.24.22c.74.12,1.49.21,2.23.36l2.18.57a20.58,20.58,0,0,1,2.13.73,29.89,29.89,0,0,1,13.95,10.93,31.84,31.84,0,0,1,3.92,8.06A32.82,32.82,0,0,1,304.18,230.38Zm0,0a33.11,33.11,0,0,0-1.36-8.84,32.39,32.39,0,0,0-4-8,29.77,29.77,0,0,0-13.94-10.81c-.71-.23-1.39-.55-2.12-.71l-2.17-.55c-.73-.15-1.47-.23-2.21-.35a15,15,0,0,0-2.22-.2,27.84,27.84,0,0,0-8.86.83,29.49,29.49,0,0,0-15,9.18v-.13h0v.2h-.2l-81.2.23.43-.43,0,19.58V250l-.47-.47h7.64l.13.24,8,15H186l8.11-14.91.1-.18h.21l57.69.16h.09l.06.06a29.6,29.6,0,0,0,15,9.21,28.12,28.12,0,0,0,8.86.82,15.14,15.14,0,0,0,2.23-.19c.74-.12,1.48-.21,2.21-.35l2.17-.55c.73-.16,1.41-.49,2.12-.72a29.72,29.72,0,0,0,13.94-10.81,32.39,32.39,0,0,0,4-8A33.12,33.12,0,0,0,304.18,230.38Z"/><path class="cls-23" d="M192.89,226.63c-.34-3.38-2.67-6.74-6.76-6.74s-6.41,3.36-6.75,6.74c-.51,5.21,3,9.94,6.75,14.25C189.89,236.57,193.41,231.84,192.89,226.63Zm-6.76,3.75a3.7,3.7,0,1,1,3.71-3.7,3.7,3.7,0,0,1-3.71,3.7Z"/><rect class="cls-9" x="200.26" y="222.99" width="40.92" height="1.23"/><rect class="cls-9" x="200.26" y="226.41" width="34.49" height="1.23"/><rect class="cls-9" x="200.26" y="229.83" width="38.9" height="1.23"/><rect class="cls-9" x="200.26" y="233.25" width="23.23" height="1.23"/><path class="cls-23" d="M151.27,361.73l-22-37,1.58-.15a32,32,0,0,0,20.51-12.06c8.1-10.67.92-25.85.85-26l-.44-.92,32.46-14.84.83,1.82-30.63,14c1.53,3.64,6.25,17-1.48,27.15a33.71,33.71,0,0,1-20.39,12.62L153,360.71Z"/><path class="cls-22" d="M158.88,350.08c-.34-3.38-2.67-6.74-6.76-6.74s-6.41,3.36-6.75,6.74c-.51,5.21,3,9.94,6.75,14.25C155.88,360,159.4,355.29,158.88,350.08Zm-6.76,3.75a3.7,3.7,0,1,1,3.71-3.7,3.7,3.7,0,0,1-3.71,3.7Z"/><circle class="cls-25" cx="274.3" cy="229.6" r="30"/><path class="cls-26" d="M254.17,231.21c0-6.46,0-12.93,0-19.4,0-.59,0-.91.81-.91q19.35.06,38.7,0c.63,0,.81.09.81.78q0,19.53,0,39c0,.64-.19.72-.75.72q-19.41,0-38.82,0c-.77,0-.75-.27-.75-.85C254.18,244.15,254.17,237.68,254.17,231.21ZM294,222.64c0-3.35,0-6.71,0-10.06,0-.94-.24-1.19-1.19-1.19-6.19.05-12.38,0-18.58,0a19.76,19.76,0,1,0,19.74,20C294.05,228.48,294,225.56,294,222.64Z"/><path class="cls-27" d="M294,222.64c0,2.92,0,5.84,0,8.75a19.76,19.76,0,1,1-19.74-20c6.2,0,12.39,0,18.58,0,.95,0,1.2.25,1.19,1.19C294,215.93,294,219.29,294,222.64Zm-25.23,8.44q0,6.24,0,12.46c0,1.5.72,2.37,1.93,2.38s1.95-.83,1.95-2.33c0-3.08,0-6.15,0-9.23,0-.94.24-1.21,1.19-1.19,2.52.07,5,.05,7.55,0a1.88,1.88,0,0,0,2-1.83,1.93,1.93,0,0,0-1.82-1.88,7.48,7.48,0,0,0-.95,0c-2.24,0-4.48-.05-6.71,0-1,0-1.27-.31-1.24-1.28.07-2.36.06-4.72,0-7.07,0-.84.22-1.08,1.07-1.07,3.31,0,6.63,0,9.94,0,1.59,0,2.41-.65,2.39-1.87s-.82-1.79-2.33-1.79H271.4c-1.91,0-2.59.67-2.6,2.57Z"/><path class="cls-28" d="M268.8,231.08V219c0-1.9.69-2.57,2.6-2.57h12.35c1.51,0,2.31.63,2.33,1.79s-.8,1.86-2.39,1.87c-3.31,0-6.63,0-9.94,0-.85,0-1.09.23-1.07,1.07.05,2.35.06,4.71,0,7.07,0,1,.21,1.31,1.24,1.28,2.23-.08,4.47,0,6.71,0a7.48,7.48,0,0,1,.95,0,1.93,1.93,0,0,1,1.82,1.88,1.88,1.88,0,0,1-2,1.83c-2.51,0-5,.06-7.55,0-.95,0-1.21.25-1.19,1.19.06,3.08,0,6.15,0,9.23,0,1.5-.73,2.34-1.95,2.33s-1.93-.88-1.93-2.38Q268.8,237.32,268.8,231.08Z"/></g><rect class="cls-3" x="241.34" y="211.01" width="11.71" height="38.7"/></g></g></g></svg>