<svg width="190" height="247" viewBox="0 0 190 247" fill="none" xmlns="http://www.w3.org/2000/svg">
<path d="M46.8442 246.7C72.7155 246.7 93.6884 244.692 93.6884 242.216C93.6884 239.739 72.7155 237.731 46.8442 237.731C20.9729 237.731 0 239.739 0 242.216C0 244.692 20.9729 246.7 46.8442 246.7Z" fill="#CA5F00"/>
<path d="M164.785 0H59.2298C57.814 0.0130629 56.4148 0.30486 55.1118 0.85873C53.8089 1.4126 52.6278 2.21769 51.636 3.22804C50.6442 4.23838 49.8612 5.43419 49.3315 6.74718C48.8019 8.06017 48.5361 9.46462 48.5493 10.8803V228.237C48.5243 231.096 49.6352 233.848 51.6378 235.888C53.6405 237.928 56.3711 239.09 59.2298 239.118H164.785C166.204 239.109 167.606 238.82 168.913 238.269C170.22 237.717 171.405 236.914 172.401 235.904C173.397 234.894 174.185 233.697 174.718 232.383C175.251 231.069 175.52 229.662 175.51 228.244V10.8866C175.523 9.46692 175.255 8.05861 174.723 6.74243C174.191 5.42626 173.404 4.22811 172.408 3.21669C171.411 2.20527 170.225 1.40049 168.917 0.848497C167.609 0.296504 166.205 0.00815964 164.785 0V0ZM168.801 221.523C168.801 227.244 164.517 231.872 159.233 231.872H64.7699C59.4734 231.872 55.1887 227.244 55.1887 221.523V19.1187C55.1887 7.49507 59.4734 6.87048 64.7699 6.87048H83.6949C84.7942 6.87048 85.6936 8.11966 85.6936 9.66864V10.3369C85.6936 13.9658 87.6798 13.9783 90.1219 13.9783H133.881C136.342 13.9783 138.309 13.9783 138.309 10.3369V9.69362C138.309 8.14464 139.196 6.89546 140.314 6.89546H159.239C164.523 6.89546 168.808 8.44444 168.808 19.1187L168.801 221.523Z" fill="#2A2962"/>
<path d="M117.96 9.46877H106.024C105.831 9.4688 105.645 9.39287 105.507 9.25734C105.369 9.12181 105.29 8.93754 105.287 8.74425C105.287 8.54878 105.365 8.36132 105.503 8.2231C105.641 8.08488 105.828 8.00723 106.024 8.00723H117.96C118.151 8.01371 118.332 8.09422 118.465 8.23174C118.598 8.36926 118.672 8.55303 118.672 8.74425C118.669 8.9333 118.593 9.11392 118.461 9.24877C118.328 9.38363 118.149 9.46239 117.96 9.46877Z" fill="white"/>
<path d="M168.801 19.1187V221.523C168.801 227.244 164.517 231.872 159.233 231.872H64.7699C59.4734 231.872 55.1887 227.244 55.1887 221.523V19.1187C55.1887 7.49507 59.4734 6.87048 64.7699 6.87048H83.695C84.7942 6.87048 85.6936 8.11966 85.6936 9.66864V10.337C85.6936 13.9658 87.6798 13.9783 90.122 13.9783H133.881C136.342 13.9783 138.309 13.9783 138.309 10.337V9.69363C138.309 8.14465 139.196 6.89547 140.314 6.89547H159.239C164.517 6.87048 168.801 8.44445 168.801 19.1187Z" fill="white"/>
<path d="M165.616 8.6568H138.446C138.734 7.62623 139.452 6.89546 140.32 6.89546H159.251C161.687 6.87048 163.923 7.22649 165.616 8.6568Z" fill="#DBDBDB"/>
<path d="M55.1887 211.548V214.234H64.6013V211.548H55.1887ZM168.795 44.8892L138.222 77.2991H124.162V50.5292H129.783V47.8185H121.458V77.2991H106.211V14.0033H100.796V32.972H55.2012V38.3747H100.796V77.2991H56.619V87.9171H55.1887V90.6279H56.619V130.845L64.7387 149.452H55.1887V154.898H67.1121L73.4829 169.445C69.5473 171.156 66.2963 174.134 64.246 177.904C62.1958 181.674 61.4638 186.021 62.1663 190.255C62.8689 194.489 64.9656 198.367 68.1237 201.273C71.2818 204.179 75.3202 205.947 79.5977 206.296L92.814 227.906L88.8228 231.897H101.621L85.6624 205.84C89.8664 204.822 93.6066 202.422 96.2831 199.024C98.9595 195.626 100.417 191.427 100.421 187.102C100.434 184.754 100.01 182.425 99.1723 180.231L136.922 162.274H168.776V156.866H153.649L121.982 122.438H168.77V119.734H119.521L85.4376 82.6831H140.533L159.158 62.9336L168.776 72.5522V64.9572L162.88 59.0549L168.776 52.809L168.795 44.8892ZM81.1529 200.949C78.4102 200.949 75.7291 200.136 73.4488 198.612C71.1684 197.088 69.3912 194.922 68.3419 192.388C67.2926 189.854 67.0184 187.066 67.5539 184.376C68.0894 181.686 69.4106 179.215 71.3504 177.276C73.2902 175.337 75.7615 174.017 78.4516 173.483C81.1417 172.949 83.9299 173.224 86.4635 174.275C88.997 175.325 91.1621 177.103 92.685 179.384C94.2078 181.665 95.02 184.347 95.0188 187.089C95.0155 190.765 93.5533 194.29 90.9535 196.888C88.3537 199.487 84.8288 200.947 81.1529 200.949ZM146.329 156.884H135.711L96.549 175.51C94.5142 172.793 91.7948 170.665 88.6686 169.342C85.5423 168.02 82.1212 167.551 78.7545 167.983L62.0217 129.715V82.7018H78.0737L146.329 156.884ZM150.351 231.872H154.186L168.795 217.251V213.422L150.351 231.872Z" fill="#EBEBEB"/>
<g opacity="0.56">
<path opacity="0.56" d="M74.5196 86.7992H66.656V94.6628H74.5196V86.7992Z" fill="#DBDBDB"/>
<path opacity="0.56" d="M148.34 116.948V101.764H142.818V95.4248H133.1V116.948H148.34Z" fill="#DBDBDB"/>
<path opacity="0.56" d="M121.376 14.0033V29.2745H113.144V19.9744H108.697V14.0033H121.376Z" fill="#DBDBDB"/>
<path opacity="0.56" d="M168.795 19.1187V24.359H161.925V11.1365H167.452C168.308 12.9478 168.795 15.5086 168.795 19.1187Z" fill="#DBDBDB"/>
<path opacity="0.56" d="M126.292 75.0007V63.7144H147.447L136.023 75.1381L126.292 75.0007Z" fill="#DBDBDB"/>
<path opacity="0.56" d="M119.321 64.5138H108.697V75.1381H119.321V64.5138Z" fill="#DBDBDB"/>
<path opacity="0.56" d="M98.2602 40.4984H85.4624V52.2719H98.2602V40.4984Z" fill="#DBDBDB"/>
<path opacity="0.56" d="M98.2603 54.5766V75.1381H82.6081L72.6272 65.1572V54.5766H98.2603Z" fill="#DBDBDB"/>
<path opacity="0.56" d="M69.7977 67.4244L77.6612 75.2943H56.675V67.4244H69.7977Z" fill="#DBDBDB"/>
<path opacity="0.56" d="M68.6736 166.778H55.1887V157.309H64.8574L68.6736 166.778Z" fill="#DBDBDB"/>
<path opacity="0.56" d="M65.001 203.273V207.82H55.1887V187.595H57.8682C58.6188 193.418 61.1042 198.881 65.001 203.273Z" fill="#DBDBDB"/>
<path opacity="0.56" d="M112.007 163.986L103.782 146.216H93.7882L76.6807 154.155L81.1465 163.923H81.184C87.2593 163.916 93.0933 166.301 97.4233 170.563L112.007 163.986Z" fill="#DBDBDB"/>
<path opacity="0.56" d="M168.795 141.857V153.655H155.935L145.073 141.857H168.795Z" fill="#DBDBDB"/>
<path opacity="0.56" d="M87.9797 226.895L83.2703 231.891H64.7637C64.078 231.892 63.3946 231.813 62.7275 231.654V226.033H70.7285V213.641L76.7621 208.569L87.9797 226.895Z" fill="#DBDBDB"/>
<path opacity="0.56" d="M126.086 206.071L109.846 189.151L103.601 194.016C102.688 196.971 101.201 199.716 99.2259 202.096C97.2507 204.475 94.8255 206.441 92.0894 207.882L105.668 230.061L126.086 206.071Z" fill="#DBDBDB"/>
<path opacity="0.56" d="M108.404 181.681L136.916 167.584H151.138V192.38L128.971 203.329L108.404 181.681Z" fill="#DBDBDB"/>
<path opacity="0.56" d="M168.783 221.979C168.589 226.976 165.11 231.048 160.632 231.76H159.001L168.783 221.979Z" fill="#DBDBDB"/>
<path opacity="0.56" d="M66.656 97.9419V129.103L75.3503 150.376L91.2211 142.513H128.222L86.7241 97.9419H66.656Z" fill="#A8A8D0"/>
<path opacity="0.56" d="M156.909 53.3712H126.292V61.0474H149.67L156.909 53.3712Z" fill="#DBDBDB"/>
<path opacity="0.56" d="M60.6539 146.903H55.1887V134.243L60.6539 146.903Z" fill="#DBDBDB"/>
<path opacity="0.56" d="M168.801 167.584H155.085V183.798H168.801V167.584Z" fill="#DBDBDB"/>
<path opacity="0.56" d="M168.801 186.327H155.085V192.017H168.801V186.327Z" fill="#DBDBDB"/>
<path opacity="0.56" d="M151.669 226.382L146.179 231.873H110.14L129.215 208.569L151.669 226.382Z" fill="#DBDBDB"/>
<path opacity="0.56" d="M153.636 223.703L162.899 214.815L151.669 205.034V196.24L131.863 206.327L153.636 223.703Z" fill="#A8A8D0"/>
<path opacity="0.56" d="M168.795 194.535V208.325L165.129 211.773L155.085 203.329V194.535H168.795Z" fill="#DBDBDB"/>
<path opacity="0.56" d="M58.7113 217.357V229.568C57.5902 228.555 56.6965 227.316 56.0893 225.933C55.4821 224.549 55.1751 223.053 55.1887 221.542V217.357H58.7113Z" fill="#DBDBDB"/>
<path opacity="0.56" d="M67.4931 218.612H62.7212V223.384H67.4931V218.612Z" fill="#DBDBDB"/>
<path opacity="0.56" d="M97.4358 14.0034V29.7243H67.1682V11.7361L72.4522 6.87054H83.6948C84.7879 6.87054 85.6873 8.11972 85.6873 9.6687V10.337C85.6873 13.9659 87.6797 13.9784 90.1219 13.9784L97.4358 14.0034Z" fill="#DBDBDB"/>
<path opacity="0.56" d="M64.6075 20.0681H55.1887V29.7118H64.6075V20.0681Z" fill="#DBDBDB"/>
<path opacity="0.56" d="M64.6074 12.1858V17.576H55.2385C55.2654 15.7552 55.5171 13.9448 55.988 12.1858H64.6074Z" fill="#DBDBDB"/>
<path opacity="0.56" d="M69.5915 6.87054L66.2624 9.99349H56.8936C58.6237 7.08915 61.503 6.87054 64.7696 6.87054H69.5915Z" fill="#DBDBDB"/>
<path opacity="0.56" d="M129.964 125.736L142.818 139.233H155.079V125.736H129.964Z" fill="#DBDBDB"/>
<path opacity="0.56" d="M168.801 133.025H157.634V139.233H168.801V133.025Z" fill="#DBDBDB"/>
<path opacity="0.56" d="M164.198 125.736H157.634V131.376H164.198V125.736Z" fill="#DBDBDB"/>
<path opacity="0.56" d="M168.795 125.73H165.828V131.37H168.795V125.73Z" fill="#DBDBDB"/>
<path opacity="0.56" d="M107.623 146.216H128.222V156.066L115.049 162.043L107.623 146.216Z" fill="#DBDBDB"/>
<path opacity="0.56" d="M81.1592 196.408C86.2645 196.408 90.4031 192.27 90.4031 187.164C90.4031 182.059 86.2645 177.921 81.1592 177.921C76.0539 177.921 71.9153 182.059 71.9153 187.164C71.9153 192.27 76.0539 196.408 81.1592 196.408Z" fill="#A8A8D0"/>
<path opacity="0.56" d="M60.1355 40.4922H55.1887V47.5937H60.1355V40.4922Z" fill="#DBDBDB"/>
<path opacity="0.56" d="M69.5727 64.8636V40.4984H62.0214V60.0855H56.6812V64.8636H69.5727Z" fill="#DBDBDB"/>
<path opacity="0.56" d="M83.3139 40.4984H72.6272V51.6161H83.3139V40.4984Z" fill="#DBDBDB"/>
<path opacity="0.56" d="M60.1355 48.9616H55.1887V57.937H60.1355V48.9616Z" fill="#DBDBDB"/>
<path opacity="0.56" d="M166.515 101.764H150.638V116.948H166.515V101.764Z" fill="#DBDBDB"/>
<path opacity="0.56" d="M92.6704 85.4126L109.228 103.438H130.021V85.4126H92.6704Z" fill="#DBDBDB"/>
<path opacity="0.56" d="M111.589 105.518L122.101 116.948H129.965V105.518H111.589Z" fill="#DBDBDB"/>
<path opacity="0.56" d="M142.818 85.4126H133.1V92.9389H142.818V85.4126Z" fill="#DBDBDB"/>
<path opacity="0.56" d="M166.522 92.6266V75.7003L158.839 67.4307L145.448 81.79V98.2167H161.325V92.6266H166.522Z" fill="#A8A8D0"/>
<path opacity="0.56" d="M168.795 57.0001V61.5408L166.603 59.3985L168.795 57.0001Z" fill="#DBDBDB"/>
<path opacity="0.56" d="M168.795 26.8449V40.8044L159.576 50.9353H147.44V26.8449H168.795Z" fill="#DBDBDB"/>
<path opacity="0.56" d="M144.623 35.6703H132.812V50.9353H144.623V35.6703Z" fill="#A8A8D0"/>
<path opacity="0.56" d="M159.576 11.1365V24.359H144.623V33.7279H132.812V14.0033H133.874C136.148 14.0033 137.997 14.0033 138.246 11.1365H159.576Z" fill="#DBDBDB"/>
<path opacity="0.56" d="M131.288 14.0033H122.813V24.0592H131.288V14.0033Z" fill="#DBDBDB"/>
<path opacity="0.56" d="M131.295 30.9172H108.697V42.0286H131.295V30.9172Z" fill="#DBDBDB"/>
<path opacity="0.56" d="M131.295 25.6644H122.813V29.2683H131.295V25.6644Z" fill="#DBDBDB"/>
<path opacity="0.56" d="M119.321 62.3903H113.144L108.697 58.1743V45.8886H119.321V62.3903Z" fill="#DBDBDB"/>
</g>
<path d="M80.4221 11.4425L80.241 11.6236C80.2035 11.6548 80.1723 11.6923 80.1348 11.7298C79.6667 11.2645 79.0335 11.0033 78.3735 11.0033C77.7134 11.0033 77.0802 11.2645 76.6121 11.7298L76.5122 11.6236L76.3311 11.4425C76.406 11.3738 76.481 11.3051 76.5622 11.2426C76.7248 11.1074 76.9031 10.9921 77.0931 10.8991C77.3176 10.7858 77.5575 10.7058 77.8051 10.6617C77.9175 10.6617 78.0362 10.6305 78.1549 10.6118C78.2735 10.593 78.4609 10.6118 78.4671 10.6118H78.7107C78.924 10.6411 79.1334 10.6935 79.3353 10.7679C79.4862 10.8251 79.6324 10.894 79.7725 10.974C79.9193 11.0611 80.0592 11.1592 80.191 11.2676L80.3846 11.4425H80.4221Z" fill="#A6A6A6"/>
<path d="M77.1928 12.3044L76.9055 12.0171C77.219 11.6929 77.6327 11.4838 78.0797 11.4238C78.3998 11.3765 78.7264 11.405 79.0334 11.507C79.3404 11.609 79.6192 11.7815 79.8473 12.0109L79.5538 12.2982C79.3999 12.1417 79.2161 12.0179 79.0132 11.9342C78.8104 11.8505 78.5927 11.8086 78.3733 11.811C78.1533 11.8083 77.935 11.8507 77.732 11.9355C77.529 12.0204 77.3455 12.1459 77.1928 12.3044Z" fill="#A6A6A6"/>
<path d="M79.2668 12.5917L78.9795 12.879C78.8181 12.7196 78.6005 12.6302 78.3736 12.6302C78.1468 12.6302 77.9291 12.7196 77.7678 12.879L77.4805 12.5917C77.5968 12.4727 77.7357 12.3782 77.8891 12.3137C78.0425 12.2491 78.2072 12.2159 78.3736 12.2159C78.54 12.2159 78.7048 12.2491 78.8581 12.3137C79.0115 12.3782 79.1505 12.4727 79.2668 12.5917Z" fill="#A6A6A6"/>
<path d="M78.6357 13.1164C78.634 13.1849 78.6057 13.25 78.5567 13.2979C78.5076 13.3457 78.4418 13.3725 78.3733 13.3725C78.3115 13.3628 78.2551 13.3314 78.2144 13.2839C78.1737 13.2364 78.1514 13.1758 78.1514 13.1133C78.1514 13.0507 78.1737 12.9902 78.2144 12.9426C78.2551 12.8951 78.3115 12.8637 78.3733 12.8541C78.4429 12.8541 78.5096 12.8817 78.5588 12.9309C78.608 12.9801 78.6357 13.0468 78.6357 13.1164Z" fill="#A6A6A6"/>
<path d="M62.5965 11.9921C62.5965 11.8424 62.641 11.696 62.7243 11.5716C62.8076 11.4472 62.926 11.3503 63.0645 11.2933C63.2029 11.2363 63.3552 11.2217 63.502 11.2514C63.6487 11.281 63.7834 11.3536 63.8888 11.46C63.9943 11.5663 64.0657 11.7015 64.0942 11.8485C64.1227 11.9956 64.1068 12.1477 64.0486 12.2857C63.9905 12.4237 63.8926 12.5413 63.7675 12.6235C63.6424 12.7058 63.4957 12.7491 63.346 12.7479C63.247 12.7479 63.149 12.7283 63.0577 12.6902C62.9663 12.6522 62.8834 12.5964 62.8138 12.5261C62.7441 12.4559 62.689 12.3725 62.6517 12.2809C62.6144 12.1892 62.5956 12.0911 62.5965 11.9921Z" fill="#A6A6A6"/>
<path d="M64.9573 11.9921C64.9573 11.8426 65.0016 11.6965 65.0846 11.5722C65.1677 11.448 65.2857 11.3511 65.4238 11.2939C65.5619 11.2367 65.7139 11.2217 65.8605 11.2509C66.0071 11.28 66.1417 11.352 66.2474 11.4577C66.3531 11.5634 66.4251 11.6981 66.4543 11.8447C66.4834 11.9913 66.4685 12.1432 66.4113 12.2813C66.3541 12.4194 66.2572 12.5375 66.1329 12.6205C66.0086 12.7035 65.8625 12.7479 65.713 12.7479C65.5126 12.7479 65.3204 12.6682 65.1786 12.5265C65.0369 12.3848 64.9573 12.1926 64.9573 11.9921Z" fill="#A6A6A6"/>
<path d="M67.3369 11.9921C67.3369 11.8421 67.3816 11.6955 67.4652 11.571C67.5488 11.4464 67.6676 11.3496 67.8064 11.2928C67.9452 11.236 68.0978 11.2218 68.2448 11.2519C68.3917 11.2821 68.5263 11.3554 68.6315 11.4623C68.7367 11.5693 68.8077 11.7051 68.8354 11.8525C68.8631 11.9999 68.8464 12.1522 68.7872 12.2901C68.7281 12.428 68.6293 12.5451 68.5034 12.6266C68.3775 12.7082 68.2302 12.7504 68.0802 12.7479C67.8819 12.7446 67.6929 12.6635 67.5538 12.5222C67.4148 12.3808 67.3369 12.1904 67.3369 11.9921Z" fill="#A6A6A6"/>
<path d="M69.7105 11.9921C69.7105 11.8424 69.755 11.696 69.8383 11.5716C69.9216 11.4472 70.04 11.3503 70.1785 11.2933C70.3169 11.2363 70.4692 11.2217 70.616 11.2514C70.7627 11.281 70.8974 11.3536 71.0028 11.46C71.1083 11.5663 71.1798 11.7015 71.2082 11.8485C71.2367 11.9956 71.2208 12.1477 71.1626 12.2857C71.1045 12.4237 71.0066 12.5413 70.8815 12.6235C70.7564 12.7058 70.6097 12.7491 70.46 12.7479C70.361 12.7479 70.2631 12.7283 70.1717 12.6902C70.0804 12.6522 69.9975 12.5964 69.9278 12.5261C69.8581 12.4559 69.803 12.3725 69.7657 12.2809C69.7284 12.1892 69.7097 12.0911 69.7105 11.9921Z" fill="#A6A6A6"/>
<path d="M72.0838 11.9921C72.0838 11.8424 72.1283 11.696 72.2116 11.5716C72.2949 11.4472 72.4133 11.3503 72.5518 11.2933C72.6902 11.2363 72.8425 11.2217 72.9893 11.2514C73.136 11.281 73.2707 11.3536 73.3761 11.46C73.4816 11.5663 73.553 11.7015 73.5815 11.8485C73.61 11.9956 73.5941 12.1477 73.5359 12.2857C73.4778 12.4237 73.3799 12.5413 73.2548 12.6235C73.1297 12.7058 72.983 12.7491 72.8333 12.7479C72.7343 12.7479 72.6363 12.7283 72.545 12.6902C72.4537 12.6522 72.3708 12.5964 72.3011 12.5261C72.2314 12.4559 72.1763 12.3725 72.139 12.2809C72.1017 12.1892 72.0829 12.0911 72.0838 11.9921Z" fill="#A6A6A6"/>
<path d="M160.12 10.9553H154.305V13.4849H160.12V10.9553Z" fill="#A6A6A6" stroke="white" stroke-width="0.5" stroke-miterlimit="10"/>
<path d="M158.608 11.2801H154.655V13.1538H158.608V11.2801Z" fill="#A6A6A6"/>
<path d="M160.825 11.4612H160.282V12.9789H160.825V11.4612Z" fill="#A6A6A6"/>
<path d="M50.6731 93.3323C48.7968 93.4339 46.9797 94.0239 45.4015 95.0437C43.2904 96.3866 38.5311 103.195 36.9508 107.248C35.3706 111.302 38.656 113.051 36.3263 115.368C33.9965 117.685 30.8611 124.143 36.2201 127.322C39.2493 129.121 44.6333 123.575 48.0873 122.782C51.5412 121.988 60.8101 129.128 63.246 126.885C65.6819 124.643 68.1178 120.789 60.7976 115.911C58.9239 114.662 67.2372 113.863 63.6708 104.831C61.2099 98.6101 56.8378 93.1575 50.6731 93.3323Z" fill="#3B0D0D"/>
<path d="M76.9994 132.413C76.9994 132.319 75.6628 129.565 76.0875 129.352C76.5122 129.14 77.2742 129.171 77.3367 129.652C77.3 130.58 77.1872 131.503 76.9994 132.413Z" fill="#F4AC75"/>
<path d="M57.0812 98.1417C57.0812 98.1417 50.5543 91.5648 46.4132 97.5796C46.4132 97.5796 43.8524 96.8363 42.7344 102.095C41.5977 107.461 43.359 110.74 45.1828 109.734C46.3695 109.109 47.2627 111.158 47.2627 111.158L57.0812 98.1417Z" fill="#3B0D0D"/>
<path d="M66.7874 148.159C73.0021 145.873 78.9919 135.23 78.9919 135.23L77.0307 133.856C75.4005 136.242 68.0491 140.832 68.0491 140.832C67.8805 138.821 67.6369 136.991 67.3371 135.336C65.2947 124.093 60.629 120.758 59.3798 120.052C59.2774 119.991 59.171 119.937 59.0613 119.89C59.0613 119.89 59.0613 119.971 59.0613 120.133C59.0613 120.471 59.1175 121.152 59.1862 122.088C59.6859 129.046 61.5909 150.076 66.7874 148.159Z" fill="#F4AC75"/>
<path d="M36.7258 159.645C39.7988 152.774 41.2666 150.807 41.3228 148.64C41.3603 146.922 40.5171 145.073 38.8744 140.52C38.4914 139.457 38.2173 138.359 38.0562 137.241C36.7571 128.497 41.835 118.928 44.9767 118.285C46.3383 117.96 47.3126 115.012 47.2939 109.921L47.6874 110.003L54.3392 111.327C54.3392 111.327 54.1893 113.413 54.1831 115.374C54.1831 117.01 53.9083 118.728 54.6453 118.753L55.4073 118.828C55.4073 118.828 60.9224 126.485 61.3846 133.612C61.8468 140.739 56.9688 143.837 61.4221 158.077C65.9441 172.624 35.0332 163.455 36.7258 159.645Z" fill="#F4AC75"/>
<path d="M54.3391 111.327C54.3391 111.327 54.1892 113.413 54.183 115.374C50.4792 115.268 48.5242 111.889 47.7185 110.021L54.3391 111.327Z" fill="#DC8E53"/>
<path d="M47.0065 109.303C47.0065 109.303 45.064 106.236 44.6018 103.619C44.2646 101.746 45.2264 94.8064 52.1906 95.8058C53.5951 96.0003 54.9378 96.5083 56.1193 97.2923C57.637 98.3166 59.8168 100.521 57.3684 106.574L56.7438 108.622L47.0065 109.303Z" fill="#3B0D0D"/>
<path d="M55.5448 113.188C55.5448 113.188 46.8006 113.332 46.8006 107.873C46.8006 102.414 45.6326 98.7601 51.2164 98.4353C56.8003 98.1105 57.8995 100.197 58.343 102.014C58.7865 103.832 57.8246 113.007 55.5448 113.188Z" fill="#F4AC75"/>
<path d="M55.2199 98.3041C55.2199 98.3041 52.8215 104.706 49.1364 105.655C45.4513 106.605 43.8586 105.612 43.8586 105.612C45.6751 104.016 46.8806 101.839 47.2689 99.4533C47.2689 99.4533 53.4086 95.2561 55.2199 98.3041Z" fill="#3B0D0D"/>
<path d="M54.6265 98.8225C55.5115 99.4157 56.2643 100.185 56.8375 101.084C57.637 102.301 58.4302 103.382 58.3115 105.793C58.3115 105.793 60.1228 101.421 58.0867 98.9849C55.9443 96.3741 54.6265 98.8225 54.6265 98.8225Z" fill="#3B0D0D"/>
<path d="M44.4833 225.764C45.8283 231.091 47.6771 236.277 50.0046 241.254L52.8965 241.054C51.9362 235.828 51.4885 230.521 51.5598 225.208C51.6161 218.837 52.403 211.311 54.9201 204.128C63.5644 179.438 62.1716 161.469 62.1716 161.469L45.9323 163.374L45.1765 163.461C45.1078 170.956 44.9142 181.062 44.7456 188.988C44.5957 196.121 44.4645 201.48 44.4645 201.48C41.3228 208.194 42.4721 217.694 44.4833 225.764Z" fill="#7A4444"/>
<path d="M25.3333 166.965L27.9628 167.752C27.9628 167.752 36.6383 153.387 37.4315 149.639C37.6876 148.39 38.3185 145.979 39.0555 143.243C40.5795 137.578 42.5407 130.651 42.5407 130.651L43.1653 127.847L45.3763 118.278C45.3763 118.278 41.1478 118.716 38.6682 119.746C37.9861 119.957 37.3987 120.399 37.0068 120.995C35.1893 124.993 33.378 135.074 32.1038 142.269C31.3918 146.279 30.8546 149.389 30.5673 150.051C29.8053 151.844 27.3944 161.968 25.3333 166.965Z" fill="#F4AC75"/>
<path d="M35.1581 224.365C36.095 234.358 40.2111 240.792 40.2111 240.792L41.5914 241.791C41.5914 241.791 42.8968 234.764 43.8212 226.401C44.7019 218.456 45.9073 210.043 47.2752 207.476C52.6966 197.295 54.3393 158.864 54.3393 158.864L37.8439 158.021C36.1887 160.807 35.4642 165.379 35.2893 170.575C34.8583 183.692 37.9438 200.799 38.4122 203.272C38.4371 203.463 38.3975 203.657 38.2998 203.822C35.0145 210.343 34.5398 217.775 35.1581 224.365Z" fill="#9B6161"/>
<path d="M34.6584 164.623C34.6207 165.063 34.6566 165.506 34.7645 165.935C35.1143 167.04 36.3198 167.546 39.2304 167.24C41.0104 167.059 41.8037 164.073 42.1597 161.531C43.2277 165.173 44.7205 167.215 46.6567 167.646C49.4799 168.271 63.7205 170.001 64.6511 163.236C65.6755 155.791 62.6087 142.625 62.4401 135.498C62.8196 133.323 62.9911 131.117 62.9522 128.909C62.8336 123.85 61.2034 120.908 60.0604 119.765C58.3712 119.224 56.6215 118.895 54.8513 118.784C55.0949 119.215 55.9131 121.707 55.7757 122.982C55.3572 126.935 51.2724 126.51 47.6561 124.118C45.0078 122.351 43.5088 118.497 43.5088 118.497C43.5088 118.497 38.2185 118.928 36.9756 120.952C34.6084 124.83 32.7534 135.136 31.2668 142.381C33.6018 143.729 36.3635 144.133 38.9868 143.512C37.7438 151.863 34.852 160.819 34.6584 164.623Z" fill="#C4AE53"/>
<path d="M77.0304 133.856C77.0304 133.587 76.8056 129.671 77.4989 128.859C78.1921 128.047 79.6225 126.873 80.0659 126.904C80.5094 126.935 82.2645 129.265 81.7398 131.045C81.2152 132.825 78.9916 135.242 78.9916 135.242L77.0304 133.856Z" fill="#F4AC75"/>
<path d="M75.9844 121.007L73.6682 128.737C73.6276 128.873 73.7045 129.016 73.84 129.056L77.8906 130.27C78.0261 130.31 78.1688 130.234 78.2094 130.098L80.5256 122.368C80.5662 122.232 80.4893 122.09 80.3538 122.049L76.3032 120.835C76.1678 120.795 76.025 120.872 75.9844 121.007Z" fill="#E69D43"/>
<path d="M76.7902 121.452L74.5851 128.811C74.5138 129.049 74.6489 129.3 74.8868 129.371L78.5664 130.474C78.8044 130.545 79.055 130.41 79.1263 130.172L81.3314 122.813C81.4026 122.575 81.2676 122.324 81.0297 122.253L77.3501 121.151C77.1121 121.079 76.8615 121.214 76.7902 121.452Z" fill="#CA5F00"/>
<path d="M48.3433 243.677H50.1859C50.8105 243.577 51.2602 243.402 51.8972 243.315C52.157 243.254 52.4276 243.255 52.6869 243.318C52.9463 243.381 53.1871 243.504 53.39 243.677H61.2411C61.441 243.396 61.2411 242.74 61.0662 242.266C61.0041 242.104 60.9052 241.959 60.7772 241.841C60.6493 241.724 60.4959 241.639 60.3292 241.591C58.8711 241.346 57.5033 240.721 56.3631 239.78C55.5199 239.018 52.2845 236.975 52.2845 236.975C52.2095 236.975 51.8723 237.082 50.4107 238.324C49.6487 238.949 48.3558 237.419 48.3558 237.419C48.1777 237.58 48.0334 237.776 47.9311 237.993C47.745 238.366 47.6858 238.789 47.7625 239.199C47.7623 240.194 47.5715 241.18 47.2003 242.103C47.0192 242.64 46.8631 243.021 46.8631 243.021C46.8631 243.021 46.7569 243.477 48.3433 243.677Z" fill="#23314F"/>
<path d="M47.9124 238.006C48.5031 238.466 49.1777 238.808 49.8985 239.012C50.7293 239.118 52.2845 236.994 52.2845 236.994C52.2095 236.994 51.8722 237.1 50.4107 238.343C49.6487 238.968 48.3558 237.438 48.3558 237.438C48.1716 237.596 48.0209 237.789 47.9124 238.006Z" fill="#FE885C"/>
<path d="M48.3431 243.677H50.1857C50.8102 243.577 51.2599 243.402 51.897 243.315C52.1568 243.254 52.4273 243.255 52.6867 243.318C52.946 243.381 53.1869 243.504 53.3898 243.677H61.2409C61.4408 243.396 61.2409 242.74 61.066 242.266C60.8287 242.053 60.7599 243.184 60.6288 243.365C60.4976 243.546 54.2392 243.427 53.877 243.165C53.4338 242.907 52.9428 242.742 52.4339 242.68C51.925 242.618 51.4087 242.659 50.9164 242.803C49.5985 243.115 47.6623 242.309 47.1689 242.097C46.9878 242.634 46.8316 243.015 46.8316 243.015C46.8316 243.015 46.7567 243.477 48.3431 243.677Z" fill="#FE885C"/>
<path d="M38.4998 243.677H40.3736C40.9982 243.577 41.4479 243.402 42.085 243.315C42.3447 243.254 42.6153 243.255 42.8746 243.318C43.134 243.381 43.3749 243.504 43.5777 243.677H51.3976C51.5975 243.396 51.3976 242.74 51.2227 242.266C51.1606 242.104 51.0617 241.959 50.9337 241.841C50.8058 241.724 50.6524 241.639 50.4857 241.591C49.0276 241.346 47.6598 240.721 46.5195 239.78C45.6764 239.018 42.441 236.975 42.441 236.975C42.366 236.975 42.0287 237.082 40.5672 238.324C39.8052 238.949 38.5123 237.419 38.5123 237.419C38.3342 237.58 38.1899 237.776 38.0876 237.993C37.9045 238.367 37.8455 238.789 37.919 239.199C37.9188 240.194 37.728 241.18 37.3568 242.103C37.1757 242.64 37.0195 243.021 37.0195 243.021C37.0195 243.021 36.9134 243.477 38.4998 243.677Z" fill="#2C3A64"/>
<path d="M38.0999 238.006C38.6906 238.466 39.3652 238.808 40.086 239.012C40.9168 239.118 42.472 236.994 42.472 236.994C42.397 236.994 42.0597 237.1 40.5982 238.343C39.8362 238.968 38.5433 237.438 38.5433 237.438C38.3591 237.596 38.2084 237.789 38.0999 238.006Z" fill="#FE885C"/>
<path d="M38.4996 243.677H40.3734C40.998 243.577 41.4477 243.402 42.0848 243.315C42.3445 243.254 42.6151 243.255 42.8744 243.318C43.1338 243.381 43.3746 243.504 43.5775 243.677H51.3974C51.5972 243.396 51.3974 242.74 51.2225 242.266C50.9851 242.053 50.9164 243.184 50.7853 243.365C50.6541 243.546 44.3957 243.427 44.0335 243.165C43.5903 242.907 43.0993 242.742 42.5904 242.68C42.0815 242.618 41.5652 242.659 41.0729 242.803C39.755 243.115 37.8188 242.309 37.3254 242.097C37.1443 242.634 36.9881 243.015 36.9881 243.015C36.9881 243.015 36.9132 243.477 38.4996 243.677Z" fill="#FE885C"/>
<path d="M34.6584 164.623C36.6571 161.469 37.8314 157.659 39.3991 153.293C43.4277 142.05 42.8156 135.904 41.8412 135.673C40.8669 135.442 39.0181 143.518 39.0181 143.518C37.7439 151.863 34.8521 160.819 34.6584 164.623Z" fill="#998639"/>
<path d="M61.5722 136.847C61.8821 136.833 62.1898 136.787 62.4903 136.71L62.6902 136.66C63.458 136.426 64.1804 136.062 64.8263 135.586C65.8403 134.805 66.783 133.935 67.6432 132.988C65.0387 121.376 60.0607 119.765 60.0607 119.765C60.0607 119.765 58.4742 137.016 61.5722 136.847Z" fill="#C4AE53"/>
<path d="M80.4844 127.191C80.4844 127.191 78.7981 124.593 78.3858 124.743C77.7987 124.949 79.9161 128.241 79.9161 128.241C79.9161 128.241 78.3421 125.78 78.0985 125.967C77.5426 126.386 78.4295 127.935 79.3102 129.09C79.3102 129.09 77.7363 127.641 77.68 127.903C77.4989 128.815 79.4164 131.026 79.4164 131.026L80.4844 128.584V127.191Z" fill="#F4AC75"/>
<path d="M81.7524 129.608C81.6712 129.29 81.2589 123.082 81.0841 123.675C80.9092 124.268 80.4595 127.516 80.4595 127.516L81.7524 129.608Z" fill="#F4AC75"/>
<path d="M43.4716 132.544L40.2487 144.28C40.2487 144.28 33.5281 144.748 31.2983 142.406L35.3644 131.963L43.4716 132.544Z" fill="#C4AE53"/>
<path d="M62.4902 136.71L62.69 136.66C63.4578 136.426 64.1802 136.062 64.8261 135.586C64.6383 135.157 64.3689 134.769 64.0329 134.443C63.2459 133.712 62.5963 130.695 62.3215 130.964C62.0467 131.232 62.4902 136.71 62.4902 136.71Z" fill="#998639"/>
<path d="M25.3334 166.965C25.3334 166.965 22.1605 169.076 21.6733 169.963C21.1862 170.85 20.0557 174.123 20.0557 174.123C20.0557 174.123 20.8676 174.248 21.6733 172.83C22.4791 171.412 25.1523 171.537 26.0455 170.769C26.9386 170.001 27.9692 167.752 27.9692 167.752L25.3334 166.965Z" fill="#F4AC75"/>
<path d="M27.6193 168.452C27.6193 168.452 27.0884 170.95 26.445 171.662C25.8017 172.374 24.9085 173.598 24.5713 173.28C24.234 172.961 24.971 170.244 24.971 170.244L27.6193 168.452Z" fill="#F4AC75"/>
<path d="M22.1166 170.244C22.0354 170.369 19.2498 173.33 19.2498 173.33C19.2498 173.33 20.2616 173.786 20.5427 173.33C20.8237 172.874 22.1166 170.244 22.1166 170.244Z" fill="#F4AC75"/>
<path d="M117.329 169.401L116.823 168.258L137.828 158.927H150.826L78.061 79.479H102.963V32.716H104.213V80.7282H80.9029L153.668 160.176H138.09L117.329 169.401Z" fill="#A8A8D0"/>
<path d="M107.81 25.3459C107.598 23.2348 106.143 21.1361 103.588 21.1361C101.034 21.1361 99.5846 23.2348 99.3722 25.3459C99.0537 28.6 101.246 31.5543 103.588 34.2463C105.937 31.5543 108.135 28.6 107.81 25.3459ZM103.588 27.6881C103.131 27.6868 102.685 27.5503 102.306 27.2956C101.927 27.0409 101.632 26.6795 101.458 26.2572C101.284 25.8348 101.239 25.3703 101.329 24.9224C101.419 24.4746 101.639 24.0634 101.963 23.7408C102.286 23.4182 102.698 23.1987 103.146 23.1101C103.594 23.0214 104.058 23.0675 104.48 23.2426C104.902 23.4177 105.263 23.7139 105.516 24.0938C105.77 24.4737 105.905 24.9203 105.905 25.3771C105.906 25.6813 105.847 25.9827 105.731 26.2639C105.614 26.5451 105.444 26.8004 105.228 27.0153C105.013 27.2301 104.757 27.4002 104.475 27.5156C104.194 27.6311 103.892 27.6897 103.588 27.6881Z" fill="#7474B4"/>
<path d="M114.2 176.952L114.143 170.475L108.934 166.628L121.688 166.79L114.2 176.952Z" fill="#FE4400"/>
<path d="M189.987 143.893C189.99 147.664 188.842 151.346 186.696 154.448C184.551 157.549 181.511 159.923 177.982 161.252C174.453 162.581 170.602 162.802 166.944 161.885C163.286 160.969 159.995 158.958 157.509 156.122H121.483L116.442 165.447L111.402 156.147H106.805V131.663H157.521C160.009 128.83 163.301 126.823 166.958 125.909C170.616 124.994 174.465 125.216 177.993 126.546C181.522 127.875 184.561 130.248 186.706 133.348C188.851 136.448 190 140.129 190 143.899L189.987 143.893Z" fill="white"/>
<path d="M189.988 143.893C189.967 145.767 189.69 147.629 189.163 149.427C188.588 151.212 187.764 152.907 186.715 154.461C184.571 157.567 181.535 159.95 178.008 161.294C177.558 161.438 177.134 161.65 176.678 161.75L175.31 162.1C174.854 162.193 174.385 162.256 173.923 162.331C173.461 162.409 172.993 162.453 172.524 162.462C170.646 162.595 168.759 162.429 166.934 161.969C163.242 161.063 159.915 159.051 157.397 156.204L157.49 156.247L121.458 156.347L121.658 156.229L116.661 165.566L116.442 165.978L116.217 165.566L111.177 156.26L111.421 156.403H106.817H106.53V156.147C106.53 152.075 106.53 147.996 106.53 143.918V131.688V131.426H106.805L157.521 131.564L157.397 131.688V131.645V131.607C159.907 128.768 163.223 126.762 166.903 125.855C168.728 125.395 170.615 125.228 172.493 125.361C172.962 125.373 173.43 125.419 173.892 125.499C174.354 125.574 174.823 125.63 175.285 125.724L176.646 126.08C177.098 126.207 177.542 126.359 177.977 126.536C181.504 127.878 184.542 130.258 186.69 133.362C187.739 134.917 188.563 136.611 189.138 138.397C189.67 140.181 189.956 142.031 189.988 143.893ZM189.988 143.893C189.955 142.023 189.67 140.165 189.138 138.372C188.541 136.598 187.7 134.917 186.64 133.375C184.487 130.296 181.451 127.942 177.933 126.623C177.49 126.479 177.065 126.28 176.609 126.18L175.254 125.836C174.798 125.742 174.335 125.692 173.873 125.617C173.415 125.541 172.951 125.5 172.487 125.493C170.626 125.37 168.758 125.545 166.953 126.011C163.32 126.926 160.052 128.926 157.584 131.745V131.663V131.788H157.459L106.742 131.932L107.011 131.663L107.042 143.893C107.042 147.971 107.042 152.05 107.042 156.122L106.749 155.829H111.352H111.52L111.602 155.979L116.598 165.316H116.155L121.22 156.004L121.283 155.891H121.414L157.447 155.991H157.503L157.54 156.029C160.007 158.852 163.275 160.859 166.909 161.781C168.715 162.244 170.583 162.417 172.443 162.293C172.91 162.288 173.375 162.249 173.836 162.175C174.298 162.1 174.76 162.043 175.216 161.956L176.571 161.613C177.027 161.513 177.452 161.306 177.896 161.163C181.415 159.846 184.451 157.492 186.602 154.411C187.663 152.869 188.504 151.188 189.101 149.414C189.645 147.622 189.943 145.765 189.988 143.893Z" fill="#263238"/>
<path d="M120.477 141.551C120.265 139.44 118.81 137.341 116.255 137.341C113.7 137.341 112.251 139.44 112.039 141.551C111.72 144.805 113.913 147.759 116.255 150.451C118.603 147.759 120.802 144.805 120.477 141.551ZM116.255 143.893C115.798 143.892 115.352 143.755 114.973 143.5C114.594 143.246 114.298 142.884 114.124 142.462C113.95 142.04 113.906 141.575 113.995 141.127C114.085 140.679 114.306 140.268 114.629 139.946C114.953 139.623 115.365 139.404 115.813 139.315C116.261 139.226 116.725 139.272 117.147 139.447C117.569 139.623 117.93 139.919 118.183 140.299C118.437 140.679 118.572 141.125 118.572 141.582C118.573 141.886 118.514 142.188 118.397 142.469C118.281 142.75 118.11 143.005 117.895 143.22C117.68 143.435 117.424 143.605 117.142 143.72C116.861 143.836 116.559 143.895 116.255 143.893Z" fill="#FE4400"/>
<path d="M150.638 139.277H125.08V140.045H150.638V139.277Z" fill="#A6A6A6"/>
<path d="M146.622 141.413H125.08V142.182H146.622V141.413Z" fill="#A6A6A6"/>
<path d="M149.377 143.549H125.08V144.318H149.377V143.549Z" fill="#A6A6A6"/>
<path d="M139.589 145.685H125.08V146.454H139.589V145.685Z" fill="#A6A6A6"/>
<path d="M94.4817 225.933L80.7407 202.823L81.7276 202.729C86.8071 201.958 91.3946 199.261 94.5379 195.197C99.5971 188.532 95.1125 179.051 95.0688 178.957L94.794 178.383L115.068 169.114L115.587 170.251L96.4554 178.995C97.411 181.268 100.359 189.613 95.531 195.952C92.3958 200.052 87.8636 202.858 82.7956 203.835L95.5622 225.296L94.4817 225.933Z" fill="#FE4400"/>
<path d="M99.2348 218.656C99.0224 216.545 97.5671 214.446 95.0125 214.446C92.458 214.446 91.0089 216.545 90.7966 218.656C90.478 221.91 92.6703 224.865 95.0125 227.557C97.361 224.852 99.5596 221.91 99.2348 218.656ZM95.0125 220.998C94.5557 220.997 94.1096 220.861 93.7303 220.606C93.3511 220.351 93.0559 219.99 92.8819 219.567C92.708 219.145 92.6631 218.681 92.753 218.233C92.8429 217.785 93.0634 217.374 93.3869 217.051C93.7103 216.729 94.1221 216.509 94.5702 216.42C95.0183 216.332 95.4827 216.378 95.9046 216.553C96.3265 216.728 96.6871 217.024 96.9407 217.404C97.1944 217.784 97.3298 218.231 97.3298 218.687C97.3306 218.992 97.2712 219.293 97.1549 219.574C97.0387 219.855 96.868 220.111 96.6525 220.326C96.4371 220.54 96.1813 220.711 95.8998 220.826C95.6183 220.941 95.3168 221 95.0125 220.998Z" fill="#7474B4"/>
<path d="M170.582 142.169C170.644 142.169 170.65 142.306 170.838 142.3C170.869 142.3 170.888 142.3 170.913 142.3C170.948 142.315 170.979 142.336 171.006 142.363H171.094C171.153 142.369 171.212 142.356 171.262 142.325L171.35 142.256C171.35 142.256 171.556 142.194 171.587 142.094C171.598 142.053 171.597 142.011 171.586 141.97C171.575 141.93 171.554 141.893 171.525 141.863C171.508 141.846 171.497 141.824 171.494 141.801C171.494 141.801 171.494 141.763 171.494 141.738C171.5 141.716 171.5 141.692 171.494 141.669C171.483 141.648 171.468 141.629 171.45 141.613C171.45 141.582 171.45 141.532 171.45 141.469C171.462 141.445 171.468 141.419 171.468 141.391C171.468 141.364 171.462 141.338 171.45 141.313C171.429 141.289 171.406 141.266 171.381 141.245C171.355 141.214 171.336 141.177 171.325 141.138C171.317 141.105 171.301 141.074 171.28 141.047C171.258 141.02 171.231 140.998 171.2 140.982C171.15 140.982 171.15 140.982 171.1 140.982C171.051 140.95 170.991 140.936 170.933 140.944C170.874 140.952 170.82 140.981 170.782 141.026C170.761 141.039 170.744 141.056 170.731 141.077C170.718 141.097 170.709 141.121 170.707 141.145C170.707 141.145 170.707 141.207 170.707 141.238C170.705 141.257 170.698 141.275 170.689 141.291C170.679 141.308 170.666 141.321 170.65 141.332C170.611 141.366 170.584 141.412 170.575 141.463C170.575 141.507 170.607 141.569 170.575 141.632C170.544 141.694 170.451 141.757 170.432 141.826C170.416 141.857 170.407 141.893 170.406 141.928C170.405 141.964 170.412 142 170.426 142.032C170.44 142.065 170.462 142.094 170.489 142.118C170.516 142.142 170.547 142.159 170.582 142.169Z" fill="#263238"/>
<path d="M171.306 142.288C171.394 142.288 171.525 142.288 171.569 142.194C171.587 142.179 171.602 142.16 171.612 142.138C171.622 142.117 171.626 142.093 171.625 142.069C171.62 142.02 171.598 141.973 171.562 141.938C171.54 141.92 171.521 141.899 171.506 141.875C171.496 141.855 171.491 141.833 171.491 141.81C171.491 141.787 171.496 141.765 171.506 141.744C171.497 141.764 171.493 141.785 171.493 141.807C171.493 141.828 171.497 141.85 171.506 141.869C171.504 141.892 171.504 141.915 171.506 141.938C171.535 141.99 171.552 142.047 171.556 142.107C171.563 142.127 171.563 142.149 171.556 142.169C171.52 142.203 171.474 142.225 171.425 142.232C171.469 142.226 171.512 142.211 171.55 142.188C171.5 142.256 171.381 142.25 171.3 142.263L171.306 142.288ZM171.575 142.175C171.593 142.123 171.593 142.065 171.575 142.013C171.575 141.982 171.537 141.95 171.525 141.919L171.587 141.994C171.607 142.02 171.618 142.052 171.618 142.085C171.618 142.117 171.607 142.149 171.587 142.175H171.575Z" fill="#263238"/>
<path d="M171.381 141.263L171.475 141.351C171.482 141.375 171.482 141.401 171.475 141.426C171.48 141.439 171.483 141.452 171.483 141.466C171.483 141.48 171.48 141.494 171.475 141.507V141.538C171.469 141.556 171.469 141.576 171.475 141.594C171.475 141.626 171.519 141.644 171.531 141.682C171.543 141.719 171.531 141.776 171.531 141.826C171.546 141.785 171.546 141.741 171.531 141.701C171.531 141.663 171.494 141.644 171.475 141.613C171.469 141.593 171.469 141.571 171.475 141.551C171.463 141.567 171.456 141.587 171.456 141.607C171.456 141.627 171.463 141.647 171.475 141.663C171.459 141.644 171.45 141.62 171.45 141.594C171.45 141.569 171.459 141.545 171.475 141.526C171.468 141.503 171.468 141.479 171.475 141.457C171.475 141.457 171.475 141.494 171.475 141.513C171.492 141.492 171.501 141.466 171.501 141.438C171.501 141.411 171.492 141.384 171.475 141.363C171.475 141.326 171.412 141.301 171.381 141.263Z" fill="#263238"/>
<path d="M172.449 147.659C172.001 147.669 171.553 147.655 171.106 147.615L171.2 146.422H171.993L171.899 147.216C171.899 147.216 172.362 147.434 172.405 147.472C172.449 147.509 172.487 147.647 172.449 147.659Z" fill="#AD6359"/>
<path d="M172.449 147.659C172.001 147.669 171.553 147.655 171.106 147.615C171.095 147.522 171.095 147.428 171.106 147.334C171.469 147.405 171.836 147.449 172.206 147.466C172.249 147.466 172.206 147.397 172.174 147.372L172.393 147.484C172.455 147.528 172.487 147.647 172.449 147.659Z" fill="#263238"/>
<path d="M171.924 147.041H171.144C171.144 147.041 171.3 145.167 171.294 145.167L170.731 142.956H171.475C171.475 142.956 172.062 144.973 172.099 145.167C172.118 145.442 171.924 147.041 171.924 147.041Z" fill="#37474F"/>
<path d="M170.894 143.093C170.965 143.331 171.027 143.568 171.081 143.805C171.144 144.043 171.2 144.28 171.262 144.518L171.35 144.874C171.382 144.988 171.405 145.105 171.418 145.223C171.428 145.344 171.428 145.465 171.418 145.586C171.418 145.71 171.418 145.829 171.387 145.954C171.387 146.198 171.344 146.441 171.319 146.679C171.319 146.679 171.319 146.741 171.319 146.772C171.319 146.529 171.35 146.285 171.368 146.042C171.368 145.923 171.369 145.798 171.4 145.679C171.406 145.556 171.406 145.433 171.4 145.311C171.401 145.191 171.386 145.071 171.356 144.955C171.356 144.836 171.294 144.724 171.269 144.605C171.206 144.368 171.15 144.13 171.087 143.893C171.025 143.656 170.956 143.362 170.9 143.093H170.894Z" fill="#263238"/>
<path d="M170.731 142.919C170.731 142.919 170.969 143.849 171.137 144.499L171.45 142.919H170.731Z" fill="#263238"/>
<path d="M171.512 147.665C171.469 147.665 170.219 147.665 170.176 147.622C170.132 147.578 170.226 146.422 170.226 146.422H171.006L170.969 147.216C170.969 147.216 171.431 147.434 171.475 147.472C171.519 147.509 171.556 147.653 171.512 147.665Z" fill="#AD6359"/>
<path d="M171.512 147.665C171.469 147.665 170.219 147.665 170.176 147.622C170.168 147.528 170.168 147.434 170.176 147.341C170.543 147.411 170.914 147.452 171.288 147.466C171.331 147.466 171.288 147.397 171.256 147.372C171.332 147.406 171.405 147.446 171.475 147.49C171.519 147.528 171.556 147.653 171.512 147.665Z" fill="#263238"/>
<path d="M171.45 142.919C171.436 143.13 171.4 143.339 171.344 143.543V143.612C171.267 143.638 171.193 143.674 171.125 143.718C171.125 143.718 171.075 145.073 171.075 145.161C171.075 145.473 170.994 147.035 170.994 147.035H170.213C170.213 147.035 170.294 145.298 170.294 145.161C170.294 145.023 170.344 144.349 170.394 143.737C170.36 143.642 170.339 143.543 170.332 143.443C170.352 143.264 170.394 143.088 170.457 142.919H171.45Z" fill="#37474F"/>
<path d="M171.281 143.393V143.337V143.231C171.281 143.15 171.312 143.068 171.331 142.987C171.331 143.052 171.331 143.116 171.331 143.181C171.331 143.243 171.331 143.312 171.331 143.374C171.331 143.437 171.331 143.443 171.331 143.449C171.331 143.456 171.381 143.449 171.394 143.406V143.318C171.391 143.285 171.391 143.252 171.394 143.218C171.394 143.15 171.394 143.075 171.425 143.006C171.425 143.081 171.425 143.15 171.425 143.225C171.428 143.26 171.428 143.295 171.425 143.331C171.428 143.362 171.428 143.393 171.425 143.424C171.42 143.436 171.412 143.447 171.402 143.456C171.393 143.464 171.381 143.471 171.369 143.474C171.372 143.487 171.372 143.5 171.369 143.512C171.373 143.522 171.373 143.533 171.369 143.543C171.366 143.531 171.366 143.518 171.369 143.506C171.369 143.495 171.369 143.485 171.369 143.474C171.358 143.475 171.348 143.473 171.339 143.467C171.33 143.461 171.323 143.453 171.319 143.443C171.309 143.438 171.3 143.431 171.294 143.423C171.287 143.414 171.283 143.404 171.281 143.393Z" fill="#263238"/>
<path d="M171.044 143.755L171.119 143.706L171.2 143.662C171.256 143.662 171.319 143.624 171.375 143.606C171.319 143.629 171.265 143.656 171.213 143.687L171.131 143.724L171.044 143.762V143.755Z" fill="#263238"/>
<path d="M170.601 143.262C170.64 143.268 170.68 143.268 170.719 143.262H170.769C170.786 143.265 170.803 143.265 170.819 143.262C170.842 143.234 170.859 143.203 170.869 143.168C170.882 143.132 170.893 143.094 170.9 143.056C170.906 143.099 170.906 143.144 170.9 143.187C170.897 143.226 170.879 143.262 170.85 143.287C170.821 143.313 170.783 143.326 170.744 143.325H170.613L170.601 143.262Z" fill="#263238"/>
<path d="M170.325 146.779L170.5 143.737C170.477 143.648 170.458 143.559 170.444 143.468C170.444 143.375 170.538 143.018 170.538 143C170.498 143.152 170.467 143.306 170.444 143.462C170.457 143.553 170.476 143.642 170.5 143.731L170.325 146.772V146.779Z" fill="#263238"/>
<path d="M171.206 141.857C171.528 142.094 171.791 142.401 171.974 142.756C172.018 143.018 171.856 143.093 171.781 143.1C171.581 143.1 171.212 142.3 171.088 141.994C170.963 141.688 171.137 141.782 171.206 141.857Z" fill="#FFC727"/>
<path d="M171.469 142.919L171.419 142.581C171.454 142.545 171.479 142.499 171.49 142.45C171.501 142.4 171.498 142.348 171.481 142.3C171.372 142.11 171.237 141.936 171.081 141.782C171.056 141.765 171.028 141.754 170.999 141.75C170.969 141.745 170.939 141.746 170.91 141.754C170.881 141.762 170.854 141.775 170.831 141.794C170.808 141.813 170.789 141.836 170.775 141.863C170.585 142.185 170.47 142.546 170.438 142.919H171.469Z" fill="#FFC727"/>
<path d="M171.262 142.538H171.1H171.025H170.988H171.025H171.1L171.262 142.494V142.538Z" fill="#263238"/>
<path d="M170.763 141.826C170.413 142.079 170.162 142.445 170.051 142.862C170.051 143.125 170.144 143.1 170.169 143.1C170.332 143.1 170.707 142.344 170.825 142.044C170.944 141.744 170.85 141.782 170.763 141.826Z" fill="#FFC727"/>
<path d="M170.382 142.894L170.438 142.787L170.494 142.687L170.607 142.488C170.638 142.419 170.675 142.35 170.713 142.281C170.75 142.213 170.744 142.213 170.763 142.182L170.813 142.075C170.787 142.148 170.758 142.219 170.725 142.288C170.725 142.356 170.657 142.425 170.619 142.494L170.507 142.694C170.469 142.762 170.426 142.825 170.382 142.894Z" fill="#263238"/>
<path d="M170.775 142.163V142.132C170.779 142.146 170.779 142.161 170.775 142.175V142.163Z" fill="#263238"/>
<path d="M171.862 142.363C171.854 142.246 171.82 142.133 171.762 142.032C171.68 141.961 171.59 141.901 171.494 141.851C171.444 141.851 171.225 141.751 171.181 141.776C171.138 141.801 171.181 141.875 171.294 141.919C171.406 141.963 171.437 141.988 171.462 141.994C171.487 142 171.556 142.094 171.537 142.132C171.523 142.148 171.504 142.16 171.483 142.166C171.462 142.172 171.439 142.171 171.419 142.163C171.381 142.163 171.369 142.063 171.319 142.025C171.269 141.988 171.187 142.025 171.187 142.025C171.187 142.025 171.187 142.057 171.25 142.132C171.312 142.207 171.281 142.3 171.344 142.381C171.375 142.432 171.405 142.484 171.431 142.538L171.862 142.363Z" fill="#AD6359"/>
<path d="M171.762 142.032C171.702 141.939 171.618 141.866 171.519 141.819C171.45 141.819 171.213 141.907 171.225 141.957C171.238 142.007 171.269 142 171.331 141.988C171.394 141.975 171.462 141.944 171.487 141.988C171.512 142.036 171.533 142.086 171.55 142.138L171.762 142.032Z" fill="#AD6359"/>
<path d="M171.225 141.938C171.266 141.889 171.32 141.854 171.381 141.838C171.326 141.859 171.275 141.891 171.231 141.932L171.225 141.938Z" fill="#263238"/>
<path d="M171.762 142.032C171.702 141.939 171.618 141.866 171.519 141.819C171.45 141.819 171.262 141.938 171.269 141.988C171.275 142.038 171.337 142.032 171.4 141.988C171.462 141.944 171.487 141.932 171.512 141.95L171.606 142.069L171.762 142.032Z" fill="#AD6359"/>
<path d="M171.569 142.044H171.537L171.475 142.075C171.444 142.085 171.412 142.085 171.381 142.075H171.35C171.35 142.075 171.35 142.025 171.35 142.007C171.386 141.97 171.428 141.94 171.475 141.919H171.512H171.55C171.575 141.915 171.6 141.915 171.625 141.919C171.599 141.9 171.569 141.887 171.537 141.882H171.5H171.462L171.387 141.925C171.367 141.943 171.348 141.961 171.331 141.982C171.327 141.993 171.324 142.004 171.324 142.016C171.324 142.028 171.327 142.039 171.331 142.05C171.338 142.054 171.346 142.055 171.353 142.055C171.361 142.055 171.368 142.054 171.375 142.05H171.437H171.5L171.537 142.094C171.537 142.094 171.569 142.05 171.569 142.044Z" fill="#263238"/>
<path d="M171.793 142.082C171.793 142.082 171.75 141.932 171.731 141.894C171.712 141.857 171.593 141.726 171.543 141.732C171.494 141.738 171.543 141.857 171.581 141.9C171.601 141.941 171.612 141.986 171.612 142.032L171.793 142.082Z" fill="#AD6359"/>
<path d="M171.537 141.826L171.569 141.869C171.569 141.869 171.569 141.9 171.569 141.919C171.569 141.938 171.569 141.95 171.569 141.969V142.025C171.572 142.009 171.572 141.992 171.569 141.975C171.572 141.957 171.572 141.938 171.569 141.919L171.512 141.826H171.537Z" fill="#263238"/>
<path d="M171.612 142.044C171.618 142.073 171.618 142.103 171.612 142.132V142.175V142.213C171.592 142.234 171.577 142.259 171.568 142.288C171.566 142.315 171.566 142.342 171.568 142.369C171.562 142.34 171.562 142.31 171.568 142.281C171.568 142.25 171.6 142.225 171.612 142.2C171.631 142.177 171.648 142.152 171.662 142.125C171.65 142.096 171.633 142.068 171.612 142.044Z" fill="#263238"/>
<path d="M171.762 143.087C171.637 143.087 171.556 142.862 171.418 142.5C171.418 142.438 171.718 142.044 171.762 142.1C171.862 142.298 171.936 142.508 171.981 142.725C172.012 142.919 171.906 143.106 171.762 143.087Z" fill="#AD6359"/>
<path d="M171.493 142.706L171.893 142.313C171.947 142.466 171.98 142.625 171.993 142.787C171.993 142.931 171.937 143.087 171.768 143.1C171.6 143.112 171.493 142.706 171.493 142.706Z" fill="#FFC727"/>
<path d="M171.618 142.975L171.581 142.906L171.543 142.844C171.543 142.844 171.543 142.8 171.543 142.775C171.542 142.752 171.542 142.729 171.543 142.706C171.551 142.728 171.562 142.749 171.575 142.769L171.606 142.837L171.643 142.906C171.643 142.906 171.612 142.95 171.618 142.975Z" fill="#263238"/>
<path d="M171.581 142.769L171.637 142.712L171.7 142.65L171.831 142.531H171.862L171.906 142.5H171.875H171.843C171.826 142.524 171.805 142.545 171.781 142.563L171.656 142.681L171.581 142.744V142.769Z" fill="#263238"/>
<path d="M170.85 141.782C170.875 141.853 170.906 141.923 170.944 141.988C171.02 142.007 171.099 142.007 171.175 141.988C171.154 141.923 171.127 141.86 171.094 141.801C171.049 141.78 171 141.767 170.95 141.763C170.916 141.759 170.881 141.765 170.85 141.782Z" fill="#AD6359"/>
<path d="M170.869 141.782C170.869 141.782 170.95 141.944 171.062 141.938C171.175 141.932 171.062 141.801 171.062 141.801L171.119 141.626L170.9 141.463C170.9 141.463 170.863 141.782 170.869 141.782Z" fill="#AD6359"/>
<path d="M170.906 141.594C170.937 141.686 171.002 141.762 171.088 141.807L171.144 141.638L170.925 141.476L170.906 141.594Z" fill="#263238"/>
<path d="M171.394 141.388C171.394 141.694 171.219 141.732 171.15 141.732C171.081 141.732 170.894 141.732 170.85 141.432C170.807 141.132 170.956 141.026 171.088 141.02C171.219 141.014 171.387 141.088 171.394 141.388Z" fill="#AD6359"/>
<path d="M171.325 141.363H171.281C171.281 141.363 171.331 141.37 171.325 141.363Z" fill="#263238"/>
<path d="M171.138 141.413C171.106 141.413 171.1 141.476 171.138 141.482C171.175 141.488 171.138 141.42 171.138 141.413Z" fill="#263238"/>
<path d="M171.275 141.438C171.275 141.438 171.275 141.482 171.275 141.495C171.275 141.495 171.269 141.457 171.275 141.438Z" fill="#263238"/>
<path d="M171.3 141.419C171.331 141.419 171.3 141.488 171.3 141.488C171.3 141.488 171.269 141.419 171.3 141.419Z" fill="#263238"/>
<path d="M171.244 141.526V141.576C171.233 141.581 171.221 141.583 171.209 141.583C171.198 141.583 171.186 141.581 171.175 141.576C171.193 141.582 171.213 141.582 171.231 141.576V141.526H171.263C171.263 141.463 171.263 141.401 171.263 141.332C171.272 141.403 171.272 141.474 171.263 141.544L171.244 141.526Z" fill="#263238"/>
<path d="M171.225 141.563C171.215 141.566 171.204 141.566 171.194 141.563C171.194 141.563 171.194 141.563 171.194 141.532C171.202 141.544 171.213 141.555 171.225 141.563Z" fill="#263238"/>
<path d="M170.85 141.432C170.85 141.432 170.975 141.345 170.988 141.182C170.982 141.239 170.971 141.296 170.956 141.351C170.995 141.298 171.017 141.235 171.019 141.17C171.058 141.202 171.103 141.227 171.15 141.245C171.212 141.245 171.25 141.245 171.25 141.245C171.212 141.226 171.176 141.203 171.144 141.176C171.219 141.218 171.299 141.251 171.381 141.276C171.39 141.228 171.386 141.179 171.371 141.134C171.356 141.088 171.329 141.046 171.294 141.014C171.237 140.986 171.173 140.975 171.11 140.981C171.047 140.988 170.988 141.012 170.938 141.051C170.938 141.051 170.881 141.051 170.813 141.138C170.744 141.226 170.813 141.432 170.85 141.432Z" fill="#263238"/>
<path d="M171.025 141.157C171.025 141.218 171.012 141.277 170.988 141.332C171.015 141.278 171.028 141.218 171.025 141.157Z" fill="#263238"/>
<path d="M171.231 141.276C171.147 141.263 171.069 141.221 171.013 141.157C171.038 141.192 171.07 141.221 171.108 141.242C171.146 141.263 171.188 141.274 171.231 141.276Z" fill="#263238"/>
<path d="M170.906 141.432C170.906 141.432 170.844 141.332 170.8 141.351C170.756 141.37 170.8 141.513 170.844 141.538C170.855 141.546 170.868 141.551 170.881 141.551C170.895 141.551 170.908 141.546 170.919 141.538L170.906 141.432Z" fill="#AD6359"/>
<path d="M170.813 141.395C170.844 141.415 170.866 141.446 170.875 141.482C170.875 141.482 170.875 141.482 170.831 141.482C170.831 141.482 170.831 141.482 170.869 141.482C170.868 141.464 170.862 141.446 170.852 141.431C170.842 141.416 170.829 141.403 170.813 141.395Z" fill="#263238"/>
<path d="M171.169 141.938L171 142.456H171.275C171.282 142.46 171.289 142.461 171.297 142.461C171.304 142.461 171.312 142.46 171.319 142.456L171.487 141.932H171.212C171.205 141.929 171.197 141.929 171.19 141.93C171.182 141.931 171.175 141.934 171.169 141.938Z" fill="#37474F"/>
<path d="M171.2 141.938L171.031 142.463H171.3C171.307 142.466 171.314 142.468 171.322 142.468C171.33 142.468 171.337 142.466 171.344 142.463L171.512 141.944H171.238C171.226 141.937 171.213 141.935 171.2 141.938Z" fill="#455A64"/>
<path d="M170.132 143.1C170.251 143.1 170.4 143.025 170.788 142.744C170.838 142.7 170.663 142.25 170.607 142.288L170.232 142.563C170.076 142.712 170.051 143.087 170.132 143.1Z" fill="#AD6359"/>
<path d="M170.469 142.406C170.524 142.325 170.589 142.252 170.663 142.188C170.749 142.124 170.85 142.083 170.956 142.069C171.075 142.069 171.362 142.069 171.369 142.175C171.375 142.281 171.075 142.175 171.075 142.175C171.075 142.175 171.387 142.175 171.375 142.275C171.362 142.375 171.019 142.275 171.019 142.275C171.019 142.275 171.337 142.275 171.306 142.381C171.275 142.488 170.975 142.381 170.975 142.381C170.975 142.381 171.25 142.381 171.231 142.475C171.212 142.569 170.919 142.519 170.919 142.519C170.894 142.581 170.855 142.637 170.805 142.683C170.755 142.728 170.696 142.762 170.632 142.781C170.57 142.659 170.516 142.534 170.469 142.406Z" fill="#AD6359"/>
<path d="M170.969 142.213H171.075H171.188C171.235 142.217 171.282 142.23 171.325 142.25C171.243 142.23 171.159 142.216 171.075 142.206L170.969 142.213Z" fill="#263238"/>
<path d="M170.925 142.45C170.996 142.444 171.067 142.444 171.137 142.45H170.925Z" fill="#263238"/>
<path d="M170.469 142.363L170.619 142.919C170.619 142.919 170.213 143.156 170.12 143.093C170.026 143.031 170.088 142.712 170.195 142.588C170.301 142.463 170.469 142.363 170.469 142.363Z" fill="#FFC727"/>
<path d="M170.475 142.406L170.357 142.506L170.244 142.6L170.194 142.65L170.151 142.712C170.13 142.756 170.116 142.802 170.107 142.85C170.107 142.8 170.12 142.75 170.144 142.706L170.182 142.644L170.238 142.587L170.351 142.494L170.475 142.406Z" fill="#263238"/>
<path d="M170.376 142.5C170.378 142.529 170.378 142.558 170.376 142.588C170.378 142.615 170.378 142.642 170.376 142.669L170.413 142.837C170.416 142.852 170.416 142.867 170.413 142.881C170.416 142.898 170.416 142.914 170.413 142.931C170.416 142.919 170.416 142.906 170.413 142.894C170.413 142.894 170.413 142.862 170.413 142.85V142.769C170.396 142.713 170.381 142.657 170.369 142.6V142.5H170.376Z" fill="#263238"/>
<path d="M170.619 142.919C170.621 142.902 170.621 142.885 170.619 142.869C170.617 142.885 170.617 142.902 170.619 142.919Z" fill="#263238"/>
</svg>
