<svg width="234" height="240" viewBox="0 0 234 240" fill="none" xmlns="http://www.w3.org/2000/svg">
<g clip-path="url(#clip0)">
<path d="M170.998 0H69.6048C66.8599 0.0262772 64.2377 1.14264 62.3148 3.10364C60.3919 5.06465 59.3257 7.70978 59.3505 10.4575V219.415C59.3257 222.163 60.3917 224.809 62.3144 226.771C64.2372 228.733 66.8593 229.851 69.6048 229.878H170.998C173.745 229.851 176.369 228.733 178.295 226.772C180.221 224.81 181.291 222.165 181.271 219.415V10.4575C181.292 7.70756 180.223 5.06153 178.296 3.10071C176.37 1.13988 173.745 0.0246461 170.998 0V0ZM174.851 212.957C174.851 218.457 170.737 222.911 165.66 222.911H74.9246C69.8348 222.911 65.7206 218.463 65.7206 212.957V18.3768C65.7206 7.17904 69.8348 6.63159 74.9246 6.63159H93.0965C94.153 6.63159 95.0168 7.83224 95.0168 9.31906V9.94116C95.0168 13.4311 96.9247 13.4436 99.2677 13.4436H141.292C143.653 13.4436 145.549 13.4436 145.549 9.94116V9.3315C145.549 7.84468 146.4 6.64403 147.475 6.64403H165.641C170.718 6.64403 174.832 8.13085 174.832 18.3893L174.851 212.957Z" fill="#2A2962"/>
<path d="M174.857 18.551V213.125C174.857 218.625 170.743 223.079 165.666 223.079H74.9308C69.8409 223.079 65.7268 218.625 65.7268 213.125V18.551C65.7268 7.35323 69.8409 6.79956 74.9308 6.79956H93.1026C94.1591 6.79956 95.023 8.00021 95.023 9.48703V10.1091C95.023 13.5929 96.9309 13.6053 99.2739 13.6053H141.298C143.659 13.6053 145.555 13.6053 145.555 10.1091V9.48703C145.555 8.00021 146.406 6.79956 147.481 6.79956H165.647C170.743 6.79956 174.857 8.28638 174.857 18.551Z" fill="white"/>
<path d="M174.857 18.551V36.2062H65.7454V18.551C65.7454 7.35323 69.8595 6.79956 74.9494 6.79956H93.1212C94.1777 6.79956 95.0415 8.00021 95.0415 9.49325V10.1154C95.0415 13.6053 96.9495 13.6178 99.2924 13.6178H141.316C143.678 13.6178 145.573 13.6178 145.573 10.1154V9.49325C145.573 8.00021 146.425 6.79956 147.5 6.79956H165.666C170.743 6.79956 174.857 8.2926 174.857 18.551Z" fill="#A8A8D0"/>
<path d="M126.028 9.10131H114.568C114.382 9.10132 114.202 9.02746 114.07 8.8958C113.937 8.76414 113.862 8.58535 113.86 8.39834C113.86 8.21025 113.935 8.02987 114.067 7.89687C114.2 7.76387 114.38 7.68915 114.568 7.68915H126.028C126.216 7.68915 126.396 7.76387 126.529 7.89687C126.662 8.02987 126.737 8.21025 126.737 8.39834C126.735 8.58535 126.66 8.76414 126.527 8.8958C126.394 9.02746 126.215 9.10132 126.028 9.10131V9.10131Z" fill="white"/>
<path d="M89.9765 10.9987L89.8025 11.1729C89.7714 11.204 89.7404 11.2414 89.7031 11.2725C89.4808 11.0496 89.2169 10.8727 88.9263 10.7521C88.6357 10.6314 88.3242 10.5693 88.0096 10.5693C87.695 10.5693 87.3835 10.6314 87.0929 10.7521C86.8023 10.8727 86.5383 11.0496 86.3161 11.2725L86.2228 11.1792L86.0488 11.005L86.2663 10.8059C86.4257 10.6774 86.5987 10.5669 86.7822 10.4762C86.9967 10.3711 87.2246 10.2957 87.4596 10.2522C87.5776 10.2522 87.6895 10.2211 87.8014 10.2025H88.0997H88.3296C88.5419 10.2276 88.7505 10.2777 88.9511 10.3518C89.096 10.4092 89.2371 10.4757 89.3737 10.5508C89.5175 10.6325 89.6529 10.7284 89.7777 10.837L89.9579 10.9987H89.9765Z" fill="white"/>
<path d="M86.8754 11.8199L86.5957 11.5462C86.7806 11.359 87.0008 11.2105 87.2435 11.1091C87.4862 11.0077 87.7466 10.9554 88.0096 10.9554C88.2725 10.9554 88.5329 11.0077 88.7756 11.1091C89.0183 11.2105 89.2385 11.359 89.4234 11.5462L89.1438 11.8261C88.9965 11.6755 88.8204 11.5561 88.6261 11.4749C88.4318 11.3936 88.2232 11.3523 88.0127 11.3533C87.8017 11.3521 87.5926 11.3926 87.3974 11.4727C87.2022 11.5528 87.0248 11.6708 86.8754 11.8199V11.8199Z" fill="white"/>
<path d="M88.8703 12.1061L88.5906 12.3798C88.5157 12.3023 88.4259 12.2408 88.3265 12.1991C88.2272 12.1574 88.1204 12.1364 88.0127 12.1372C87.9041 12.1369 87.7965 12.1582 87.6963 12.1999C87.596 12.2415 87.505 12.3027 87.4285 12.3798L87.155 12.1061C87.2672 11.9925 87.4007 11.9023 87.5479 11.8407C87.6952 11.7792 87.8531 11.7475 88.0127 11.7475C88.1722 11.7475 88.3302 11.7792 88.4774 11.8407C88.6246 11.9023 88.7581 11.9925 88.8703 12.1061V12.1061Z" fill="white"/>
<path d="M88.2489 12.6286C88.2489 12.6778 88.2343 12.726 88.207 12.7669C88.1797 12.8078 88.1408 12.8397 88.0954 12.8585C88.05 12.8774 88 12.8823 87.9518 12.8727C87.9036 12.8631 87.8593 12.8394 87.8245 12.8046C87.7897 12.7698 87.7661 12.7254 87.7565 12.6772C87.7469 12.6289 87.7518 12.5789 87.7706 12.5334C87.7894 12.4879 87.8213 12.4491 87.8622 12.4217C87.9031 12.3944 87.9511 12.3798 88.0003 12.3798C88.0662 12.3798 88.1295 12.406 88.1761 12.4527C88.2227 12.4993 88.2489 12.5626 88.2489 12.6286Z" fill="white"/>
<path d="M72.8552 11.5275C72.8552 11.3836 72.8979 11.2428 72.9778 11.1231C73.0577 11.0034 73.1712 10.9101 73.3041 10.8551C73.437 10.8 73.5832 10.7856 73.7242 10.8136C73.8652 10.8417 73.9948 10.911 74.0965 11.0128C74.1982 11.1146 74.2674 11.2443 74.2955 11.3855C74.3235 11.5267 74.3092 11.673 74.2541 11.806C74.1991 11.939 74.1059 12.0527 73.9863 12.1327C73.8667 12.2127 73.7262 12.2554 73.5823 12.2554C73.4869 12.2554 73.3923 12.2365 73.3041 12.2C73.2159 12.1634 73.1357 12.1098 73.0682 12.0422C73.0007 11.9746 72.9471 11.8944 72.9106 11.806C72.874 11.7177 72.8552 11.6231 72.8552 11.5275V11.5275Z" fill="white"/>
<path d="M75.136 11.5275C75.136 11.3833 75.1788 11.2423 75.259 11.1225C75.3392 11.0027 75.4531 10.9094 75.5863 10.8545C75.7196 10.7996 75.8661 10.7855 76.0073 10.8141C76.1485 10.8427 76.278 10.9127 76.3795 11.0151C76.4809 11.1175 76.5497 11.2478 76.577 11.3894C76.6044 11.531 76.5891 11.6775 76.5331 11.8104C76.4771 11.9433 76.383 12.0565 76.2626 12.1357C76.1422 12.215 76.001 12.2566 75.8569 12.2554C75.7617 12.2554 75.6675 12.2365 75.5796 12.1998C75.4917 12.1632 75.412 12.1095 75.3449 12.0418C75.2779 11.9741 75.225 11.8939 75.1891 11.8056C75.1532 11.7173 75.1352 11.6228 75.136 11.5275V11.5275Z" fill="white"/>
<path d="M77.4104 11.5275C77.4104 11.3836 77.453 11.2428 77.5329 11.1231C77.6128 11.0034 77.7264 10.9101 77.8593 10.8551C77.9921 10.8 78.1383 10.7856 78.2794 10.8136C78.4204 10.8417 78.55 10.911 78.6517 11.0128C78.7534 11.1146 78.8226 11.2443 78.8507 11.3855C78.8787 11.5267 78.8643 11.673 78.8093 11.806C78.7543 11.939 78.6611 12.0527 78.5415 12.1327C78.4219 12.2127 78.2813 12.2554 78.1375 12.2554C78.042 12.2554 77.9475 12.2365 77.8593 12.2C77.771 12.1634 77.6909 12.1098 77.6234 12.0422C77.5559 11.9746 77.5023 11.8944 77.4658 11.806C77.4292 11.7177 77.4104 11.6231 77.4104 11.5275V11.5275Z" fill="white"/>
<path d="M79.6912 11.5275C79.6912 11.3833 79.734 11.2423 79.8142 11.1225C79.8944 11.0027 80.0083 10.9094 80.1415 10.8545C80.2747 10.7996 80.4213 10.7855 80.5625 10.8141C80.7037 10.8427 80.8332 10.9127 80.9347 11.0151C81.0361 11.1175 81.1049 11.2478 81.1322 11.3894C81.1596 11.531 81.1443 11.6775 81.0883 11.8104C81.0323 11.9433 80.9381 12.0565 80.8178 12.1357C80.6974 12.215 80.5562 12.2566 80.4121 12.2554C80.3169 12.2554 80.2227 12.2365 80.1348 12.1998C80.0469 12.1632 79.9672 12.1095 79.9001 12.0418C79.8331 11.9741 79.7801 11.8939 79.7443 11.8056C79.7084 11.7173 79.6904 11.6228 79.6912 11.5275V11.5275Z" fill="white"/>
<path d="M81.9658 11.5275C81.9658 11.3836 82.0085 11.2428 82.0884 11.1231C82.1683 11.0034 82.2818 10.9101 82.4147 10.8551C82.5476 10.8 82.6938 10.7856 82.8348 10.8136C82.9759 10.8417 83.1054 10.911 83.2071 11.0128C83.3088 11.1146 83.3781 11.2443 83.4061 11.3855C83.4342 11.5267 83.4198 11.673 83.3648 11.806C83.3097 11.939 83.2165 12.0527 83.0969 12.1327C82.9774 12.2127 82.8368 12.2554 82.693 12.2554C82.5973 12.2562 82.5023 12.2379 82.4137 12.2017C82.3251 12.1654 82.2447 12.1118 82.177 12.044C82.1093 11.9763 82.0558 11.8957 82.0195 11.807C81.9833 11.7183 81.965 11.6233 81.9658 11.5275Z" fill="white"/>
<path d="M166.666 13.1076H160.781V10.3828H166.666V13.1076ZM161.073 12.809H166.362V10.6815H161.073V12.809Z" fill="white"/>
<path d="M165.069 10.8432H161.272V12.6473H165.069V10.8432Z" fill="white"/>
<path d="M167.195 11.0174H166.673V12.4793H167.195V11.0174Z" fill="white"/>
<path d="M76.0807 29.4502L72.8552 26.4268L76.0807 23.4034L76.5841 23.9384L73.9242 26.4268L76.5841 28.9152L76.0807 29.4502Z" fill="white"/>
<path d="M161.297 25.9229C161.361 25.9627 161.413 26.0189 161.448 26.0856C161.483 26.1523 161.499 26.2271 161.496 26.3024C161.492 26.3438 161.492 26.3854 161.496 26.4268C161.492 26.4703 161.492 26.514 161.496 26.5575C161.499 26.6319 161.483 26.7059 161.448 26.7717C161.413 26.8375 161.361 26.8924 161.297 26.9307L160.843 27.192L161.694 28.6726L162.148 28.4113C162.213 28.373 162.287 28.3528 162.363 28.3528C162.438 28.3528 162.512 28.373 162.577 28.4113C162.646 28.4607 162.719 28.5044 162.794 28.542C162.862 28.5748 162.919 28.6262 162.958 28.69C162.998 28.7539 163.019 28.8276 163.018 28.9028V29.4253H164.727V28.9028C164.727 28.8276 164.747 28.7539 164.787 28.69C164.827 28.6262 164.883 28.5748 164.951 28.542C165.027 28.5044 165.1 28.4607 165.168 28.4113C165.233 28.373 165.307 28.3528 165.383 28.3528C165.458 28.3528 165.532 28.373 165.597 28.4113L166.051 28.6726L166.902 27.192L166.449 26.9307C166.384 26.8919 166.331 26.836 166.296 26.769C166.261 26.702 166.245 26.6267 166.25 26.5512V26.3024C166.245 26.2269 166.261 26.1516 166.296 26.0846C166.331 26.0177 166.384 25.9617 166.449 25.9229L166.902 25.6616L166.051 24.1873L165.597 24.4485C165.533 24.4881 165.459 24.5091 165.383 24.5091C165.307 24.5091 165.233 24.4881 165.168 24.4485L164.951 24.3241C164.884 24.2901 164.828 24.2385 164.789 24.1749C164.749 24.1113 164.728 24.0381 164.727 23.9633V23.4407H163.018V23.9633C163.017 24.0381 162.996 24.1113 162.957 24.1749C162.917 24.2385 162.861 24.2901 162.794 24.3241L162.571 24.4485C162.507 24.4883 162.434 24.5094 162.359 24.5094C162.285 24.5094 162.211 24.4883 162.148 24.4485L161.694 24.1873L160.843 25.6616L161.297 25.9229ZM163.87 25.0271C164.146 25.0271 164.416 25.1092 164.646 25.263C164.876 25.4168 165.056 25.6354 165.161 25.8912C165.267 26.1469 165.295 26.4284 165.241 26.6999C165.187 26.9714 165.054 27.2208 164.858 27.4166C164.663 27.6123 164.414 27.7456 164.142 27.7996C163.871 27.8537 163.59 27.8259 163.334 27.72C163.079 27.614 162.861 27.4346 162.707 27.2045C162.553 26.9743 162.471 26.7037 162.471 26.4268C162.471 26.0556 162.619 25.6996 162.881 25.4371C163.143 25.1746 163.499 25.0271 163.87 25.0271V25.0271Z" stroke="white" stroke-width="0.75" stroke-miterlimit="10"/>
<path d="M165.386 175.843H71.4878V96.3322L118.428 66.4963L165.386 96.3322V175.843Z" fill="#A8A8D0"/>
<path opacity="0.2" d="M165.386 175.843H71.4878V96.3322L118.428 66.4963L165.386 96.3322V175.843Z" fill="#A8A8D0"/>
<path d="M160.091 62.7139H76.7827V169.765H160.091V62.7139Z" fill="white"/>
<path d="M160.091 169.759L76.8139 169.908H76.671V169.759L76.584 62.7139V62.4775H76.8139L160.122 62.546H160.29V62.7139L160.091 169.759ZM160.091 169.759L159.93 62.7139L160.091 62.8757L76.8139 62.9441L77.0501 62.7139L76.9569 169.759L76.8139 169.616L160.091 169.759Z" fill="#DBDBDB"/>
<path d="M156.741 128.775C156.822 131.885 156.891 135.033 156.922 138.162C156.953 141.291 157.015 144.421 157.015 147.543L157.052 156.931L157.021 166.312V166.592H156.741C153.472 166.592 150.203 166.536 146.935 166.499C143.666 166.462 140.397 166.393 137.128 166.312C140.397 166.231 143.666 166.163 146.935 166.132C150.203 166.101 153.472 166.039 156.741 166.039L156.468 166.312L156.437 156.931L156.474 147.543C156.474 144.433 156.536 141.322 156.567 138.162C156.598 135.002 156.667 131.885 156.741 128.775Z" fill="#FE662E"/>
<path d="M80.1263 103.71C80.0517 100.6 79.9834 97.4582 79.9523 94.3291C79.9212 91.1999 79.8591 88.0707 79.8591 84.9416L79.8218 75.5603L79.8529 66.1728V65.8991H80.1263C83.3952 65.8991 86.6642 65.9551 89.9331 65.9924C93.2021 66.0297 96.471 66.0919 99.74 66.1728C96.471 66.2537 93.2021 66.3283 89.9331 66.3594C86.6642 66.3905 83.3952 66.4527 80.1263 66.4527L80.406 66.1728L80.437 75.5603L80.3997 84.9416C80.3997 88.0521 80.3376 91.1999 80.3065 94.3291C80.2755 97.4582 80.2071 100.587 80.1263 103.71Z" fill="#FE662E"/>
<path d="M118.484 66.1728L128.048 66.0235L137.613 65.9364C140.801 65.8991 143.989 65.9364 147.177 65.8929H156.741H157.052V66.2039V75.5914L157.009 84.9727C156.959 91.231 156.897 97.4894 156.766 103.741C156.642 97.4894 156.58 91.231 156.53 84.9727L156.487 75.5914V66.2039L156.791 66.515H147.227C144.039 66.515 140.85 66.515 137.662 66.4714L128.023 66.3284L118.484 66.1728Z" fill="#FE662E"/>
<path d="M118.384 166.294C112.008 166.414 105.632 166.491 99.2553 166.524C92.879 166.586 86.5027 166.574 80.1264 166.598H79.8281V166.294V155.357L79.8654 144.414L79.9586 133.478L80.114 122.535L80.2756 133.478L80.3688 144.414L80.4061 155.357V166.294L80.1016 165.995C86.4779 165.995 92.8542 165.995 99.2305 166.07C105.607 166.144 112.008 166.175 118.384 166.294Z" fill="#FE662E"/>
<path d="M148.364 95.6479H88.771V96.2016H148.364V95.6479Z" fill="#EBEBEB"/>
<path d="M148.364 99.2374H88.771V99.7911H148.364V99.2374Z" fill="#EBEBEB"/>
<path d="M148.364 102.821H88.771V103.374H148.364V102.821Z" fill="#EBEBEB"/>
<path d="M148.364 106.41H88.771V106.964H148.364V106.41Z" fill="#EBEBEB"/>
<path d="M148.364 109.994H88.771V110.547H148.364V109.994Z" fill="#EBEBEB"/>
<path d="M139.471 113.577H97.6643V114.131H139.471V113.577Z" fill="#EBEBEB"/>
<path d="M148.364 120.75H88.771V121.303H148.364V120.75Z" fill="#EBEBEB"/>
<path d="M148.364 124.339H88.771V124.893H148.364V124.339Z" fill="#EBEBEB"/>
<path d="M148.364 127.922H88.771V128.476H148.364V127.922Z" fill="#EBEBEB"/>
<path d="M148.364 131.512H88.771V132.066H148.364V131.512Z" fill="#EBEBEB"/>
<path d="M148.364 135.095H88.771V135.649H148.364V135.095Z" fill="#EBEBEB"/>
<path d="M165.386 116.233V175.843H71.4692V116.233C75.5026 118.523 79.4676 120.924 83.4574 123.263C87.4473 125.602 91.4061 128.034 95.3586 130.467C99.7586 133.15 104.152 135.869 108.54 138.623L108.683 138.536C108.639 138.567 108.608 138.61 108.571 138.635C111.852 140.68 115.138 142.737 118.428 144.806C121.697 142.747 124.984 140.669 128.266 138.635C128.228 138.635 128.197 138.567 128.154 138.536C128.199 138.565 128.247 138.59 128.297 138.61C132.684 135.873 137.066 133.148 141.478 130.448C145.431 128.034 149.394 125.639 153.367 123.263C157.394 120.924 161.353 118.523 165.386 116.233Z" fill="#A8A8D0"/>
<g opacity="0.2">
<path opacity="0.2" d="M165.386 116.233C161.595 118.902 157.729 121.459 153.907 124.084C150.085 126.709 146.195 129.223 142.317 131.761C138.273 134.415 134.217 137.047 130.149 139.655L129.782 139.91L118.968 146.816L118.428 147.139L117.906 146.816C114.301 144.514 110.701 142.208 107.104 139.898C106.98 139.829 106.856 139.742 106.725 139.662C102.648 137.049 98.5881 134.413 94.5444 131.755C90.6789 129.229 86.8133 126.66 82.9664 124.09C79.1195 121.521 75.2788 118.908 71.4878 116.239C75.5211 118.529 79.4861 120.93 83.476 123.269C87.4658 125.608 91.4246 128.041 95.3772 130.473C99.7772 133.156 104.171 135.875 108.559 138.629C111.84 140.673 115.125 142.731 118.415 144.8C121.684 142.741 124.972 140.663 128.253 138.629C128.253 138.629 128.253 138.629 128.284 138.629C132.672 135.892 137.053 133.167 141.466 130.467C145.418 128.053 149.381 125.658 153.354 123.282C157.394 120.924 161.353 118.523 165.386 116.233Z" fill="black"/>
<path opacity="0.2" d="M108.701 138.536C108.658 138.567 108.627 138.61 108.59 138.635C108.092 139.058 107.601 139.481 107.104 139.879C104.755 141.87 102.344 143.774 99.889 145.627C96.8997 147.911 93.8358 150.1 90.7658 152.272C87.6957 154.443 84.551 156.52 81.4002 158.555C78.2493 160.589 75.0301 162.58 71.7114 164.396C74.564 161.908 77.5222 159.569 80.5115 157.298C83.5008 155.027 86.577 152.825 89.6347 150.648C92.6923 148.47 95.8494 146.386 99.0127 144.352C101.536 142.735 104.103 141.136 106.725 139.643C107.347 139.288 107.968 138.946 108.59 138.61L108.701 138.536Z" fill="black"/>
<path opacity="0.2" d="M165.162 164.409C161.85 162.592 158.631 160.601 155.474 158.567C152.317 156.533 149.197 154.418 146.096 152.284C142.994 150.15 139.962 147.929 136.972 145.64C134.536 143.774 132.125 141.907 129.782 139.91L128.284 138.635C128.247 138.635 128.216 138.567 128.172 138.536C128.217 138.565 128.265 138.59 128.315 138.61C128.937 138.959 129.558 139.301 130.149 139.655C132.771 141.148 135.326 142.766 137.861 144.365C141.037 146.399 144.138 148.52 147.227 150.66C150.315 152.8 153.361 155.015 156.35 157.311C159.339 159.606 162.31 161.914 165.162 164.409Z" fill="black"/>
</g>
<path d="M105.003 86.1958C106.215 86.1958 107.319 85.6798 108.111 84.8518L107.055 83.8678C106.539 84.4558 105.807 84.8278 105.003 84.8278C103.479 84.8278 102.195 83.5078 102.195 81.9238C102.195 80.3518 103.479 79.0318 105.003 79.0318C105.795 79.0318 106.539 79.4038 107.043 79.9918L108.111 78.9958C107.319 78.1798 106.215 77.6638 105.003 77.6638C102.651 77.6638 100.671 79.6078 100.671 81.9238C100.671 84.2398 102.651 86.1958 105.003 86.1958ZM113.113 86.1958C115.453 86.1958 117.433 84.2398 117.433 81.9238C117.433 79.6078 115.453 77.6638 113.113 77.6638C110.761 77.6638 108.781 79.6078 108.781 81.9238C108.781 84.2398 110.761 86.1958 113.113 86.1958ZM113.113 84.8278C111.589 84.8278 110.305 83.5078 110.305 81.9238C110.305 80.3518 111.589 79.0318 113.113 79.0318C114.625 79.0318 115.897 80.3518 115.897 81.9238C115.897 83.5078 114.625 84.8278 113.113 84.8278ZM118.916 86.0518H120.416V80.2558L124.772 86.0518H126.26V77.8078H124.772V83.6038L120.416 77.8078H118.916V86.0518ZM107.259 89.8078L104.643 96.0598L102.027 89.8078H100.371L103.815 98.0518H105.483L108.927 89.8078H107.259ZM110.043 98.0518H111.531V89.8078H110.043V98.0518ZM115.473 98.0518H116.961V91.1758H119.601V89.8078H112.833V91.1758H115.473V98.0518ZM127.086 91.1758V89.8078H120.882V98.0518H127.086V96.6838H122.382V94.5358H126.642V93.1678H122.382V91.1758H127.086Z" fill="#FE662E"/>
<path d="M160.041 59.056C159.837 58.6091 159.73 58.1231 159.73 57.6314C159.73 57.1396 159.837 56.6537 160.041 56.2068C160.259 56.6492 160.366 57.1383 160.352 57.6314C160.363 58.1242 160.256 58.6125 160.041 59.056Z" fill="#263238"/>
<path d="M157.475 60.1633C157.014 59.9903 156.596 59.7202 156.249 59.3714C155.901 59.0226 155.633 58.6032 155.461 58.1415C155.922 58.3146 156.34 58.5847 156.687 58.9335C157.035 59.2823 157.303 59.7017 157.475 60.1633V60.1633Z" fill="#263238"/>
<path d="M156.443 62.7637C155.998 62.9776 155.508 63.0821 155.014 63.0685C154.521 63.0816 154.033 62.9749 153.591 62.7575C154.035 62.5459 154.522 62.4395 155.014 62.4464C155.509 62.4379 155.998 62.5466 156.443 62.7637Z" fill="#263238"/>
<path d="M157.543 65.3205C157.371 65.7805 157.102 66.198 156.755 66.5447C156.408 66.8914 155.99 67.1592 155.53 67.3299C155.701 66.8699 155.97 66.4524 156.318 66.1057C156.665 65.759 157.083 65.4912 157.543 65.3205Z" fill="#263238"/>
<path d="M160.141 66.3657C160.346 66.8126 160.452 67.2985 160.452 67.7903C160.452 68.282 160.346 68.768 160.141 69.2149C159.923 68.7724 159.816 68.2834 159.83 67.7903C159.823 67.2978 159.929 66.8102 160.141 66.3657V66.3657Z" fill="#263238"/>
<path d="M162.708 65.2583C163.178 65.4199 163.604 65.6907 163.95 66.0484C164.309 66.3938 164.58 66.8206 164.74 67.2926C164.279 67.1195 163.861 66.8494 163.514 66.5006C163.166 66.1518 162.898 65.7324 162.726 65.2708L162.708 65.2583Z" fill="#263238"/>
<path d="M163.745 62.6642C164.187 62.4456 164.676 62.3388 165.169 62.3531C165.661 62.34 166.149 62.4468 166.592 62.6642C166.149 62.8793 165.661 62.9859 165.169 62.9752C164.676 62.9835 164.189 62.8771 163.745 62.6642V62.6642Z" fill="#263238"/>
<path d="M162.639 60.0887C162.799 59.6166 163.07 59.1899 163.428 58.8445C163.774 58.4875 164.2 58.2187 164.671 58.0606C164.499 58.5206 164.231 58.9381 163.883 59.2848C163.536 59.6316 163.118 59.8994 162.658 60.07L162.639 60.0887Z" fill="#263238"/>
<path d="M84.0914 120.252C83.8786 119.808 83.7743 119.32 83.7868 118.827C83.773 118.334 83.8797 117.845 84.0976 117.403C84.3096 117.847 84.416 118.335 84.4083 118.827C84.417 119.321 84.3084 119.809 84.0914 120.252Z" fill="#263238"/>
<path d="M81.5248 121.359C81.0532 121.199 80.6269 120.928 80.2818 120.569C79.9223 120.225 79.6533 119.798 79.4988 119.325C79.9697 119.483 80.3959 119.752 80.7417 120.109C81.098 120.458 81.3664 120.886 81.5248 121.359V121.359Z" fill="#263238"/>
<path d="M80.4931 123.96C80.0495 124.173 79.5617 124.277 79.0699 124.265C78.5772 124.279 78.0886 124.172 77.6467 123.953C78.0903 123.741 78.5781 123.636 79.0699 123.649C79.5624 123.636 80.0508 123.742 80.4931 123.96V123.96Z" fill="#263238"/>
<path d="M81.5994 126.529C81.4379 127 81.1675 127.427 80.8101 127.773C80.466 128.132 80.0393 128.401 79.5671 128.557C79.7269 128.085 79.9975 127.658 80.3564 127.313C80.7037 126.958 81.1294 126.689 81.5994 126.529V126.529Z" fill="#263238"/>
<path d="M84.1909 127.562C84.4057 128.005 84.5122 128.493 84.5016 128.986C84.5159 129.479 84.4092 129.969 84.1909 130.411C83.976 129.967 83.8695 129.479 83.8801 128.986C83.8732 128.494 83.9795 128.006 84.1909 127.562V127.562Z" fill="#263238"/>
<path d="M86.7576 126.454C87.2271 126.618 87.6525 126.889 88.0005 127.244C88.3571 127.591 88.6256 128.017 88.7836 128.489C88.3229 128.316 87.9048 128.045 87.5574 127.697C87.21 127.348 86.9415 126.928 86.77 126.467L86.7576 126.454Z" fill="#263238"/>
<path d="M87.7954 123.86C88.2419 123.655 88.7273 123.549 89.2186 123.549C89.7098 123.549 90.1953 123.655 90.6417 123.86C90.1997 124.078 89.7112 124.185 89.2186 124.171C88.7266 124.179 88.2395 124.072 87.7954 123.86V123.86Z" fill="#263238"/>
<path d="M86.6892 121.31C86.8596 120.848 87.1279 120.429 87.4754 120.081C87.823 119.733 88.2417 119.465 88.7028 119.294C88.5448 119.765 88.2763 120.192 87.9197 120.538C87.575 120.887 87.1537 121.152 86.6892 121.31V121.31Z" fill="#263238"/>
<path d="M149.004 166.642C148.906 166.547 148.827 166.433 148.774 166.307C148.72 166.181 148.693 166.045 148.693 165.908C148.693 165.771 148.72 165.635 148.774 165.509C148.827 165.383 148.906 165.269 149.004 165.174C149.105 165.267 149.184 165.381 149.238 165.508C149.291 165.634 149.318 165.771 149.315 165.908C149.316 166.045 149.289 166.181 149.235 166.307C149.182 166.433 149.103 166.547 149.004 166.642V166.642Z" fill="#263238"/>
<path d="M147.68 167.214C147.543 167.216 147.408 167.191 147.281 167.139C147.154 167.088 147.038 167.012 146.941 166.916C146.842 166.819 146.764 166.702 146.713 166.574C146.662 166.445 146.638 166.308 146.642 166.169C146.78 166.167 146.917 166.192 147.044 166.245C147.171 166.297 147.286 166.375 147.382 166.474C147.478 166.571 147.554 166.687 147.606 166.814C147.657 166.941 147.682 167.077 147.68 167.214V167.214Z" fill="#263238"/>
<path d="M147.146 168.589C146.952 168.786 146.689 168.898 146.413 168.9C146.274 168.9 146.138 168.872 146.01 168.817C145.883 168.763 145.769 168.683 145.673 168.583C145.769 168.485 145.884 168.407 146.012 168.354C146.139 168.302 146.275 168.276 146.413 168.278C146.55 168.277 146.686 168.303 146.812 168.357C146.938 168.41 147.052 168.489 147.146 168.589V168.589Z" fill="#263238"/>
<path d="M147.718 169.883C147.956 169.886 148.186 169.972 148.368 170.126C148.551 170.279 148.674 170.491 148.718 170.726C148.762 170.96 148.723 171.203 148.609 171.412C148.494 171.621 148.311 171.784 148.09 171.873C147.869 171.963 147.624 171.973 147.396 171.901C147.169 171.83 146.973 171.683 146.842 171.483C146.711 171.284 146.653 171.045 146.678 170.808C146.703 170.571 146.809 170.35 146.978 170.182C147.076 170.085 147.191 170.009 147.318 169.958C147.445 169.907 147.581 169.881 147.718 169.883V169.883Z" fill="#263238"/>
<path d="M149.054 170.418C149.154 170.512 149.233 170.626 149.287 170.752C149.34 170.879 149.367 171.015 149.365 171.152C149.367 171.29 149.341 171.428 149.287 171.555C149.234 171.683 149.154 171.797 149.054 171.893C148.956 171.796 148.878 171.68 148.825 171.553C148.771 171.426 148.744 171.29 148.743 171.152C148.744 171.015 148.772 170.88 148.825 170.754C148.878 170.628 148.956 170.514 149.054 170.418V170.418Z" fill="#263238"/>
<path d="M150.396 169.833C150.534 169.832 150.67 169.858 150.797 169.91C150.924 169.962 151.04 170.04 151.136 170.138C151.232 170.236 151.308 170.351 151.359 170.478C151.411 170.605 151.436 170.741 151.434 170.878C151.297 170.879 151.161 170.853 151.035 170.8C150.908 170.748 150.793 170.671 150.696 170.574C150.6 170.477 150.523 170.361 150.472 170.234C150.42 170.107 150.395 169.971 150.396 169.833V169.833Z" fill="#263238"/>
<path d="M150.918 168.502C151.013 168.404 151.128 168.326 151.254 168.274C151.38 168.221 151.515 168.195 151.652 168.197C151.789 168.195 151.925 168.221 152.051 168.275C152.178 168.329 152.291 168.408 152.385 168.508C152.29 168.606 152.176 168.684 152.05 168.737C151.924 168.791 151.789 168.819 151.652 168.819C151.514 168.819 151.378 168.791 151.252 168.737C151.126 168.682 151.013 168.602 150.918 168.502V168.502Z" fill="#263238"/>
<path d="M150.347 167.177C150.345 167.04 150.37 166.904 150.421 166.777C150.473 166.65 150.549 166.534 150.645 166.437C150.717 166.435 150.789 166.451 150.853 166.483C150.918 166.516 150.973 166.564 151.014 166.623C151.055 166.683 151.081 166.751 151.089 166.823C151.097 166.895 151.088 166.968 151.06 167.035C151.033 167.102 150.99 167.161 150.935 167.207C150.879 167.253 150.813 167.285 150.742 167.299C150.671 167.313 150.598 167.309 150.529 167.288C150.46 167.267 150.397 167.229 150.347 167.177V167.177Z" fill="#263238"/>
<path d="M46.6104 240C72.3526 240 93.2208 238 93.2208 235.533C93.2208 233.066 72.3526 231.067 46.6104 231.067C20.8682 231.067 0 233.066 0 235.533C0 238 20.8682 240 46.6104 240Z" fill="#EBEBEB"/>
<path d="M87.1739 124.42C86.5524 126.044 85.5208 127.929 84.427 128.401C83.7375 128.668 83.1292 129.11 82.662 129.683L81.6552 129.098L80.4558 128.401C80.4558 128.401 80.4558 128.265 80.5428 128.047C80.6298 127.829 80.692 127.531 80.8163 127.195C80.9242 127.042 80.9935 126.866 81.0184 126.68C81.0433 126.495 81.023 126.306 80.9592 126.131C80.8401 125.791 80.7961 125.429 80.8305 125.07C80.8648 124.711 80.9766 124.364 81.1581 124.053C81.5434 123.493 81.9163 122.112 82.1462 122.156C82.7117 122.255 81.8728 124.146 82.1151 124.501C82.1644 124.595 82.2479 124.667 82.3484 124.702C82.4489 124.737 82.5589 124.731 82.6558 124.688V124.688C84.2281 123.991 86.1423 120.258 87.0061 120.762C87.3106 120.936 87.4287 123.723 87.1739 124.42Z" fill="#F4AC75"/>
<path d="M86.7023 119.053L81.6494 126.25C81.5507 126.391 81.5845 126.585 81.7249 126.684L83.6978 128.072C83.8382 128.17 84.032 128.137 84.1307 127.996L89.1836 120.799C89.2823 120.659 89.2484 120.465 89.108 120.366L87.1352 118.978C86.9948 118.879 86.801 118.913 86.7023 119.053Z" fill="#FE885C"/>
<path d="M88.6141 120.307L83.4754 127.626C83.4004 127.732 83.4261 127.88 83.5328 127.955L84.687 128.767C84.7937 128.842 84.941 128.816 85.016 128.709L90.1547 121.39C90.2297 121.284 90.204 121.136 90.0973 121.061L88.9431 120.249C88.8364 120.174 88.6891 120.2 88.6141 120.307Z" fill="#B93200"/>
<path d="M53.4467 116.333C53.4467 116.333 63.4835 133.857 67.1191 137.08L80.4683 127.126C81.0786 127.344 81.6396 127.681 82.1186 128.118C82.5976 128.555 82.9852 129.083 83.2587 129.671C83.2587 129.671 75.1796 146.206 67.1626 146.903C59.1456 147.6 47.9653 127.095 47.9653 127.095L53.4467 116.333Z" fill="#998639"/>
<path d="M30.713 235.533H24.9147C24.4649 235.242 24.0881 234.85 23.8134 234.39C23.5386 233.929 23.3732 233.412 23.3299 232.877C23.0502 231.011 20.9559 229.984 20.5022 228.454C20.0485 226.923 22.3666 224.771 22.3666 224.771L22.7582 224.273L23.1621 223.751L27.009 224.659C27.009 224.659 27.1022 225.58 27.1644 226.749C27.211 227.638 27.211 228.529 27.1644 229.418C27.0525 231.459 27.7361 233.655 29.5446 234.053C30.8994 234.345 30.8373 235.154 30.713 235.533Z" fill="#2C3A64"/>
<path d="M64.3721 235.533H51.1099C50.4884 234.756 50.7059 231.882 50.8054 230.942C50.8054 230.756 50.8054 230.644 50.8054 230.644C50.8054 230.644 55.3359 227.017 55.9574 229.791C55.9574 229.878 56.0009 229.966 56.0257 230.053C56.8088 232.647 60.3201 233.829 62.3523 234.159C62.7842 234.174 63.2029 234.311 63.5603 234.554C63.9176 234.798 64.1991 235.137 64.3721 235.533V235.533Z" fill="#2C3A64"/>
<path d="M61.8427 161.435C61.8427 161.435 61.1591 170.02 60.3512 180.347C59.2512 194.369 57.9275 211.595 57.797 214.861C57.5732 220.522 56.6659 229.586 56.6659 229.586C56.6659 229.586 54.5156 231.745 50.215 230.83C47.7636 222.122 46.1139 213.207 45.2867 204.198L45.2308 203.52C44.2178 189.585 42.6331 160.241 42.6331 160.241L61.8427 161.435Z" fill="#9B6161"/>
<path d="M61.8427 161.435C61.8427 161.435 61.1591 170.02 60.3512 180.347L45.2867 204.204L45.2308 203.526C44.2178 189.591 42.6331 160.247 42.6331 160.247L61.8427 161.435Z" fill="#7A4444"/>
<path d="M58.7042 162.455C58.7042 162.455 46.312 193.56 38.1583 208.173C30.0046 222.786 27.4628 226.867 27.4628 226.867C27.4628 226.867 22.7955 225.001 22.3667 223.726C22.3667 223.726 25.4741 195.507 30.943 188.627C34.0504 184.739 37.6487 173.074 37.8227 169C37.9967 164.925 38.9227 156.844 38.9227 156.844L58.7042 162.455Z" fill="#9B6161"/>
<path d="M55.6154 117.11C50.7742 118.641 42.3967 114.516 42.3967 114.516C42.3967 114.516 46.8589 111.157 46.629 104.183L50.3578 107.207L52.8996 109.253C52.8674 110.369 52.7719 111.482 52.6137 112.588C52.5392 113.141 52.4521 113.763 52.3341 114.454C53.5817 115.13 54.6941 116.03 55.6154 117.11V117.11Z" fill="#F4AC75"/>
<path d="M52.9121 109.253C52.8798 110.369 52.7844 111.482 52.6262 112.588C49.8047 112.102 46.6104 107.542 46.6104 107.542C47.8154 107.167 49.0865 107.052 50.3392 107.207L52.9121 109.253Z" fill="#E19054"/>
<path d="M54.3974 109.141C54.3974 109.141 46.3928 110.473 45.6471 105.471C44.9013 100.469 43.3538 97.2778 48.4313 96.214C53.5087 95.1503 54.7889 96.9108 55.4477 98.522C56.1064 100.133 56.4607 108.668 54.3974 109.141Z" fill="#F4AC75"/>
<path d="M62.3769 162.15C62.2356 162.274 62.0548 162.342 61.8673 162.343C60.0526 162.343 54.7453 163.332 50.2582 162.866C46.533 162.442 42.9062 161.391 39.5316 159.755C39.0531 159.544 37.9531 158.953 37.978 158.424C38.0028 157.895 38.0525 156.987 38.1271 155.936C38.595 150.123 38.6843 144.285 38.3943 138.461C38.3115 137.088 38.27 135.728 38.27 134.38C38.2328 124.389 40.209 115.599 44.1865 112.606C44.5283 112.364 46.6102 113.384 48.5368 114.33C50.1539 115.123 51.9927 115.343 53.7509 114.952L55.4227 116.432C57.972 118.631 59.7981 121.55 60.6617 124.806C61.4882 128.134 61.973 134.137 62.2402 140.358C62.3583 143.176 62.4577 146.013 62.4826 148.713V148.806C62.4826 149.074 62.4826 149.366 62.4826 149.634C62.5945 156.564 62.5012 162.051 62.3769 162.15Z" fill="#C4AE53"/>
<path d="M38.1272 155.929C38.5951 150.116 38.6844 144.279 38.3944 138.455C38.3116 137.082 38.2701 135.721 38.2701 134.374C39.9233 130.355 41.2781 127.437 41.2781 127.437H45.4544C45.4544 127.437 48.5182 148.371 38.1272 155.929Z" fill="#998639"/>
<path d="M14.2199 167.11L13.1196 174.839C12.7879 177.169 14.4059 179.327 16.7336 179.659L34.5452 182.2C36.8729 182.532 39.0286 180.912 39.3603 178.582L40.4606 170.853C40.7923 168.523 39.1743 166.365 36.8467 166.033L19.035 163.492C16.7074 163.16 14.5516 164.78 14.2199 167.11Z" fill="#2A2962"/>
<path d="M37.8538 168.34C37.6001 167.708 37.2003 167.145 36.6872 166.697C36.174 166.25 35.5622 165.93 34.9018 165.765V165.765C34.7673 165.728 34.6302 165.701 34.4917 165.684L30.9431 165.18L31.1792 163.507C31.2056 163.324 31.1956 163.137 31.1498 162.958C31.1041 162.779 31.0235 162.61 30.9127 162.462C30.8018 162.315 30.6629 162.19 30.5039 162.096C30.3449 162.002 30.1689 161.94 29.986 161.914L29.06 161.783L25.3312 161.248L24.66 161.124C24.4732 161.099 24.2833 161.111 24.1013 161.16C23.9194 161.209 23.749 161.294 23.6003 161.41C23.4516 161.526 23.3274 161.67 23.2351 161.835C23.1428 161.999 23.0842 162.181 23.0628 162.368L22.8266 164.035L16.7051 163.164C15.5832 163.008 14.4451 163.302 13.5392 163.983C12.6333 164.664 12.0333 165.675 11.8701 166.797L10.7576 174.611C10.5997 175.734 10.893 176.875 11.5733 177.782C12.2536 178.689 13.2654 179.289 14.387 179.451L32.1674 181.989C32.4751 182.023 32.7856 182.023 33.0933 181.989V181.989C33.5744 181.957 34.0457 181.839 34.4854 181.641C35.1447 181.343 35.7181 180.884 36.1527 180.305C36.5873 179.727 36.8689 179.048 36.9713 178.331L38.0838 170.518C38.1979 169.784 38.1186 169.034 37.8538 168.34V168.34ZM23.9391 162.474C23.9547 162.363 24.0052 162.259 24.0834 162.179C24.1617 162.098 24.2635 162.045 24.3741 162.026C24.4276 162.017 24.4822 162.017 24.5357 162.026L25.3249 162.138L28.2583 162.555L29.8555 162.785C29.9237 162.794 29.9895 162.817 30.049 162.851C30.1085 162.886 30.1605 162.932 30.2021 162.987C30.2437 163.042 30.274 163.105 30.2913 163.171C30.3086 163.238 30.3126 163.308 30.3029 163.376L30.0606 165.043L23.7029 164.135L23.9391 162.474Z" fill="#6263AB"/>
<path d="M30.278 156.651C29.8606 157.177 29.5311 157.768 29.3023 158.399C29.0537 161.777 30.595 162.244 26.6051 164.116C26.6051 164.116 24.8961 164.769 24.8712 163.444C24.8464 162.119 26.052 162.101 25.8283 160.247C25.5735 158.107 25.5984 158.088 27.0029 156.968L27.9351 155.432L30.278 156.651Z" fill="#F4AC75"/>
<path d="M27.8979 157.609C28.9237 157.785 29.9662 157.843 31.0052 157.783C31.0052 157.783 35.4736 143.973 36.0454 142.716C36.6171 141.459 49.3076 126.541 49.3076 126.541L44.0251 113.303C44.0251 113.303 30.3278 136.24 28.9357 139.456C26.6301 144.781 25.8284 156.726 25.8284 156.726C26.4532 157.154 27.1565 157.454 27.8979 157.609Z" fill="#C4AE53"/>
<path d="M45.6411 104.992C45.6411 104.992 46.4614 104.855 46.3247 103.748C46.188 102.64 46.1942 101.135 47.114 101.409C48.0337 101.682 48.0835 102.423 48.4563 101.993C48.8292 101.564 48.8417 99.7475 51.5637 99.6231C54.2857 99.4987 55.4168 100.451 56.6846 99.8906C57.9524 99.3307 58.027 97.4022 58.027 97.4022C57.823 97.7807 57.5116 98.0903 57.1321 98.2918C57.1321 98.2918 59.2513 95.3866 56.7965 93.3897C54.3417 91.3927 51.8247 92.7054 50.4078 92.7676C47.3004 92.9542 45.2558 93.1408 44.2303 95.2062C43.2049 97.2716 43.6275 103.007 45.6411 104.992Z" fill="#3B0D0D"/>
<path d="M28.7989 158.138C28.7989 158.138 29.7001 159.077 29.7622 159.469C29.9424 160.713 30.3837 161.267 30.1537 161.404C29.7125 161.684 29.1345 160.782 28.8611 159.923C28.7013 159.341 28.68 158.73 28.7989 158.138V158.138Z" fill="#F4AC75"/>
<path d="M57.4302 112.482C57.1257 112.768 56.8087 113.054 56.5291 113.34" stroke="#263238" stroke-width="0.75" stroke-miterlimit="10"/>
<path d="M54.3165 115.543C22.2113 148.682 47.3933 176.421 87.9941 155.146C124.319 136.115 131.82 100.065 195.67 74.1481" stroke="#263238" stroke-width="0.75" stroke-miterlimit="10" stroke-dasharray="4.01 5.02"/>
<path d="M197.112 73.5696L198.274 73.1092" stroke="#263238" stroke-width="0.75" stroke-miterlimit="10"/>
<path d="M195.726 65.9924L191.618 77.2835L200.238 70.54L233.201 58.577L195.726 65.9924Z" fill="#36357E"/>
<path opacity="0.1" d="M195.726 65.9924L191.618 77.2835L200.238 70.54L233.201 58.577L195.726 65.9924Z" fill="#2A2962" stroke="#36357E" stroke-miterlimit="10"/>
<path d="M201.344 73.1714L191.618 77.2835L200.238 70.5399L201.344 73.1714Z" fill="#263238"/>
<path d="M200.238 70.54L233.201 58.577L206.167 84.9851L200.238 70.54Z" fill="#A8A8D0"/>
<path d="M195.726 65.9924L182.023 57.1399L233.201 58.5769L195.726 65.9924Z" fill="#A8A8D0"/>
</g>
<defs>
<clipPath id="clip0">
<rect width="233.307" height="240" fill="white"/>
</clipPath>
</defs>
</svg>
