<svg xmlns="http://www.w3.org/2000/svg" viewBox="0 0 375.41 385.79"><defs><style>.cls-1,.cls-28{fill:#2a2962;}.cls-2,.cls-25,.cls-26,.cls-5{fill:none;}.cls-3{fill:#fff;}.cls-4,.cls-6{fill:#a8a8d0;}.cls-5{stroke:#fff;}.cls-25,.cls-26,.cls-28,.cls-5{stroke-miterlimit:10;}.cls-25,.cls-26,.cls-5{stroke-width:0.75px;}.cls-10,.cls-6{opacity:0.2;}.cls-7{fill:#dbdbdb;}.cls-11,.cls-8{fill:#fe662e;}.cls-9{fill:#ebebeb;}.cls-11{font-size:12px;font-family:Metropolis-SemiBold, Metropolis;font-weight:600;}.cls-12{letter-spacing:-0.01em;}.cls-13{fill:#263238;}.cls-14{fill:#f4ac75;}.cls-15{fill:#fe885c;}.cls-16{fill:#b93200;}.cls-17{fill:#998639;}.cls-18{fill:#2c3a64;}.cls-19{fill:#9b6161;}.cls-20{fill:#7a4444;}.cls-21{fill:#e19054;}.cls-22{fill:#c4ae53;}.cls-23{fill:#6263ab;}.cls-24{fill:#3b0d0d;}.cls-25,.cls-26{stroke:#263238;}.cls-26{stroke-dasharray:4.01 5.02;}.cls-27{fill:#36357e;}.cls-28{stroke:#36357e;opacity:0.1;}</style></defs><g id="Camada_2" data-name="Camada 2"><g id="Device"><path class="cls-1" d="M275.15,0H112a16.66,16.66,0,0,0-16.5,16.81V352.7A16.67,16.67,0,0,0,112,369.52H275.15a16.7,16.7,0,0,0,16.53-16.82V16.81A16.68,16.68,0,0,0,275.15,0Zm6.2,342.32c0,8.84-6.62,16-14.79,16h-146c-8.19,0-14.81-7.15-14.81-16V29.54c0-18,6.62-18.88,14.81-18.88h29.24c1.7,0,3.09,1.93,3.09,4.32v1c0,5.61,3.07,5.63,6.84,5.63h67.62c3.8,0,6.85,0,6.85-5.63V15c0-2.39,1.37-4.32,3.1-4.32h29.23c8.17,0,14.79,2.39,14.79,18.88Z"/><line class="cls-2" x1="105.79" y1="322.49" x2="105.24" y2="322.49"/><path class="cls-3" d="M281.36,29.82V342.59c0,8.84-6.62,16-14.79,16h-146c-8.19,0-14.81-7.16-14.81-16V29.82c0-18,6.62-18.89,14.81-18.89h29.24c1.7,0,3.09,1.93,3.09,4.32v1c0,5.6,3.07,5.62,6.84,5.62h67.62c3.8,0,6.85,0,6.85-5.62v-1c0-2.39,1.37-4.32,3.1-4.32h29.23C274.74,10.93,281.36,13.32,281.36,29.82Z"/><path class="cls-4" d="M281.36,29.82V58.2H105.79V29.82c0-18,6.62-18.89,14.81-18.89h29.24c1.7,0,3.09,1.93,3.09,4.33v1c0,5.61,3.07,5.63,6.84,5.63h67.62c3.8,0,6.85,0,6.85-5.63v-1c0-2.4,1.37-4.33,3.1-4.33h29.23C274.74,10.93,281.36,13.33,281.36,29.82Z"/><path class="cls-3" d="M202.79,14.63H184.35a1.14,1.14,0,0,1-1.14-1.13h0a1.14,1.14,0,0,1,1.14-1.14h18.44a1.14,1.14,0,0,1,1.14,1.14h0A1.14,1.14,0,0,1,202.79,14.63Z"/><g id="u5Zjqx"><path class="cls-3" d="M144.78,17.68l-.28.28c-.05.05-.1.11-.16.16a3.85,3.85,0,0,0-5.45,0l-.15-.15-.28-.28h0l.35-.32a4.5,4.5,0,0,1,.83-.53,4.23,4.23,0,0,1,1.09-.36c.19,0,.37-.05.55-.08h.48l.37,0a4.37,4.37,0,0,1,1,.24,6,6,0,0,1,.68.32,4,4,0,0,1,.65.46l.29.26Z"/><path class="cls-3" d="M139.79,19l-.45-.44a3.2,3.2,0,0,1,4.55,0l-.45.45a2.53,2.53,0,0,0-1.82-.76A2.57,2.57,0,0,0,139.79,19Z"/><path class="cls-3" d="M143,19.46l-.45.44a1.28,1.28,0,0,0-.93-.39,1.32,1.32,0,0,0-.94.39l-.44-.44A1.94,1.94,0,0,1,143,19.46Z"/><path class="cls-3" d="M142,20.3a.4.4,0,1,1-.4-.4A.4.4,0,0,1,142,20.3Z"/></g><path class="cls-3" d="M117.23,18.53a1.17,1.17,0,1,1,1.17,1.17A1.17,1.17,0,0,1,117.23,18.53Z"/><path class="cls-3" d="M120.9,18.53a1.17,1.17,0,1,1,1.16,1.17A1.16,1.16,0,0,1,120.9,18.53Z"/><path class="cls-3" d="M124.56,18.53a1.17,1.17,0,1,1,1.17,1.17A1.17,1.17,0,0,1,124.56,18.53Z"/><path class="cls-3" d="M128.23,18.53a1.17,1.17,0,1,1,1.16,1.17A1.16,1.16,0,0,1,128.23,18.53Z"/><path class="cls-3" d="M131.89,18.53a1.17,1.17,0,1,1,1.17,1.17A1.16,1.16,0,0,1,131.89,18.53Z"/><path class="cls-3" d="M268.18,21.07h-9.47V16.69h9.47Zm-9-.48h8.51V17.17h-8.51Z"/><rect class="cls-3" x="259.5" y="17.43" width="6.11" height="2.9"/><rect class="cls-3" x="268.19" y="17.71" width="0.84" height="2.35"/><polygon class="cls-3" points="122.42 47.34 117.23 42.48 122.42 37.62 123.23 38.48 118.95 42.48 123.23 46.48 122.42 47.34"/><path class="cls-5" d="M259.54,41.67a.68.68,0,0,1,.32.61,1.34,1.34,0,0,0,0,.2,1.48,1.48,0,0,0,0,.21.66.66,0,0,1-.32.6l-.73.42,1.37,2.38.73-.42a.68.68,0,0,1,.69,0,2.5,2.5,0,0,0,.35.21.64.64,0,0,1,.36.58v.84h2.75v-.84a.64.64,0,0,1,.36-.58,2.5,2.5,0,0,0,.35-.21.68.68,0,0,1,.69,0l.73.42,1.37-2.38-.73-.42a.66.66,0,0,1-.32-.61v-.4a.66.66,0,0,1,.32-.61l.73-.42-1.37-2.37-.73.42a.66.66,0,0,1-.69,0l-.35-.2a.66.66,0,0,1-.36-.58v-.84h-2.75v.84a.66.66,0,0,1-.36.58l-.36.2a.64.64,0,0,1-.68,0l-.73-.42-1.37,2.37Zm4.14-1.44a2.25,2.25,0,1,1-2.25,2.25A2.25,2.25,0,0,1,263.68,40.23Z"/></g><g id="Invitation"><polygon class="cls-4" points="266.12 282.66 115.03 282.66 115.03 154.85 190.56 106.89 266.12 154.85 266.12 282.66"/><polygon class="cls-6" points="266.12 282.66 115.03 282.66 115.03 154.85 190.56 106.89 266.12 154.85 266.12 282.66"/><rect class="cls-3" x="123.55" y="100.81" width="134.05" height="172.08"/><path class="cls-7" d="M257.6,272.88l-134,.24h-.23v-.24l-.14-172.07v-.38h.37l134.05.11h.27v.27Zm0,0-.26-172.07.26.26-134,.11.38-.37-.15,172.07-.23-.23Z"/><path class="cls-8" d="M252.21,207c.13,5,.24,10.06.29,15.09s.15,10.06.15,15.08l.06,15.09-.05,15.08v.45h-.45c-5.26,0-10.52-.09-15.78-.15s-10.52-.17-15.78-.3c5.26-.13,10.52-.24,15.78-.29s10.52-.15,15.78-.15l-.44.44-.05-15.08.06-15.09c0-5,.1-10,.15-15.08S252.09,212,252.21,207Z"/><path class="cls-8" d="M128.93,166.71c-.12-5-.23-10.05-.28-15.08s-.15-10.06-.15-15.09l-.06-15.08.05-15.09v-.44h.44c5.26,0,10.52.09,15.78.15s10.52.16,15.78.29c-5.26.13-10.52.25-15.78.3s-10.52.15-15.78.15l.45-.45.05,15.09-.06,15.08c0,5-.1,10.06-.15,15.09S129.06,161.69,128.93,166.71Z"/><path class="cls-8" d="M190.65,106.37l15.39-.24,15.39-.14c5.13-.06,10.26,0,15.39-.07l15.39,0h.5v.5l0,15.09-.07,15.08c-.08,10.06-.18,20.12-.39,30.17-.2-10.05-.3-20.11-.38-30.17l-.07-15.08,0-15.09.49.5-15.39,0c-5.13,0-10.26,0-15.39-.07L206,106.62Z"/><path class="cls-8" d="M190.49,267.31q-15.39.29-30.78.37c-10.26.1-20.52.08-30.78.12h-.48v-.49l0-17.58.06-17.59.15-17.58.25-17.59.26,17.59.15,17.58.06,17.59,0,17.58-.49-.48c10.26,0,20.52,0,30.78.12S180.23,267.12,190.49,267.31Z"/><rect class="cls-9" x="142.84" y="153.75" width="95.89" height="0.89"/><rect class="cls-9" x="142.84" y="159.52" width="95.89" height="0.89"/><rect class="cls-9" x="142.84" y="165.28" width="95.89" height="0.89"/><rect class="cls-9" x="142.84" y="171.05" width="95.89" height="0.89"/><rect class="cls-9" x="142.84" y="176.81" width="95.89" height="0.89"/><rect class="cls-9" x="157.15" y="182.57" width="67.27" height="0.89"/><rect class="cls-9" x="142.84" y="194.1" width="95.89" height="0.89"/><rect class="cls-9" x="142.84" y="199.87" width="95.89" height="0.89"/><rect class="cls-9" x="142.84" y="205.63" width="95.89" height="0.89"/><rect class="cls-9" x="142.84" y="211.4" width="95.89" height="0.89"/><rect class="cls-9" x="142.84" y="217.16" width="95.89" height="0.89"/><path class="cls-4" d="M266.12,186.84v95.82H115V186.84c6.49,3.68,12.87,7.54,19.29,11.3s12.79,7.67,19.15,11.58q10.62,6.47,21.21,13.11l.23-.14c-.07.05-.12.12-.18.16q7.92,4.93,15.86,9.92c5.26-3.31,10.55-6.65,15.83-9.92-.06,0-.11-.11-.18-.16a1.27,1.27,0,0,0,.23.12c7.06-4.4,14.11-8.78,21.21-13.12q9.54-5.82,19.13-11.55C253.26,194.38,259.63,190.52,266.12,186.84Z"/><g class="cls-10"><path d="M266.12,186.84c-6.1,4.29-12.32,8.4-18.47,12.62S235.24,207.72,229,211.8q-9.76,6.4-19.58,12.69l-.59.41L191.43,236l-.87.52-.84-.52q-8.7-5.55-17.38-11.12c-.2-.11-.4-.25-.61-.38q-9.84-6.3-19.6-12.71c-6.22-4.06-12.44-8.19-18.63-12.32s-12.37-8.33-18.47-12.62c6.49,3.68,12.87,7.54,19.29,11.3s12.79,7.67,19.15,11.58q10.62,6.47,21.21,13.11l0,0q7.92,4.93,15.86,9.92c5.26-3.31,10.55-6.65,15.83-9.92,0,0,0,0,.05,0,7.06-4.4,14.11-8.78,21.21-13.12q9.54-5.82,19.13-11.55C253.26,194.38,259.63,190.52,266.12,186.84Z"/><path d="M174.91,222.69c-.07.05-.12.12-.18.16-.8.68-1.59,1.36-2.39,2-3.78,3.2-7.66,6.26-11.61,9.24-4.81,3.67-9.74,7.19-14.68,10.68s-10,6.83-15.07,10.1-10.25,6.47-15.59,9.39c4.59-4,9.35-7.76,14.16-11.41s9.76-7.19,14.68-10.69,10-6.85,15.09-10.12c4.06-2.6,8.19-5.17,12.41-7.57,1-.57,2-1.12,3-1.66Z"/><path d="M265.76,264.28c-5.33-2.92-10.51-6.12-15.59-9.39s-10.1-6.67-15.09-10.1-9.87-7-14.68-10.68c-3.92-3-7.8-6-11.57-9.21l-2.41-2.05c-.06,0-.11-.11-.18-.16a1.27,1.27,0,0,0,.23.12c1,.56,2,1.11,2.95,1.68,4.22,2.4,8.33,5,12.41,7.57,5.11,3.27,10.1,6.68,15.07,10.12s9.87,7,14.68,10.69S261.17,260.27,265.76,264.28Z"/></g><text class="cls-11" transform="translate(161.12 134.25)"><tspan class="cls-12">C</tspan><tspan x="8.1" y="0">ONVITE</tspan></text></g><g id="Stars"><line class="cls-8" x1="257.52" y1="94.93" x2="257.52" y2="90.35"/><path class="cls-13" d="M257.52,94.93a5.49,5.49,0,0,1,0-4.58,4.87,4.87,0,0,1,.5,2.29A5,5,0,0,1,257.52,94.93Z"/><line class="cls-8" x1="253.39" y1="96.71" x2="250.15" y2="93.46"/><path class="cls-13" d="M253.39,96.71a5.53,5.53,0,0,1-3.24-3.25,5.53,5.53,0,0,1,3.24,3.25Z"/><line class="cls-8" x1="251.73" y1="100.89" x2="247.14" y2="100.88"/><path class="cls-13" d="M251.73,100.89a5,5,0,0,1-2.3.49,4.9,4.9,0,0,1-2.29-.5,5.16,5.16,0,0,1,2.29-.5A5.05,5.05,0,0,1,251.73,100.89Z"/><line class="cls-8" x1="253.5" y1="105.02" x2="250.26" y2="108.25"/><path class="cls-13" d="M253.5,105a5.5,5.5,0,0,1-3.24,3.23A5.5,5.5,0,0,1,253.5,105Z"/><line class="cls-8" x1="257.68" y1="106.68" x2="257.68" y2="111.26"/><path class="cls-13" d="M257.68,106.68a5.49,5.49,0,0,1,0,4.58,4.87,4.87,0,0,1-.5-2.29A5.13,5.13,0,0,1,257.68,106.68Z"/><line class="cls-8" x1="261.81" y1="104.9" x2="265.05" y2="108.15"/><path class="cls-13" d="M261.81,104.9a5.08,5.08,0,0,1,2,1.27,5,5,0,0,1,1.27,2,5.53,5.53,0,0,1-3.24-3.25Z"/><line class="cls-8" x1="263.48" y1="100.73" x2="268.06" y2="100.73"/><path class="cls-13" d="M263.48,100.73a4.85,4.85,0,0,1,2.29-.5,4.9,4.9,0,0,1,2.29.5,5,5,0,0,1-2.29.5A5.1,5.1,0,0,1,263.48,100.73Z"/><line class="cls-8" x1="261.7" y1="96.59" x2="264.94" y2="93.36"/><path class="cls-13" d="M261.7,96.59a5,5,0,0,1,1.27-2,5,5,0,0,1,2-1.26,5.5,5.5,0,0,1-3.24,3.23Z"/><line class="cls-8" x1="135.31" y1="193.3" x2="135.32" y2="188.72"/><path class="cls-13" d="M135.31,193.3a5,5,0,0,1-.49-2.29,4.87,4.87,0,0,1,.5-2.29,5.13,5.13,0,0,1,.5,2.29A5,5,0,0,1,135.31,193.3Z"/><line class="cls-8" x1="131.18" y1="195.08" x2="127.95" y2="191.84"/><path class="cls-13" d="M131.18,195.08a5,5,0,0,1-2-1.27,4.85,4.85,0,0,1-1.26-2,5,5,0,0,1,2,1.26A5.06,5.06,0,0,1,131.18,195.08Z"/><line class="cls-8" x1="129.52" y1="199.26" x2="124.94" y2="199.25"/><path class="cls-13" d="M129.52,199.26a5,5,0,0,1-2.29.49,4.85,4.85,0,0,1-2.29-.5,5,5,0,0,1,2.29-.49A4.9,4.9,0,0,1,129.52,199.26Z"/><line class="cls-8" x1="131.3" y1="203.39" x2="128.05" y2="206.62"/><path class="cls-13" d="M131.3,203.39a5.08,5.08,0,0,1-1.27,2,4.89,4.89,0,0,1-2,1.26,5,5,0,0,1,1.27-2A5.1,5.1,0,0,1,131.3,203.39Z"/><line class="cls-8" x1="135.47" y1="205.05" x2="135.47" y2="209.63"/><path class="cls-13" d="M135.47,205.05a5,5,0,0,1,.5,2.29,4.85,4.85,0,0,1-.5,2.29,5,5,0,0,1-.5-2.29A5.16,5.16,0,0,1,135.47,205.05Z"/><line class="cls-8" x1="139.6" y1="203.27" x2="142.84" y2="206.52"/><path class="cls-13" d="M139.6,203.27a5.2,5.2,0,0,1,2,1.27,5,5,0,0,1,1.26,2,5.53,5.53,0,0,1-3.24-3.25Z"/><line class="cls-8" x1="141.27" y1="199.1" x2="145.85" y2="199.1"/><path class="cls-13" d="M141.27,199.1a5.49,5.49,0,0,1,4.58,0,4.87,4.87,0,0,1-2.29.5A5.13,5.13,0,0,1,141.27,199.1Z"/><line class="cls-8" x1="139.49" y1="194.97" x2="142.73" y2="191.73"/><path class="cls-13" d="M139.49,195a5.48,5.48,0,0,1,3.24-3.24,5,5,0,0,1-1.26,2A5.08,5.08,0,0,1,139.49,195Z"/><line class="cls-8" x1="239.76" y1="267.87" x2="239.76" y2="265.51"/><path class="cls-13" d="M239.76,267.87a1.64,1.64,0,0,1,0-2.36,1.57,1.57,0,0,1,.5,1.18A1.62,1.62,0,0,1,239.76,267.87Z"/><line class="cls-8" x1="237.63" y1="268.79" x2="235.96" y2="267.11"/><path class="cls-13" d="M237.63,268.79a1.66,1.66,0,0,1-1.19-.48,1.6,1.6,0,0,1-.48-1.2,1.62,1.62,0,0,1,1.19.49A1.66,1.66,0,0,1,237.63,268.79Z"/><line class="cls-8" x1="236.77" y1="270.95" x2="234.4" y2="270.94"/><path class="cls-13" d="M236.77,271a1.68,1.68,0,0,1-1.18.5,1.65,1.65,0,0,1-1.19-.51,1.63,1.63,0,0,1,1.19-.49A1.6,1.6,0,0,1,236.77,271Z"/><line class="cls-8" x1="237.69" y1="273.08" x2="236.01" y2="274.75"/><path class="cls-13" d="M237.69,273.08a1.66,1.66,0,1,1-1.19.48A1.66,1.66,0,0,1,237.69,273.08Z"/><line class="cls-8" x1="239.84" y1="273.94" x2="239.84" y2="276.31"/><path class="cls-13" d="M239.84,273.94a1.58,1.58,0,0,1,.5,1.18,1.6,1.6,0,0,1-.5,1.19,1.68,1.68,0,0,1-.5-1.19A1.66,1.66,0,0,1,239.84,273.94Z"/><line class="cls-8" x1="241.98" y1="273.02" x2="243.65" y2="274.7"/><path class="cls-13" d="M242,273a1.64,1.64,0,0,1,1.19.49,1.66,1.66,0,0,1,.48,1.19A1.66,1.66,0,0,1,242,273Z"/><line class="cls-8" x1="242.84" y1="270.86" x2="245.2" y2="270.87"/><path class="cls-13" d="M242.84,270.86a1.61,1.61,0,0,1,1.18-.49,1.58,1.58,0,0,1,1.18.5,1.66,1.66,0,0,1-1.18.5A1.62,1.62,0,0,1,242.84,270.86Z"/><line class="cls-8" x1="241.92" y1="268.73" x2="243.59" y2="267.06"/><path class="cls-13" d="M241.92,268.73a1.66,1.66,0,0,1,.48-1.19.7.7,0,1,1-.48,1.19Z"/></g><g id="Paper_Plane" data-name="Paper Plane"><g id="Homem"><ellipse class="cls-9" cx="75" cy="378.61" rx="75" ry="7.18"/><g id="man"><path class="cls-14" d="M140.27,200c-1,2.61-2.66,5.64-4.42,6.4a6.85,6.85,0,0,0-2.84,2.06l-1.62-.94-1.93-1.12s0-.22.14-.57.24-.83.44-1.37a1.86,1.86,0,0,0,.23-1.71,4,4,0,0,1,.32-3.34c.62-.9,1.22-3.12,1.59-3.05.91.16-.44,3.2-.05,3.77a.67.67,0,0,0,.87.3h0c2.53-1.12,5.61-7.12,7-6.31C140.49,194.4,140.68,198.88,140.27,200Z"/><rect class="cls-15" x="129.87" y="196.11" width="15.14" height="4.88" rx="0.5" transform="translate(-104.03 196.84) rotate(-54.9)"/><rect class="cls-16" x="132.12" y="198.62" width="15.14" height="3.03" rx="0.38" transform="translate(-104.37 199.35) rotate(-54.9)"/><path class="cls-17" d="M86,187s16.15,28.17,22,33.35l21.48-16a7.87,7.87,0,0,1,4.49,4.09s-13,26.58-25.9,27.7S77.18,204.3,77.18,204.3Z"/><path class="cls-18" d="M49.42,378.61H40.09a5.63,5.63,0,0,1-2.55-4.27c-.45-3-3.82-4.65-4.55-7.11s3-5.92,3-5.92l.63-.8.65-.84,6.19,1.46s.15,1.48.25,3.36a40.9,40.9,0,0,1,0,4.29c-.18,3.28.92,6.81,3.83,7.45C49.72,376.7,49.62,378,49.42,378.61Z"/><path class="cls-18" d="M103.58,378.61H82.24c-1-1.25-.65-5.87-.49-7.38,0-.3,0-.48,0-.48s7.29-5.83,8.29-1.37c0,.14.07.28.11.42,1.26,4.17,6.91,6.07,10.18,6.6A3.69,3.69,0,0,1,103.58,378.61Z"/><path class="cls-19" d="M99.51,259.5s-1.1,13.8-2.4,30.4c-1.77,22.54-3.9,50.23-4.11,55.48-.36,9.1-1.82,23.67-1.82,23.67s-3.46,3.47-10.38,2a238.21,238.21,0,0,1-7.93-42.81l-.09-1.09c-1.63-22.4-4.18-69.57-4.18-69.57Z"/><path class="cls-20" d="M99.51,259.5s-1.1,13.8-2.4,30.4L72.87,328.25l-.09-1.09c-1.63-22.4-4.18-69.57-4.18-69.57Z"/><path class="cls-19" d="M94.46,261.14s-19.94,50-33.06,73.49-17.21,30.05-17.21,30.05-7.51-3-8.2-5.05c0,0,5-45.36,13.8-56.42,5-6.25,10.79-25,11.07-31.55s1.77-19.54,1.77-19.54Z"/><path class="cls-14" d="M89.49,188.25c-7.79,2.46-21.27-4.17-21.27-4.17s7.18-5.4,6.81-16.61l6,4.86,4.09,3.29a47.46,47.46,0,0,1-.46,5.36c-.12.89-.26,1.89-.45,3A18.56,18.56,0,0,1,89.49,188.25Z"/><path class="cls-21" d="M85.14,175.62a47.46,47.46,0,0,1-.46,5.36c-4.54-.78-9.68-8.11-9.68-8.11a14.3,14.3,0,0,1,6-.54Z"/><path class="cls-14" d="M87.53,175.44s-12.88,2.14-14.08-5.9-3.69-13.17,4.48-14.88,10.23,1.12,11.29,3.71S90.85,174.68,87.53,175.44Z"/><path class="cls-22" d="M100.37,260.65a1.26,1.26,0,0,1-.82.31c-2.92,0-11.46,1.59-18.68.84a53.45,53.45,0,0,1-17.26-5c-.77-.34-2.54-1.29-2.5-2.14s.12-2.31.24-4a215.92,215.92,0,0,0,.43-28.09q-.2-3.31-.2-6.56c-.06-16.06,3.12-30.19,9.52-35,.55-.39,3.9,1.25,7,2.77a12.77,12.77,0,0,0,8.39,1l2.69,2.38a26.87,26.87,0,0,1,8.43,13.46c1.33,5.35,2.11,15,2.54,25,.19,4.53.35,9.09.39,13.43v.15c0,.43,0,.9,0,1.33C100.72,251.67,100.57,260.49,100.37,260.65Z"/><path class="cls-17" d="M61.35,250.65a215.92,215.92,0,0,0,.43-28.09q-.2-3.31-.2-6.56c2.66-6.46,4.84-11.15,4.84-11.15h6.72S78.07,238.5,61.35,250.65Z"/><rect class="cls-1" x="29.98" y="256.52" width="26.25" height="42.65" rx="6.85" transform="translate(-238.04 281.32) rotate(-81.89)"/><path class="cls-23" d="M60.91,270.6h0a6.93,6.93,0,0,0-4.75-4.14h0a4.53,4.53,0,0,0-.66-.13l-5.71-.81.38-2.69a2.26,2.26,0,0,0-1.92-2.56l-1.49-.21-6-.86L39.68,259A2.28,2.28,0,0,0,37.11,261l-.38,2.68-9.85-1.4a6.9,6.9,0,0,0-7.78,5.84l-1.79,12.56a6.89,6.89,0,0,0,5.84,7.78l28.61,4.08a6.77,6.77,0,0,0,1.49,0h0a6.54,6.54,0,0,0,2.24-.56,6.91,6.91,0,0,0,4-5.32l1.79-12.56A6.85,6.85,0,0,0,60.91,270.6Zm-22.39-9.43a.85.85,0,0,1,.7-.72.76.76,0,0,1,.26,0l1.27.18,4.72.67,2.57.37a.84.84,0,0,1,.72.95l-.39,2.68-10.23-1.46Z"/><path class="cls-14" d="M48.72,251.81a10,10,0,0,0-1.57,2.81c-.4,5.43,2.08,6.18-4.34,9.19,0,0-2.75,1.05-2.79-1.08s1.9-2.16,1.54-5.14c-.41-3.44-.37-3.47,1.89-5.27l1.5-2.47Z"/><path class="cls-22" d="M44.89,253.35a22.09,22.09,0,0,0,5,.28s7.19-22.2,8.11-24.22,21.34-26,21.34-26l-8.5-21.28S48.8,219,46.56,224.17c-3.71,8.56-5,27.76-5,27.76A9.23,9.23,0,0,0,44.89,253.35Z"/><path class="cls-24" d="M73.44,168.77s1.32-.22,1.1-2-.21-4.2,1.27-3.76,1.56,1.63,2.16.94.62-3.61,5-3.81,6.2,1.33,8.24.43,2.16-4,2.16-4A3.5,3.5,0,0,1,91.93,158s3.41-4.67-.54-7.88-8-1.1-10.28-1c-5,.3-8.29.6-9.94,3.92S70.2,165.58,73.44,168.77Z"/><path class="cls-14" d="M46.34,254.2s1.45,1.51,1.55,2.14c.29,2,1,2.89.63,3.11-.71.45-1.64-1-2.08-2.38A6.21,6.21,0,0,1,46.34,254.2Z"/></g></g><path class="cls-25" d="M92.41,180.81c-.49.46-1,.92-1.45,1.38"/><path class="cls-26" d="M87.4,185.73C35.74,239,76.26,283.59,141.59,249.39c58.45-30.59,70.52-88.54,173.26-130.2"/><path class="cls-25" d="M317.17,118.26l1.87-.74"/><polygon class="cls-27" points="314.94 106.08 308.33 124.23 322.2 113.39 375.24 94.16 314.94 106.08"/><polygon class="cls-28" points="314.94 106.08 308.33 124.23 322.2 113.39 375.24 94.16 314.94 106.08"/><polygon class="cls-13" points="323.98 117.62 308.33 124.23 322.2 113.39 323.98 117.62"/><polygon class="cls-4" points="322.2 113.39 375.24 94.16 331.74 136.61 322.2 113.39"/><polygon class="cls-4" points="314.94 106.08 292.89 91.85 375.24 94.16 314.94 106.08"/></g></g></svg>