<svg width="311" height="80" viewBox="0 0 311 80" fill="none" xmlns="http://www.w3.org/2000/svg">
<rect width="311" height="80" rx="16" fill="#36357E"/>
<mask id="mask0" style="mask-type:alpha" maskUnits="userSpaceOnUse" x="158" y="0" width="153" height="80">
<rect x="158" width="153" height="80" rx="16" fill="#FF7648"/>
</mask>
<g mask="url(#mask0)">
<path fill-rule="evenodd" clip-rule="evenodd" d="M292.027 -108.64C309.962 -113.74 329.287 -103.631 344.2 -92.7074C358.931 -81.9162 367.27 -65.5951 373.699 -48.8141C380.389 -31.3483 389.53 -11.8511 381.69 5.15917C373.955 21.94 351.618 25.3173 335.253 34.5963C320.937 42.7138 308.611 55.8968 292.027 55.9991C275.405 56.1017 259.456 47.1661 248.399 35.1321C238.482 24.3382 241.611 7.92588 235.674 -5.33403C228.723 -20.8594 205.166 -32.656 210.887 -48.6466C216.646 -64.7455 244.207 -57.9165 258.182 -68.2496C272.766 -79.0324 274.428 -103.636 292.027 -108.64Z" fill="#A8A8D0"/>
</g>
</svg>
