<svg width="20" height="20" viewBox="0 0 20 20" fill="none" xmlns="http://www.w3.org/2000/svg">
<path d="M2.5 5H4.16667H17.5" stroke="#FE4400" stroke-width="2" stroke-linecap="round" stroke-linejoin="round"/>
<path d="M6.66675 4.99999V3.33332C6.66675 2.8913 6.84234 2.46737 7.1549 2.15481C7.46746 1.84225 7.89139 1.66666 8.33342 1.66666H11.6667C12.1088 1.66666 12.5327 1.84225 12.8453 2.15481C13.1578 2.46737 13.3334 2.8913 13.3334 3.33332V4.99999M15.8334 4.99999V16.6667C15.8334 17.1087 15.6578 17.5326 15.3453 17.8452C15.0327 18.1577 14.6088 18.3333 14.1667 18.3333H5.83341C5.39139 18.3333 4.96746 18.1577 4.6549 17.8452C4.34234 17.5326 4.16675 17.1087 4.16675 16.6667V4.99999H15.8334Z" stroke="#FE4400" stroke-width="2" stroke-linecap="round" stroke-linejoin="round"/>
<path d="M8.33325 9.16666V14.1667" stroke="#FE4400" stroke-width="2" stroke-linecap="round" stroke-linejoin="round"/>
<path d="M11.6667 9.16666V14.1667" stroke="#FE4400" stroke-width="2" stroke-linecap="round" stroke-linejoin="round"/>
</svg>
